# WaveFront *.obj file (generated by Autodesk ATF)

mtllib Back_plate.mtl

g Body1

v -0.779944 -1.069451 6.869573
v -0.779944 -1.869451 6.869573
v -0.779944 -1.869451 7.669573
v -0.779944 -1.069451 7.669573
v -0.779944 -1.178640 7.579573
v -0.779944 -1.261108 7.579573
v -0.779944 -1.261108 7.497105
v -0.779944 -1.178640 7.497105
v -0.779944 -1.444638 7.301863
v -0.779944 -1.459006 7.321321
v -0.779944 -1.476208 7.338467
v -0.779944 -1.496239 7.353295
v -0.779944 -1.518741 7.365486
v -0.779944 -1.542428 7.373963
v -0.779944 -1.567245 7.378540
v -0.779944 -1.593033 7.379360
v -0.779944 -1.618036 7.376691
v -0.779944 -1.641621 7.370638
v -0.779944 -1.663773 7.361198
v -0.779944 -1.684515 7.348359
v -0.779944 -1.703803 7.332147
v -0.779944 -1.721246 7.312819
v -0.779944 -1.735533 7.291257
v -0.779944 -1.746577 7.267524
v -0.779944 -1.754377 7.241624
v -0.779944 -1.760247 7.183360
v -0.779944 -1.753243 7.125790
v -0.779944 -1.744950 7.100153
v -0.779944 -1.733493 7.076609
v -0.779944 -1.718857 7.055146
v -0.779944 -1.701141 7.035826
v -0.779944 -1.681475 7.019544
v -0.779944 -1.660175 7.006553
v -0.779944 -1.637268 6.996869
v -0.779944 -1.612762 6.990488
v -0.779944 -1.559337 6.987647
v -0.779944 -1.532920 6.991437
v -0.779944 -1.507640 6.998800
v -0.779944 -1.483488 7.009740
v -0.779944 -1.460571 7.024221
v -0.779944 -1.440019 7.041846
v -0.779944 -1.422115 7.062563
v -0.779944 -1.406838 7.086320
v -0.779944 -1.394189 7.113212
v -0.779944 -1.377425 7.183307
v -0.779944 -1.372203 7.277285
v -0.779944 -1.377934 7.371346
v -0.779944 -1.394252 7.445587
v -0.779944 -1.421115 7.502352
v -0.779944 -1.438411 7.525580
v -0.779944 -1.458219 7.545365
v -0.779944 -1.480410 7.561686
v -0.779944 -1.504672 7.574357
v -0.779944 -1.530712 7.583202
v -0.779944 -1.558493 7.588248
v -0.779944 -1.588059 7.589552
v -0.779944 -1.616738 7.587162
v -0.779944 -1.643019 7.581103
v -0.779944 -1.666866 7.571378
v -0.779944 -1.688286 7.557985
v -0.779944 -1.707112 7.541039
v -0.779944 -1.722704 7.521040
v -0.779944 -1.734935 7.498076
v -0.779944 -1.743836 7.472108
v -0.779944 -1.749395 7.443133
v -0.779944 -1.679726 7.436733
v -0.779944 -1.671697 7.467457
v -0.779944 -1.659818 7.491716
v -0.779944 -1.652419 7.501399
v -0.779944 -1.644087 7.509545
v -0.779944 -1.634867 7.516260
v -0.779944 -1.624788 7.521620
v -0.779944 -1.602151 7.528422
v -0.779944 -1.576341 7.529958
v -0.779944 -1.551420 7.526434
v -0.779944 -1.529163 7.517988
v -0.779944 -1.509548 7.505049
v -0.779944 -1.492851 7.488680
v -0.779944 -1.479059 7.468914
v -0.779944 -1.467357 7.444039
v -0.779944 -1.449555 7.378378
v -0.779944 1.730549 4.669573
v -0.779944 -4.669451 4.669573
v -0.779944 -4.669451 8.669573
v -0.779944 1.730549 8.669573
v -0.779944 -1.019451 6.819573
v -0.779944 -1.019451 7.719573
v -0.779944 -1.919451 7.719573
v -0.779944 -1.919451 6.819573
v -0.779944 -0.969451 8.119573
v -0.779944 -0.930628 8.124684
v -0.779944 -0.894451 8.139669
v -0.779944 -0.863385 8.163507
v -0.779944 -0.839547 8.194573
v -0.779944 -0.824562 8.230750
v -0.779944 -0.819451 8.269573
v -0.779944 -0.824562 8.308396
v -0.779944 -0.839547 8.344573
v -0.779944 -0.863385 8.375639
v -0.779944 -0.894451 8.399477
v -0.779944 -0.930628 8.414462
v -0.779944 -0.969451 8.419573
v -0.779944 -1.008273 8.414462
v -0.779944 -1.044451 8.399477
v -0.779944 -1.075517 8.375639
v -0.779944 -1.099354 8.344573
v -0.779944 -1.114339 8.308396
v -0.779944 -1.119451 8.269573
v -0.779944 -1.114339 8.230750
v -0.779944 -1.099354 8.194573
v -0.779944 -1.075517 8.163507
v -0.779944 -1.044451 8.139669
v -0.779944 -1.008273 8.124684
v -0.779944 -1.969451 8.119573
v -0.779944 -1.930628 8.124684
v -0.779944 -1.894451 8.139669
v -0.779944 -1.863385 8.163507
v -0.779944 -1.839547 8.194573
v -0.779944 -1.824562 8.230750
v -0.779944 -1.819451 8.269573
v -0.779944 -1.824562 8.308396
v -0.779944 -1.839547 8.344573
v -0.779944 -1.863385 8.375639
v -0.779944 -1.894451 8.399477
v -0.779944 -1.930628 8.414462
v -0.779944 -1.969451 8.419573
v -0.779944 -2.008273 8.414462
v -0.779944 -2.044451 8.399477
v -0.779944 -2.075517 8.375639
v -0.779944 -2.099354 8.344573
v -0.779944 -2.114339 8.308396
v -0.779944 -2.119451 8.269573
v -0.779944 -2.114339 8.230750
v -0.779944 -2.099354 8.194573
v -0.779944 -2.075517 8.163507
v -0.779944 -2.044451 8.139669
v -0.779944 -2.008273 8.124684
v -0.479944 1.730549 4.669573
v -0.479944 -4.669451 4.669573
v -0.479944 1.730549 8.669573
v -0.479944 -4.669451 8.669573
v -0.479944 -0.969451 8.119573
v -0.479944 -1.008273 8.124684
v -0.479944 -1.044451 8.139669
v -0.479944 -1.075517 8.163507
v -0.479944 -1.099354 8.194573
v -0.479944 -1.114339 8.230750
v -0.479944 -1.119451 8.269573
v -0.479944 -1.114339 8.308396
v -0.479944 -1.099354 8.344573
v -0.479944 -1.075517 8.375639
v -0.479944 -1.044451 8.399477
v -0.479944 -1.008273 8.414462
v -0.479944 -0.969451 8.419573
v -0.479944 -0.930628 8.414462
v -0.479944 -0.894451 8.399477
v -0.479944 -0.863385 8.375639
v -0.479944 -0.839547 8.344573
v -0.479944 -0.824562 8.308396
v -0.479944 -0.819451 8.269573
v -0.479944 -0.824562 8.230750
v -0.479944 -0.839547 8.194573
v -0.479944 -0.863385 8.163507
v -0.479944 -0.894451 8.139669
v -0.479944 -0.930628 8.124684
v -0.479944 -1.969451 8.119573
v -0.479944 -2.008273 8.124684
v -0.479944 -2.044451 8.139669
v -0.479944 -2.075517 8.163507
v -0.479944 -2.099354 8.194573
v -0.479944 -2.114339 8.230750
v -0.479944 -2.119451 8.269573
v -0.479944 -2.114339 8.308396
v -0.479944 -2.099354 8.344573
v -0.479944 -2.075517 8.375639
v -0.479944 -2.044451 8.399477
v -0.479944 -2.008273 8.414462
v -0.479944 -1.969451 8.419573
v -0.479944 -1.930628 8.414462
v -0.479944 -1.894451 8.399477
v -0.479944 -1.863385 8.375639
v -0.479944 -1.839547 8.344573
v -0.479944 -1.824562 8.308396
v -0.479944 -1.819451 8.269573
v -0.479944 -1.824562 8.230750
v -0.479944 -1.839547 8.194573
v -0.479944 -1.863385 8.163507
v -0.479944 -1.894451 8.139669
v -0.479944 -1.930628 8.124684
v -0.729944 -1.869451 6.869573
v -0.729944 -1.869451 7.669573
v -0.729944 -1.069451 7.669573
v -0.729944 -1.069451 6.869573
v -0.729944 -1.019451 6.819573
v -0.729944 -1.019451 7.719573
v -0.729944 -1.919451 7.719573
v -0.729944 -1.919451 6.819573
v -0.779944 -1.485899 7.083649
v -0.779944 -1.471370 7.103563
v -0.779944 -1.461011 7.126700
v -0.779944 -1.454804 7.153040
v -0.779944 -1.452728 7.182563
v -0.779944 -1.454712 7.211993
v -0.779944 -1.460707 7.238032
v -0.779944 -1.470722 7.260701
v -0.779944 -1.484769 7.280022
v -0.779944 -1.501999 7.295490
v -0.779944 -1.521482 7.306549
v -0.779944 -1.543213 7.313216
v -0.779944 -1.567186 7.315505
v -0.779944 -1.591354 7.313390
v -0.779944 -1.613483 7.306830
v -0.779944 -1.633599 7.295823
v -0.779944 -1.651713 7.280370
v -0.729944 -1.651713 7.280370
v -0.729944 -1.633599 7.295823
v -0.729944 -1.613483 7.306830
v -0.729944 -1.591354 7.313390
v -0.729944 -1.567186 7.315505
v -0.729944 -1.543213 7.313216
v -0.729944 -1.521482 7.306549
v -0.729944 -1.501999 7.295490
v -0.729944 -1.484769 7.280022
v -0.729944 -1.470722 7.260701
v -0.729944 -1.460707 7.238032
v -0.729944 -1.454712 7.211993
v -0.729944 -1.452728 7.182563
v -0.729944 -1.454804 7.153040
v -0.729944 -1.461011 7.126700
v -0.729944 -1.471370 7.103563
v -0.729944 -1.485899 7.083649
v -0.729944 -1.749395 7.443133
v -0.729944 -1.679726 7.436733
v -0.729944 -1.444638 7.301863
v -0.729944 -1.459006 7.321321
v -0.729944 -1.476208 7.338467
v -0.729944 -1.496239 7.353295
v -0.729944 -1.518741 7.365486
v -0.729944 -1.542428 7.373963
v -0.729944 -1.567245 7.378540
v -0.729944 -1.593033 7.379360
v -0.729944 -1.618036 7.376691
v -0.729944 -1.641621 7.370638
v -0.729944 -1.663773 7.361198
v -0.729944 -1.684515 7.348359
v -0.729944 -1.703803 7.332147
v -0.729944 -1.721246 7.312819
v -0.729944 -1.735533 7.291257
v -0.729944 -1.746577 7.267524
v -0.729944 -1.754377 7.241624
v -0.729944 -1.760247 7.183360
v -0.729944 -1.753243 7.125790
v -0.729944 -1.744950 7.100153
v -0.729944 -1.733493 7.076609
v -0.729944 -1.718857 7.055146
v -0.729944 -1.701141 7.035826
v -0.729944 -1.681475 7.019544
v -0.729944 -1.660175 7.006553
v -0.729944 -1.637268 6.996869
v -0.729944 -1.612762 6.990488
v -0.729944 -1.559337 6.987647
v -0.729944 -1.532920 6.991437
v -0.729944 -1.507640 6.998800
v -0.729944 -1.483488 7.009740
v -0.729944 -1.460571 7.024221
v -0.729944 -1.440019 7.041846
v -0.729944 -1.422115 7.062563
v -0.729944 -1.406838 7.086320
v -0.729944 -1.394189 7.113212
v -0.729944 -1.377425 7.183307
v -0.729944 -1.372203 7.277285
v -0.729944 -1.377934 7.371346
v -0.729944 -1.394252 7.445587
v -0.729944 -1.421115 7.502352
v -0.729944 -1.438411 7.525580
v -0.729944 -1.458219 7.545365
v -0.729944 -1.480410 7.561686
v -0.729944 -1.504672 7.574357
v -0.729944 -1.530712 7.583202
v -0.729944 -1.558493 7.588248
v -0.729944 -1.588059 7.589552
v -0.729944 -1.616738 7.587162
v -0.729944 -1.643019 7.581103
v -0.729944 -1.666866 7.571378
v -0.729944 -1.688286 7.557985
v -0.729944 -1.707112 7.541039
v -0.729944 -1.722704 7.521040
v -0.729944 -1.734935 7.498076
v -0.729944 -1.743836 7.472108
v -0.729944 -1.671697 7.467457
v -0.729944 -1.659818 7.491716
v -0.729944 -1.652419 7.501399
v -0.729944 -1.644087 7.509545
v -0.729944 -1.634867 7.516260
v -0.729944 -1.624788 7.521620
v -0.729944 -1.602151 7.528422
v -0.729944 -1.576341 7.529958
v -0.729944 -1.551420 7.526434
v -0.729944 -1.529163 7.517988
v -0.729944 -1.509548 7.505049
v -0.729944 -1.492851 7.488680
v -0.729944 -1.479059 7.468914
v -0.729944 -1.467357 7.444039
v -0.729944 -1.449555 7.378378
v -0.779944 -1.667612 7.259845
v -0.779944 -1.678538 7.236242
v -0.779944 -1.684514 7.209579
v -0.779944 -1.685589 7.180115
v -0.779944 -1.682279 7.151889
v -0.779944 -1.674764 7.126377
v -0.779944 -1.663046 7.103612
v -0.779944 -1.647158 7.083645
v -0.779944 -1.628873 7.067618
v -0.779944 -1.609177 7.056175
v -0.779944 -1.588053 7.049329
v -0.779944 -1.565486 7.047094
v -0.779944 -1.543076 7.049436
v -0.779944 -1.522336 7.056310
v -0.779944 -1.503284 7.067715
v -0.729944 -1.503284 7.067715
v -0.729944 -1.522336 7.056310
v -0.729944 -1.543076 7.049436
v -0.729944 -1.565486 7.047094
v -0.729944 -1.588053 7.049329
v -0.729944 -1.609177 7.056175
v -0.729944 -1.628873 7.067618
v -0.729944 -1.647158 7.083645
v -0.729944 -1.663046 7.103612
v -0.729944 -1.674764 7.126377
v -0.729944 -1.682279 7.151889
v -0.729944 -1.685589 7.180115
v -0.729944 -1.684514 7.209579
v -0.729944 -1.678538 7.236242
v -0.729944 -1.667612 7.259845
v -0.729944 -1.261108 7.579573
v -0.729944 -1.261108 7.497105
v -0.729944 -1.178640 7.579573
v -0.729944 -1.178640 7.497105
vt -1.800000 -0.400000 0.000000
vt -1.681926 -0.089886 0.000000
vt -1.800000 0.400000 0.000000
vt -1.678136 -0.063469 0.000000
vt -1.670773 -0.038190 0.000000
vt -1.000000 -0.400000 0.000000
vt -1.486213 -0.290796 0.000000
vt -1.543783 -0.283793 0.000000
vt -1.569420 -0.275499 0.000000
vt -1.000000 0.400000 0.000000
vt -1.081325 -0.089042 0.000000
vt -1.080021 -0.118608 0.000000
vt -1.082411 -0.147287 0.000000
vt -1.172468 0.290811 0.000000
vt -1.090000 0.290811 0.000000
vt -1.090000 0.208343 0.000000
vt -1.172468 0.208343 0.000000
vt -1.167221 0.048336 0.000000
vt -1.143993 0.031039 0.000000
vt -1.124208 0.011231 0.000000
vt -1.392288 0.097248 0.000000
vt -1.298227 0.091517 0.000000
vt -1.223986 0.075198 0.000000
vt -1.367710 0.024813 0.000000
vt -1.348252 0.010444 0.000000
vt -1.291195 0.019896 0.000000
vt -1.331106 -0.006757 0.000000
vt -1.316278 -0.026789 0.000000
vt -1.304087 -0.049290 0.000000
vt -1.225534 0.002093 0.000000
vt -1.295610 -0.072977 0.000000
vt -1.200659 -0.009608 0.000000
vt -1.180893 -0.023400 0.000000
vt -1.291033 -0.097795 0.000000
vt -1.164524 -0.040097 0.000000
vt -1.151585 -0.059713 0.000000
vt -1.143139 -0.081969 0.000000
vt -1.139615 -0.106890 0.000000
vt -1.290213 -0.123583 0.000000
vt -1.141151 -0.132700 0.000000
vt -1.147953 -0.155337 0.000000
vt -1.153313 -0.165416 0.000000
vt -1.160028 -0.174636 0.000000
vt -1.168174 -0.182969 0.000000
vt -1.177857 -0.190367 0.000000
vt -1.202116 -0.202246 0.000000
vt -1.292882 -0.148586 0.000000
vt -1.232840 -0.210275 0.000000
vt -1.298935 -0.172171 0.000000
vt -1.308375 -0.194322 0.000000
vt -1.321214 -0.215064 0.000000
vt -1.226440 -0.279944 0.000000
vt -1.337426 -0.234353 0.000000
vt -1.356754 -0.251795 0.000000
vt -1.378316 -0.266082 0.000000
vt -1.402049 -0.277126 0.000000
vt -1.427949 -0.284927 0.000000
vt -1.592964 -0.264042 0.000000
vt -1.614427 -0.249406 0.000000
vt -1.633747 -0.231690 0.000000
vt -1.650029 -0.212024 0.000000
vt -1.663020 -0.190725 0.000000
vt -1.672704 -0.167817 0.000000
vt -1.679085 -0.143311 0.000000
vt -1.659833 -0.014037 0.000000
vt -1.645352 0.008879 0.000000
vt -1.627727 0.029432 0.000000
vt -1.607010 0.047335 0.000000
vt -1.583253 0.062612 0.000000
vt -1.556361 0.075262 0.000000
vt -1.486266 0.092026 0.000000
vt -1.107887 -0.010959 0.000000
vt -1.095216 -0.035221 0.000000
vt -1.086371 -0.061261 0.000000
vt -1.088470 -0.173568 0.000000
vt -1.098195 -0.197416 0.000000
vt -1.111588 -0.218835 0.000000
vt -1.128534 -0.237661 0.000000
vt -1.148533 -0.253253 0.000000
vt -1.171497 -0.265484 0.000000
vt -1.197465 -0.274386 0.000000
vt 0.000000 3.200000 0.000000
vt -4.000000 3.200000 0.000000
vt -1.850000 0.450000 0.000000
vt -4.000000 -3.200000 0.000000
vt -1.850000 -0.450000 0.000000
vt 0.000000 -3.200000 0.000000
vt -0.950000 -0.450000 0.000000
vt -0.475000 -0.629904 0.000000
vt -0.506066 -0.606066 0.000000
vt -0.250000 0.500000 0.000000
vt -0.250000 -0.500000 0.000000
vt -0.255111 -0.538823 0.000000
vt -0.950000 0.450000 0.000000
vt -0.475000 0.629904 0.000000
vt -0.438823 0.644889 0.000000
vt -0.529904 0.425000 0.000000
vt -0.544889 0.461177 0.000000
vt -0.550000 0.500000 0.000000
vt -0.544889 0.538823 0.000000
vt -0.529904 0.575000 0.000000
vt -0.506066 0.606066 0.000000
vt -0.400000 0.650000 0.000000
vt -0.361177 0.644889 0.000000
vt -0.325000 0.629904 0.000000
vt -0.293934 0.606066 0.000000
vt -0.270096 0.575000 0.000000
vt -0.255111 0.538823 0.000000
vt -0.255111 0.461177 0.000000
vt -0.255111 -0.461177 0.000000
vt -0.270096 0.425000 0.000000
vt -0.270096 -0.425000 0.000000
vt -0.293934 0.393934 0.000000
vt -0.293934 -0.393934 0.000000
vt -0.325000 0.370096 0.000000
vt -0.325000 -0.370096 0.000000
vt -0.361177 0.355111 0.000000
vt -0.361177 -0.355111 0.000000
vt -0.400000 0.350000 0.000000
vt -0.400000 -0.350000 0.000000
vt -0.438823 -0.355111 0.000000
vt -0.438823 0.355111 0.000000
vt -0.475000 0.370096 0.000000
vt -0.475000 -0.370096 0.000000
vt -0.506066 0.393934 0.000000
vt -0.506066 -0.393934 0.000000
vt -0.529904 -0.425000 0.000000
vt -0.544889 -0.461177 0.000000
vt -0.550000 -0.500000 0.000000
vt -0.544889 -0.538823 0.000000
vt -0.529904 -0.575000 0.000000
vt -0.270096 -0.575000 0.000000
vt -0.293934 -0.606066 0.000000
vt -0.325000 -0.629904 0.000000
vt -0.361177 -0.644889 0.000000
vt -0.400000 -0.650000 0.000000
vt -0.438823 -0.644889 0.000000
vt 0.300000 6.400000 0.000000
vt -0.000000 6.400000 0.000000
vt 0.300000 -0.000000 0.000000
vt -0.000000 0.000000 0.000000
vt -0.000000 0.300000 0.000000
vt -4.000000 0.300000 0.000000
vt -0.000000 0.000000 0.000000
vt -4.000000 0.000000 0.000000
vt -0.300000 -6.400000 0.000000
vt -0.000000 -6.400000 0.000000
vt -0.300000 -0.000000 0.000000
vt -0.000000 0.000000 0.000000
vt 0.000000 0.300000 0.000000
vt -4.000000 0.300000 0.000000
vt -0.000000 0.000000 0.000000
vt -4.000000 -0.000000 0.000000
vt 4.000000 3.200000 0.000000
vt 0.550000 0.500000 0.000000
vt 4.000000 -3.200000 0.000000
vt 0.550000 -0.500000 0.000000
vt 0.544889 -0.538823 0.000000
vt -0.000000 3.200000 0.000000
vt 0.529904 0.575000 0.000000
vt 0.544889 0.538823 0.000000
vt -0.000000 -3.200000 0.000000
vt 0.250000 0.500000 0.000000
vt 0.255111 0.538823 0.000000
vt 0.270096 0.575000 0.000000
vt 0.529904 -0.575000 0.000000
vt 0.506066 -0.606066 0.000000
vt 0.475000 -0.629904 0.000000
vt 0.544889 -0.461177 0.000000
vt 0.544889 0.461177 0.000000
vt 0.529904 -0.425000 0.000000
vt 0.529904 0.425000 0.000000
vt 0.506066 -0.393934 0.000000
vt 0.506066 0.393934 0.000000
vt 0.475000 0.370096 0.000000
vt 0.475000 -0.370096 0.000000
vt 0.438823 0.355111 0.000000
vt 0.438823 -0.355111 0.000000
vt 0.400000 0.350000 0.000000
vt 0.400000 -0.350000 0.000000
vt 0.361177 -0.355111 0.000000
vt 0.361177 0.355111 0.000000
vt 0.325000 -0.370096 0.000000
vt 0.325000 0.370096 0.000000
vt 0.293934 -0.393934 0.000000
vt 0.293934 0.393934 0.000000
vt 0.270096 -0.425000 0.000000
vt 0.270096 0.425000 0.000000
vt 0.255111 -0.461177 0.000000
vt 0.255111 0.461177 0.000000
vt 0.250000 -0.500000 0.000000
vt 0.293934 0.606066 0.000000
vt 0.325000 0.629904 0.000000
vt 0.361177 0.644889 0.000000
vt 0.400000 0.650000 0.000000
vt 0.438823 0.644889 0.000000
vt 0.475000 0.629904 0.000000
vt 0.506066 0.606066 0.000000
vt 0.438823 -0.644889 0.000000
vt 0.400000 -0.650000 0.000000
vt 0.361177 -0.644889 0.000000
vt 0.325000 -0.629904 0.000000
vt 0.293934 -0.606066 0.000000
vt 0.270096 -0.575000 0.000000
vt 0.255111 -0.538823 0.000000
vt 0.300000 0.039270 0.000000
vt -0.000000 0.039270 0.000000
vt 0.300000 -0.000000 0.000000
vt 0.000000 -0.000000 0.000000
vt 0.300000 -0.039270 0.000000
vt -0.000000 -0.039270 0.000000
vt 0.300000 -0.078540 0.000000
vt -0.000000 -0.078540 0.000000
vt 0.300000 -0.117810 0.000000
vt 0.000000 -0.117810 0.000000
vt 0.300000 -0.157080 0.000000
vt 0.000000 -0.157080 0.000000
vt 0.300000 -0.196350 0.000000
vt 0.000000 -0.196350 0.000000
vt 0.300000 -0.235619 0.000000
vt 0.000000 -0.235619 0.000000
vt 0.300000 -0.274889 0.000000
vt 0.000000 -0.274889 0.000000
vt 0.300000 -0.314159 0.000000
vt 0.000000 -0.314159 0.000000
vt 0.300000 -0.353429 0.000000
vt 0.000000 -0.353429 0.000000
vt 0.300000 -0.392699 0.000000
vt 0.000000 -0.392699 0.000000
vt 0.300000 -0.431969 0.000000
vt 0.000000 -0.431969 0.000000
vt 0.300000 -0.471239 0.000000
vt 0.000000 -0.471239 0.000000
vt 0.300000 0.471239 0.000000
vt 0.000000 0.471239 0.000000
vt 0.300000 0.431969 0.000000
vt 0.000000 0.431969 0.000000
vt 0.300000 0.392699 0.000000
vt 0.000000 0.392699 0.000000
vt 0.300000 0.353429 0.000000
vt -0.000000 0.353429 0.000000
vt 0.300000 0.314159 0.000000
vt -0.000000 0.314159 0.000000
vt 0.300000 0.274889 0.000000
vt -0.000000 0.274889 0.000000
vt 0.300000 0.235619 0.000000
vt -0.000000 0.235619 0.000000
vt 0.300000 0.196350 0.000000
vt -0.000000 0.196350 0.000000
vt 0.300000 0.157080 0.000000
vt -0.000000 0.157080 0.000000
vt 0.300000 0.117810 0.000000
vt -0.000000 0.117810 0.000000
vt 0.300000 0.078540 0.000000
vt -0.000000 0.078540 0.000000
vt 0.300000 0.039270 0.000000
vt -0.000000 0.039270 0.000000
vt 0.300000 0.000000 0.000000
vt -0.000000 -0.000000 0.000000
vt 0.300000 -0.039270 0.000000
vt -0.000000 -0.039270 0.000000
vt 0.300000 -0.078540 0.000000
vt -0.000000 -0.078540 0.000000
vt 0.300000 -0.117810 0.000000
vt 0.000000 -0.117810 0.000000
vt 0.300000 -0.157080 0.000000
vt 0.000000 -0.157080 0.000000
vt 0.300000 -0.196350 0.000000
vt 0.000000 -0.196350 0.000000
vt 0.300000 -0.235619 0.000000
vt 0.000000 -0.235619 0.000000
vt 0.300000 -0.274889 0.000000
vt 0.000000 -0.274889 0.000000
vt 0.300000 -0.314159 0.000000
vt 0.000000 -0.314159 0.000000
vt 0.300000 -0.353429 0.000000
vt 0.000000 -0.353429 0.000000
vt 0.300000 -0.392699 0.000000
vt 0.000000 -0.392699 0.000000
vt 0.300000 -0.431969 0.000000
vt 0.000000 -0.431969 0.000000
vt 0.300000 -0.471239 0.000000
vt 0.000000 -0.471239 0.000000
vt 0.300000 0.471239 0.000000
vt 0.000000 0.471239 0.000000
vt 0.300000 0.431969 0.000000
vt 0.000000 0.431969 0.000000
vt 0.300000 0.392699 0.000000
vt 0.000000 0.392699 0.000000
vt 0.300000 0.353429 0.000000
vt -0.000000 0.353429 0.000000
vt 0.300000 0.314159 0.000000
vt -0.000000 0.314159 0.000000
vt 0.300000 0.274889 0.000000
vt -0.000000 0.274889 0.000000
vt 0.300000 0.235619 0.000000
vt -0.000000 0.235619 0.000000
vt 0.300000 0.196350 0.000000
vt -0.000000 0.196350 0.000000
vt 0.300000 0.157080 0.000000
vt -0.000000 0.157080 0.000000
vt 0.300000 0.117810 0.000000
vt -0.000000 0.117810 0.000000
vt 0.300000 0.078540 0.000000
vt -0.000000 0.078540 0.000000
vt 0.000000 0.050000 0.000000
vt -0.800000 0.050000 0.000000
vt -0.000000 0.000000 0.000000
vt -0.800000 -0.000000 0.000000
vt -0.050000 -0.800000 0.000000
vt -0.000000 -0.800000 0.000000
vt -0.050000 -0.000000 0.000000
vt -0.000000 0.000000 0.000000
vt -0.000000 0.050000 0.000000
vt -0.800000 0.050000 0.000000
vt -0.000000 0.000000 0.000000
vt -0.800000 -0.000000 0.000000
vt 0.900000 0.050000 0.000000
vt 0.000000 0.050000 0.000000
vt 0.900000 -0.000000 0.000000
vt 0.000000 0.000000 0.000000
vt 0.050000 -0.000000 0.000000
vt 0.000000 0.000000 0.000000
vt 0.050000 -0.900000 0.000000
vt 0.000000 -0.900000 0.000000
vt 0.900000 0.050000 0.000000
vt -0.000000 0.050000 0.000000
vt 0.900000 -0.000000 0.000000
vt 0.000000 0.000000 0.000000
vt -0.050000 -0.000000 0.000000
vt 0.000000 0.000000 0.000000
vt -0.050000 0.900000 0.000000
vt -0.000000 0.900000 0.000000
vt 0.050000 0.800000 0.000000
vt 0.000000 0.800000 0.000000
vt 0.050000 -0.000000 0.000000
vt -0.000000 0.000000 0.000000
vt -0.950000 -0.450000 0.000000
vt -0.950000 0.450000 0.000000
vt -1.000000 0.400000 0.000000
vt -1.850000 0.450000 0.000000
vt -1.800000 0.400000 0.000000
vt -1.850000 -0.450000 0.000000
vt -1.800000 -0.400000 0.000000
vt -1.000000 -0.400000 0.000000
vt -0.000000 0.050000 0.000000
vt -0.023599 0.050000 0.000000
vt -0.000000 0.000000 0.000000
vt -0.023599 0.000000 0.000000
vt -0.047198 0.050000 0.000000
vt -0.047198 0.000000 0.000000
vt -0.070797 0.050000 0.000000
vt -0.070797 0.000000 0.000000
vt -0.094396 0.050000 0.000000
vt -0.094396 0.000000 0.000000
vt -0.117995 0.050000 0.000000
vt -0.117995 0.000000 0.000000
vt -0.141594 0.050000 0.000000
vt -0.141594 0.000000 0.000000
vt -0.165193 0.050000 0.000000
vt -0.165193 0.000000 0.000000
vt -0.188792 0.050000 0.000000
vt -0.188792 0.000000 0.000000
vt -0.212391 0.050000 0.000000
vt -0.212391 0.000000 0.000000
vt -0.235990 0.050000 0.000000
vt -0.235990 0.000000 0.000000
vt -0.259589 0.050000 0.000000
vt -0.259589 0.000000 0.000000
vt -0.283188 0.050000 0.000000
vt -0.283188 0.000000 0.000000
vt -0.306787 0.050000 0.000000
vt -0.306787 0.000000 0.000000
vt -0.330386 0.050000 0.000000
vt -0.330386 0.000000 0.000000
vt -0.353985 0.050000 0.000000
vt -0.353985 0.000000 0.000000
vt -0.377583 0.050000 0.000000
vt -0.377583 0.000000 0.000000
vt -0.050000 -0.069962 0.000000
vt 0.000000 -0.069962 0.000000
vt -0.050000 -0.000000 0.000000
vt -0.000000 0.000000 0.000000
vt -0.068536 0.050000 0.000000
vt -0.094878 0.050000 0.000000
vt -0.068536 0.000000 0.000000
vt -0.094878 0.000000 0.000000
vt -0.121219 0.050000 0.000000
vt -0.121219 0.000000 0.000000
vt -0.147560 0.050000 0.000000
vt -0.147560 0.000000 0.000000
vt -0.173902 0.050000 0.000000
vt -0.173902 0.000000 0.000000
vt -0.200243 0.050000 0.000000
vt -0.200243 0.000000 0.000000
vt -0.226584 0.050000 0.000000
vt -0.226584 0.000000 0.000000
vt -0.252926 0.050000 0.000000
vt -0.252926 0.000000 0.000000
vt -0.279267 0.050000 0.000000
vt -0.279267 0.000000 0.000000
vt -0.305608 0.050000 0.000000
vt -0.305608 0.000000 0.000000
vt -0.331950 0.050000 0.000000
vt -0.331950 0.000000 0.000000
vt -0.358291 0.050000 0.000000
vt -0.358291 0.000000 0.000000
vt -0.384633 0.050000 0.000000
vt -0.384633 0.000000 0.000000
vt -0.410974 0.050000 0.000000
vt -0.410974 0.000000 0.000000
vt -0.437315 0.050000 0.000000
vt -0.437315 0.000000 0.000000
vt -0.463657 0.050000 0.000000
vt -0.463657 0.000000 0.000000
vt -0.489998 0.050000 0.000000
vt -0.489998 0.000000 0.000000
vt -0.542681 0.050000 0.000000
vt -0.542681 0.000000 0.000000
vt -0.595363 0.050000 0.000000
vt -0.595363 0.000000 0.000000
vt -0.648046 0.050000 0.000000
vt -0.648046 0.000000 0.000000
vt -0.700729 0.050000 0.000000
vt -0.700729 0.000000 0.000000
vt -0.753411 0.050000 0.000000
vt -0.753411 0.000000 0.000000
vt -0.779753 0.050000 0.000000
vt -0.779753 0.000000 0.000000
vt -0.806094 0.050000 0.000000
vt -0.806094 0.000000 0.000000
vt -0.832435 0.050000 0.000000
vt -0.832435 0.000000 0.000000
vt -0.858777 0.050000 0.000000
vt -0.858777 0.000000 0.000000
vt -0.885118 0.050000 0.000000
vt -0.885118 0.000000 0.000000
vt -0.911460 0.050000 0.000000
vt -0.911460 0.000000 0.000000
vt -0.937801 0.050000 0.000000
vt -0.937801 0.000000 0.000000
vt -0.964142 0.050000 0.000000
vt -0.964142 0.000000 0.000000
vt -1.016825 0.050000 0.000000
vt -1.016825 0.000000 0.000000
vt -1.043166 0.050000 0.000000
vt -1.043166 0.000000 0.000000
vt -1.069508 0.050000 0.000000
vt -1.069508 0.000000 0.000000
vt -1.095849 0.050000 0.000000
vt -1.095849 0.000000 0.000000
vt -1.122190 0.050000 0.000000
vt -1.122190 0.000000 0.000000
vt -1.148532 0.050000 0.000000
vt -1.148532 0.000000 0.000000
vt -1.174873 0.050000 0.000000
vt -1.174873 0.000000 0.000000
vt -1.201214 0.050000 0.000000
vt -1.201214 0.000000 0.000000
vt -1.227556 0.050000 0.000000
vt -1.227556 0.000000 0.000000
vt -1.280238 0.050000 0.000000
vt -1.280238 0.000000 0.000000
vt -1.332921 0.050000 0.000000
vt -1.332921 0.000000 0.000000
vt -1.359263 0.050000 0.000000
vt -1.359263 0.000000 0.000000
vt -1.385604 0.050000 0.000000
vt -1.385604 0.000000 0.000000
vt -1.411945 0.050000 0.000000
vt -1.411945 0.000000 0.000000
vt -1.438287 0.050000 0.000000
vt -1.438287 0.000000 0.000000
vt -1.464628 0.050000 0.000000
vt -1.464628 0.000000 0.000000
vt -1.490969 0.050000 0.000000
vt -1.490969 0.000000 0.000000
vt -1.517311 0.050000 0.000000
vt -1.517311 0.000000 0.000000
vt -1.543652 0.050000 0.000000
vt -1.543652 0.000000 0.000000
vt -1.569993 0.050000 0.000000
vt -1.569993 0.000000 0.000000
vt -1.596335 0.050000 0.000000
vt -1.596335 0.000000 0.000000
vt -1.622676 0.050000 0.000000
vt -1.622676 0.000000 0.000000
vt -1.649017 0.050000 0.000000
vt -1.649017 0.000000 0.000000
vt -1.675359 0.050000 0.000000
vt -1.675359 0.000000 0.000000
vt -1.701700 0.050000 0.000000
vt -1.701700 0.000000 0.000000
vt -1.728041 0.050000 0.000000
vt -1.728041 0.000000 0.000000
vt -1.754383 0.050000 0.000000
vt -1.754383 0.000000 0.000000
vt -0.883499 0.050000 0.000000
vt -0.836299 0.000000 0.000000
vt -0.883499 0.000000 0.000000
vt -0.930698 0.050000 0.000000
vt -0.930698 0.000000 0.000000
vt -0.954297 0.050000 0.000000
vt -0.954297 0.000000 0.000000
vt -0.977897 0.050000 0.000000
vt -0.977897 0.000000 0.000000
vt -1.001497 0.050000 0.000000
vt -1.001497 0.000000 0.000000
vt -1.025096 0.050000 0.000000
vt -1.025096 0.000000 0.000000
vt -1.048696 0.050000 0.000000
vt -1.048696 0.000000 0.000000
vt -1.072296 0.050000 0.000000
vt -1.072296 0.000000 0.000000
vt -1.095895 0.050000 0.000000
vt -1.095895 0.000000 0.000000
vt -1.119495 0.050000 0.000000
vt -1.119495 0.000000 0.000000
vt -1.131295 0.050000 0.000000
vt -1.131295 0.000000 0.000000
vt -1.143095 0.050000 0.000000
vt -1.143095 0.000000 0.000000
vt -1.154894 0.050000 0.000000
vt -1.154894 0.000000 0.000000
vt -1.166694 0.050000 0.000000
vt -1.166694 0.000000 0.000000
vt -1.190294 0.050000 0.000000
vt -1.190294 0.000000 0.000000
vt -1.213894 0.050000 0.000000
vt -1.213894 0.000000 0.000000
vt -0.374742 0.050000 0.000000
vt -0.399890 0.050000 0.000000
vt -0.374742 0.000000 0.000000
vt -0.399890 0.000000 0.000000
vt -0.425038 0.050000 0.000000
vt -0.425038 0.000000 0.000000
vt -0.450186 0.050000 0.000000
vt -0.450186 0.000000 0.000000
vt -0.475335 0.050000 0.000000
vt -0.475335 0.000000 0.000000
vt -0.500483 0.050000 0.000000
vt -0.500483 0.000000 0.000000
vt -0.525631 0.050000 0.000000
vt -0.525631 0.000000 0.000000
vt -0.550779 0.050000 0.000000
vt -0.550779 0.000000 0.000000
vt -0.575927 0.050000 0.000000
vt -0.575927 0.000000 0.000000
vt -0.601076 0.050000 0.000000
vt -0.601076 0.000000 0.000000
vt -0.626224 0.050000 0.000000
vt -0.626224 0.000000 0.000000
vt -0.651372 0.050000 0.000000
vt -0.651372 0.000000 0.000000
vt -0.676520 0.050000 0.000000
vt -0.676520 0.000000 0.000000
vt -0.701668 0.050000 0.000000
vt -0.701668 0.000000 0.000000
vt -0.726817 0.050000 0.000000
vt -0.726817 0.000000 0.000000
vt -0.751965 0.050000 0.000000
vt -0.751965 0.000000 0.000000
vt -0.777113 0.050000 0.000000
vt -0.777113 0.000000 0.000000
vt 0.444333 -0.241754 0.000000
vt 0.473308 -0.236196 0.000000
vt 0.437933 -0.172085 0.000000
vt 0.499276 -0.227295 0.000000
vt 0.468657 -0.164056 0.000000
vt 0.522240 -0.215064 0.000000
vt 0.542239 -0.199472 0.000000
vt 0.492916 -0.152177 0.000000
vt 0.559185 -0.180645 0.000000
vt 0.502599 -0.144779 0.000000
vt 0.572578 -0.159226 0.000000
vt 0.510745 -0.136447 0.000000
vt 0.582303 -0.135379 0.000000
vt 0.517460 -0.127226 0.000000
vt 0.522820 -0.117148 0.000000
vt 0.588362 -0.109097 0.000000
vt 0.529622 -0.094511 0.000000
vt 0.590752 -0.080418 0.000000
vt 0.531158 -0.068700 0.000000
vt 0.589448 -0.050852 0.000000
vt 0.527634 -0.043779 0.000000
vt 0.584402 -0.023071 0.000000
vt 0.519188 -0.021523 0.000000
vt 0.575557 0.002968 0.000000
vt 0.506249 -0.001907 0.000000
vt 0.562887 0.027230 0.000000
vt 0.489880 0.014790 0.000000
vt 0.546565 0.049421 0.000000
vt 0.470114 0.028582 0.000000
vt 0.526780 0.069229 0.000000
vt 0.445239 0.040283 0.000000
vt 0.503552 0.086526 0.000000
vt 0.446787 0.113388 0.000000
vt 0.379578 0.058086 0.000000
vt 0.372546 0.129706 0.000000
vt 0.303063 0.063002 0.000000
vt 0.278485 0.135438 0.000000
vt 0.239232 0.046933 0.000000
vt 0.213193 0.052928 0.000000
vt 0.184507 0.130215 0.000000
vt 0.183763 0.054913 0.000000
vt 0.114412 0.113451 0.000000
vt 0.154240 0.052837 0.000000
vt 0.087520 0.100802 0.000000
vt 0.127900 0.046629 0.000000
vt 0.063763 0.085525 0.000000
vt 0.104763 0.036270 0.000000
vt 0.043046 0.067622 0.000000
vt 0.084849 0.021741 0.000000
vt 0.025421 0.047069 0.000000
vt 0.010940 0.024152 0.000000
vt 0.068916 0.004356 0.000000
vt -0.000000 -0.000000 0.000000
vt 0.057510 -0.014696 0.000000
vt -0.007363 -0.025279 0.000000
vt 0.050636 -0.035436 0.000000
vt -0.011153 -0.051697 0.000000
vt 0.048294 -0.057846 0.000000
vt 0.050529 -0.080412 0.000000
vt -0.008312 -0.105122 0.000000
vt 0.057375 -0.101536 0.000000
vt -0.001931 -0.129628 0.000000
vt 0.068818 -0.121233 0.000000
vt 0.007753 -0.152535 0.000000
vt 0.084845 -0.139518 0.000000
vt 0.020744 -0.173834 0.000000
vt 0.104812 -0.155406 0.000000
vt 0.037026 -0.193501 0.000000
vt 0.056347 -0.211217 0.000000
vt 0.127577 -0.167124 0.000000
vt 0.077809 -0.225852 0.000000
vt 0.153089 -0.174638 0.000000
vt 0.101353 -0.237309 0.000000
vt 0.126990 -0.245603 0.000000
vt 0.181315 -0.177949 0.000000
vt 0.184560 -0.252607 0.000000
vt 0.210779 -0.176874 0.000000
vt 0.242824 -0.246737 0.000000
vt 0.268724 -0.238937 0.000000
vt 0.237442 -0.170898 0.000000
vt 0.292457 -0.227893 0.000000
vt 0.314019 -0.213605 0.000000
vt 0.261045 -0.159971 0.000000
vt 0.333347 -0.196163 0.000000
vt 0.349559 -0.176874 0.000000
vt 0.281570 -0.144073 0.000000
vt 0.362398 -0.156133 0.000000
vt 0.297023 -0.125958 0.000000
vt 0.371838 -0.133981 0.000000
vt 0.308030 -0.105843 0.000000
vt 0.377891 -0.110396 0.000000
vt 0.314590 -0.083714 0.000000
vt 0.380560 -0.085393 0.000000
vt 0.316706 -0.059546 0.000000
vt 0.379740 -0.059605 0.000000
vt 0.375164 -0.034787 0.000000
vt 0.314416 -0.035573 0.000000
vt 0.366686 -0.011101 0.000000
vt 0.307749 -0.013842 0.000000
vt 0.354495 0.011401 0.000000
vt 0.296690 0.005641 0.000000
vt 0.339667 0.031433 0.000000
vt 0.281222 0.022871 0.000000
vt 0.322521 0.048634 0.000000
vt 0.261901 0.036918 0.000000
vt -0.000000 0.050000 0.000000
vt -0.082468 0.050000 0.000000
vt -0.000000 0.000000 0.000000
vt -0.082468 -0.000000 0.000000
vt 0.050000 0.082468 0.000000
vt 0.000000 0.082468 0.000000
vt 0.050000 -0.000000 0.000000
vt -0.000000 0.000000 0.000000
vt 0.000000 0.050000 0.000000
vt -0.082468 0.050000 0.000000
vt -0.000000 0.000000 0.000000
vt -0.082468 0.000000 0.000000
vt -0.050000 -0.082468 0.000000
vt 0.000000 -0.082468 0.000000
vt -0.050000 -0.000000 0.000000
vt -0.000000 0.000000 0.000000
vt -0.041234 -0.000000 0.000000
vt 0.041234 0.000000 0.000000
vt -0.041234 0.082468 0.000000
vt 0.041234 0.082468 0.000000
vt -1.566010 -0.001919 0.000000
vt -1.585924 -0.016448 0.000000
vt -1.354068 -0.097736 0.000000
vt -1.601858 -0.033834 0.000000
vt -1.613263 -0.052886 0.000000
vt -1.620137 -0.073626 0.000000
vt -1.622479 -0.096036 0.000000
vt -1.620244 -0.118602 0.000000
vt -1.613398 -0.139726 0.000000
vt -1.601955 -0.159423 0.000000
vt -1.585928 -0.177707 0.000000
vt -1.565961 -0.193595 0.000000
vt -1.543196 -0.205314 0.000000
vt -1.517684 -0.212828 0.000000
vt -1.356183 -0.121903 0.000000
vt -1.489458 -0.216139 0.000000
vt -1.362743 -0.144032 0.000000
vt -1.373750 -0.164148 0.000000
vt -1.389203 -0.182262 0.000000
vt -1.459994 -0.215063 0.000000
vt -1.433331 -0.209088 0.000000
vt -1.409728 -0.198161 0.000000
vt -1.356357 -0.073763 0.000000
vt -1.487010 0.016723 0.000000
vt -1.516533 0.014647 0.000000
vt -1.542873 0.008439 0.000000
vt -1.457580 0.014738 0.000000
vt -1.363024 -0.052032 0.000000
vt -1.374083 -0.032548 0.000000
vt -1.389551 -0.015318 0.000000
vt -1.431541 0.008744 0.000000
vt -1.408872 -0.001271 0.000000
vn -1.000000 0.000000 -0.000000
vn -1.000000 0.000000 -0.000000
vn -1.000000 0.000000 -0.000000
vn -1.000000 0.000000 -0.000000
vn -1.000000 0.000000 -0.000000
vn -1.000000 0.000000 -0.000000
vn -1.000000 0.000000 -0.000000
vn -1.000000 0.000000 -0.000000
vn -1.000000 0.000000 -0.000000
vn -1.000000 0.000000 -0.000000
vn -1.000000 0.000000 -0.000000
vn -1.000000 0.000000 -0.000000
vn -1.000000 0.000000 -0.000000
vn -1.000000 0.000000 -0.000000
vn -1.000000 0.000000 -0.000000
vn -1.000000 0.000000 -0.000000
vn -1.000000 0.000000 -0.000000
vn -1.000000 0.000000 -0.000000
vn -1.000000 0.000000 -0.000000
vn -1.000000 0.000000 -0.000000
vn -1.000000 0.000000 -0.000000
vn -1.000000 0.000000 -0.000000
vn -1.000000 0.000000 -0.000000
vn -1.000000 0.000000 -0.000000
vn -1.000000 0.000000 -0.000000
vn -1.000000 0.000000 -0.000000
vn -1.000000 0.000000 -0.000000
vn -1.000000 0.000000 -0.000000
vn -1.000000 0.000000 -0.000000
vn -1.000000 0.000000 -0.000000
vn -1.000000 0.000000 -0.000000
vn -1.000000 0.000000 -0.000000
vn -1.000000 0.000000 -0.000000
vn -1.000000 0.000000 -0.000000
vn -1.000000 0.000000 -0.000000
vn -1.000000 0.000000 -0.000000
vn -1.000000 0.000000 -0.000000
vn -1.000000 0.000000 -0.000000
vn -1.000000 0.000000 -0.000000
vn -1.000000 0.000000 -0.000000
vn -1.000000 0.000000 -0.000000
vn -1.000000 0.000000 -0.000000
vn -1.000000 0.000000 -0.000000
vn -1.000000 0.000000 -0.000000
vn -1.000000 0.000000 -0.000000
vn -1.000000 0.000000 -0.000000
vn -1.000000 0.000000 -0.000000
vn -1.000000 0.000000 -0.000000
vn -1.000000 0.000000 -0.000000
vn -1.000000 0.000000 -0.000000
vn -1.000000 0.000000 -0.000000
vn -1.000000 0.000000 -0.000000
vn -1.000000 0.000000 -0.000000
vn -1.000000 0.000000 -0.000000
vn -1.000000 0.000000 -0.000000
vn -1.000000 0.000000 -0.000000
vn -1.000000 0.000000 -0.000000
vn -1.000000 0.000000 -0.000000
vn -1.000000 0.000000 -0.000000
vn -1.000000 0.000000 -0.000000
vn -1.000000 0.000000 -0.000000
vn -1.000000 0.000000 -0.000000
vn -1.000000 0.000000 -0.000000
vn -1.000000 0.000000 -0.000000
vn -1.000000 0.000000 -0.000000
vn -1.000000 0.000000 -0.000000
vn -1.000000 0.000000 -0.000000
vn -1.000000 0.000000 -0.000000
vn -1.000000 0.000000 -0.000000
vn -1.000000 0.000000 -0.000000
vn -1.000000 0.000000 -0.000000
vn -1.000000 0.000000 -0.000000
vn -1.000000 0.000000 -0.000000
vn -1.000000 0.000000 -0.000000
vn -1.000000 0.000000 -0.000000
vn -1.000000 0.000000 -0.000000
vn -1.000000 0.000000 -0.000000
vn -1.000000 0.000000 -0.000000
vn -1.000000 0.000000 -0.000000
vn -1.000000 0.000000 -0.000000
vn -1.000000 0.000000 -0.000000
vn -1.000000 0.000000 -0.000000
vn -1.000000 0.000000 -0.000000
vn -1.000000 0.000000 -0.000000
vn -1.000000 0.000000 -0.000000
vn -1.000000 0.000000 -0.000000
vn -1.000000 0.000000 -0.000000
vn -1.000000 0.000000 -0.000000
vn -1.000000 0.000000 -0.000000
vn -1.000000 0.000000 -0.000000
vn -1.000000 0.000000 -0.000000
vn -1.000000 0.000000 -0.000000
vn -1.000000 0.000000 -0.000000
vn -1.000000 0.000000 -0.000000
vn -1.000000 0.000000 -0.000000
vn -1.000000 0.000000 -0.000000
vn -1.000000 0.000000 -0.000000
vn -1.000000 0.000000 -0.000000
vn -1.000000 0.000000 -0.000000
vn -1.000000 0.000000 -0.000000
vn -1.000000 0.000000 -0.000000
vn -1.000000 0.000000 -0.000000
vn -1.000000 0.000000 -0.000000
vn -1.000000 0.000000 -0.000000
vn -1.000000 0.000000 -0.000000
vn -1.000000 0.000000 -0.000000
vn -1.000000 0.000000 -0.000000
vn -1.000000 0.000000 -0.000000
vn -1.000000 0.000000 -0.000000
vn -1.000000 0.000000 -0.000000
vn -1.000000 0.000000 -0.000000
vn -1.000000 0.000000 -0.000000
vn -1.000000 0.000000 -0.000000
vn -1.000000 0.000000 -0.000000
vn -1.000000 0.000000 -0.000000
vn -1.000000 0.000000 -0.000000
vn -1.000000 0.000000 -0.000000
vn -1.000000 0.000000 -0.000000
vn -1.000000 0.000000 -0.000000
vn -1.000000 0.000000 -0.000000
vn -1.000000 0.000000 -0.000000
vn -1.000000 0.000000 -0.000000
vn -1.000000 0.000000 -0.000000
vn -1.000000 0.000000 -0.000000
vn -1.000000 0.000000 -0.000000
vn -1.000000 0.000000 -0.000000
vn -1.000000 0.000000 -0.000000
vn -1.000000 0.000000 -0.000000
vn -1.000000 0.000000 -0.000000
vn -1.000000 0.000000 -0.000000
vn -1.000000 0.000000 -0.000000
vn -1.000000 0.000000 -0.000000
vn -1.000000 0.000000 -0.000000
vn -1.000000 0.000000 -0.000000
vn -1.000000 0.000000 -0.000000
vn -1.000000 0.000000 -0.000000
vn -1.000000 0.000000 -0.000000
vn 0.000000 0.000000 -1.000000
vn 0.000000 0.000000 -1.000000
vn 0.000000 0.000000 -1.000000
vn 0.000000 0.000000 -1.000000
vn 0.000000 1.000000 -0.000000
vn 0.000000 1.000000 -0.000000
vn 0.000000 1.000000 -0.000000
vn 0.000000 1.000000 -0.000000
vn -0.000000 -0.000000 1.000000
vn -0.000000 -0.000000 1.000000
vn -0.000000 -0.000000 1.000000
vn -0.000000 -0.000000 1.000000
vn -0.000000 -1.000000 -0.000000
vn -0.000000 -1.000000 -0.000000
vn -0.000000 -1.000000 -0.000000
vn -0.000000 -1.000000 -0.000000
vn 1.000000 -0.000000 0.000000
vn 1.000000 -0.000000 0.000000
vn 1.000000 -0.000000 0.000000
vn 1.000000 -0.000000 0.000000
vn 1.000000 -0.000000 0.000000
vn 1.000000 -0.000000 0.000000
vn 1.000000 -0.000000 0.000000
vn 1.000000 -0.000000 0.000000
vn 1.000000 -0.000000 0.000000
vn 1.000000 -0.000000 0.000000
vn 1.000000 -0.000000 0.000000
vn 1.000000 -0.000000 0.000000
vn 1.000000 -0.000000 0.000000
vn 1.000000 -0.000000 0.000000
vn 1.000000 -0.000000 0.000000
vn 1.000000 -0.000000 0.000000
vn 1.000000 -0.000000 0.000000
vn 1.000000 -0.000000 0.000000
vn 1.000000 -0.000000 0.000000
vn 1.000000 -0.000000 0.000000
vn 1.000000 -0.000000 0.000000
vn 1.000000 -0.000000 0.000000
vn 1.000000 -0.000000 0.000000
vn 1.000000 -0.000000 0.000000
vn 1.000000 -0.000000 0.000000
vn 1.000000 -0.000000 0.000000
vn 1.000000 -0.000000 0.000000
vn 1.000000 -0.000000 0.000000
vn 1.000000 -0.000000 0.000000
vn 1.000000 -0.000000 0.000000
vn 1.000000 -0.000000 0.000000
vn 1.000000 -0.000000 0.000000
vn 1.000000 -0.000000 0.000000
vn 1.000000 -0.000000 0.000000
vn 1.000000 -0.000000 0.000000
vn 1.000000 -0.000000 0.000000
vn 1.000000 -0.000000 0.000000
vn 1.000000 -0.000000 0.000000
vn 1.000000 -0.000000 0.000000
vn 1.000000 -0.000000 0.000000
vn 1.000000 -0.000000 0.000000
vn 1.000000 -0.000000 0.000000
vn 1.000000 -0.000000 0.000000
vn 1.000000 -0.000000 0.000000
vn 1.000000 -0.000000 0.000000
vn 1.000000 -0.000000 0.000000
vn 1.000000 -0.000000 0.000000
vn 1.000000 -0.000000 0.000000
vn 1.000000 -0.000000 0.000000
vn 1.000000 -0.000000 0.000000
vn 1.000000 -0.000000 0.000000
vn 1.000000 -0.000000 0.000000
vn -0.000000 -0.258819 0.965926
vn -0.000000 -0.258819 0.965926
vn -0.000000 0.000000 1.000000
vn -0.000000 -0.000000 1.000000
vn -0.000000 0.258819 0.965926
vn -0.000000 0.258819 0.965926
vn -0.000000 0.500000 0.866025
vn -0.000000 0.500000 0.866025
vn 0.000000 0.707107 0.707107
vn 0.000000 0.707107 0.707107
vn 0.000000 0.866025 0.500000
vn 0.000000 0.866025 0.500000
vn 0.000000 0.965926 0.258819
vn 0.000000 0.965926 0.258819
vn 0.000000 1.000000 0.000000
vn 0.000000 1.000000 0.000000
vn 0.000000 0.965926 -0.258819
vn 0.000000 0.965926 -0.258819
vn 0.000000 0.866025 -0.500000
vn 0.000000 0.866025 -0.500000
vn 0.000000 0.707107 -0.707107
vn 0.000000 0.707107 -0.707107
vn 0.000000 0.500000 -0.866025
vn 0.000000 0.500000 -0.866025
vn 0.000000 0.258819 -0.965926
vn 0.000000 0.258819 -0.965926
vn 0.000000 0.000000 -1.000000
vn 0.000000 0.000000 -1.000000
vn 0.000000 -0.258819 -0.965926
vn 0.000000 -0.258819 -0.965926
vn 0.000000 -0.500000 -0.866025
vn 0.000000 -0.500000 -0.866025
vn -0.000000 -0.707107 -0.707107
vn -0.000000 -0.707107 -0.707107
vn -0.000000 -0.866025 -0.500000
vn -0.000000 -0.866025 -0.500000
vn -0.000000 -0.965926 -0.258819
vn -0.000000 -0.965926 -0.258819
vn -0.000000 -1.000000 0.000000
vn -0.000000 -1.000000 0.000000
vn -0.000000 -0.965926 0.258819
vn -0.000000 -0.965926 0.258819
vn -0.000000 -0.866025 0.500000
vn -0.000000 -0.866025 0.500000
vn -0.000000 -0.707107 0.707107
vn -0.000000 -0.707107 0.707107
vn -0.000000 -0.500000 0.866025
vn -0.000000 -0.500000 0.866025
vn -0.000000 -0.258819 0.965926
vn -0.000000 -0.258819 0.965926
vn -0.000000 -0.000000 1.000000
vn -0.000000 0.000000 1.000000
vn -0.000000 0.258819 0.965926
vn -0.000000 0.258819 0.965926
vn -0.000000 0.500000 0.866025
vn -0.000000 0.500000 0.866025
vn 0.000000 0.707107 0.707107
vn 0.000000 0.707107 0.707107
vn 0.000000 0.866025 0.500000
vn 0.000000 0.866025 0.500000
vn 0.000000 0.965926 0.258819
vn 0.000000 0.965926 0.258819
vn 0.000000 1.000000 0.000000
vn 0.000000 1.000000 0.000000
vn 0.000000 0.965926 -0.258819
vn 0.000000 0.965926 -0.258819
vn 0.000000 0.866025 -0.500000
vn 0.000000 0.866025 -0.500000
vn 0.000000 0.707107 -0.707107
vn 0.000000 0.707107 -0.707107
vn 0.000000 0.500000 -0.866025
vn 0.000000 0.500000 -0.866025
vn 0.000000 0.258819 -0.965926
vn 0.000000 0.258819 -0.965926
vn 0.000000 0.000000 -1.000000
vn 0.000000 0.000000 -1.000000
vn 0.000000 -0.258819 -0.965926
vn 0.000000 -0.258819 -0.965926
vn 0.000000 -0.500000 -0.866025
vn 0.000000 -0.500000 -0.866025
vn -0.000000 -0.707107 -0.707107
vn -0.000000 -0.707107 -0.707107
vn -0.000000 -0.866025 -0.500000
vn -0.000000 -0.866025 -0.500000
vn -0.000000 -0.965926 -0.258819
vn -0.000000 -0.965926 -0.258819
vn -0.000000 -1.000000 0.000000
vn -0.000000 -1.000000 0.000000
vn -0.000000 -0.965926 0.258819
vn -0.000000 -0.965926 0.258819
vn -0.000000 -0.866025 0.500000
vn -0.000000 -0.866025 0.500000
vn -0.000000 -0.707107 0.707107
vn -0.000000 -0.707107 0.707107
vn -0.000000 -0.500000 0.866025
vn -0.000000 -0.500000 0.866025
vn -0.000000 -1.000000 -0.000000
vn -0.000000 -1.000000 -0.000000
vn -0.000000 -1.000000 -0.000000
vn -0.000000 -1.000000 -0.000000
vn -0.000000 -0.000000 1.000000
vn -0.000000 -0.000000 1.000000
vn -0.000000 -0.000000 1.000000
vn -0.000000 -0.000000 1.000000
vn 0.000000 1.000000 0.000000
vn 0.000000 1.000000 0.000000
vn 0.000000 1.000000 0.000000
vn 0.000000 1.000000 0.000000
vn -0.000000 -1.000000 -0.000000
vn -0.000000 -1.000000 -0.000000
vn -0.000000 -1.000000 -0.000000
vn -0.000000 -1.000000 -0.000000
vn 0.000000 0.000000 -1.000000
vn 0.000000 0.000000 -1.000000
vn 0.000000 0.000000 -1.000000
vn 0.000000 0.000000 -1.000000
vn 0.000000 1.000000 0.000000
vn 0.000000 1.000000 0.000000
vn 0.000000 1.000000 0.000000
vn 0.000000 1.000000 0.000000
vn -0.000000 -0.000000 1.000000
vn -0.000000 -0.000000 1.000000
vn -0.000000 -0.000000 1.000000
vn -0.000000 -0.000000 1.000000
vn 0.000000 0.000000 -1.000000
vn 0.000000 0.000000 -1.000000
vn 0.000000 0.000000 -1.000000
vn 0.000000 0.000000 -1.000000
vn -1.000000 0.000000 -0.000000
vn -1.000000 0.000000 -0.000000
vn -1.000000 0.000000 -0.000000
vn -1.000000 0.000000 -0.000000
vn -1.000000 0.000000 -0.000000
vn -1.000000 0.000000 -0.000000
vn -1.000000 0.000000 -0.000000
vn -1.000000 0.000000 -0.000000
vn -0.000000 0.740189 -0.672399
vn -0.000000 0.865805 -0.500382
vn -0.000000 0.740189 -0.672399
vn -0.000000 0.865805 -0.500382
vn -0.000000 0.948355 -0.317211
vn -0.000000 0.948355 -0.317211
vn -0.000000 0.989165 -0.146805
vn -0.000000 0.989165 -0.146805
vn -0.000000 1.000000 -0.000798
vn -0.000000 1.000000 -0.000798
vn 0.000000 0.989774 0.142643
vn 0.000000 0.989774 0.142643
vn 0.000000 0.950209 0.311613
vn 0.000000 0.950209 0.311613
vn 0.000000 0.866855 0.498560
vn 0.000000 0.866855 0.498560
vn 0.000000 0.741877 0.670536
vn 0.000000 0.741877 0.670536
vn 0.000000 0.585198 0.810890
vn 0.000000 0.585198 0.810890
vn 0.000000 0.395240 0.918578
vn 0.000000 0.395240 0.918578
vn 0.000000 0.191598 0.981473
vn 0.000000 0.191598 0.981473
vn 0.000000 0.003982 0.999992
vn 0.000000 0.003982 0.999992
vn -0.000000 -0.184584 0.982817
vn -0.000000 -0.184584 0.982817
vn -0.000000 -0.383830 0.923404
vn -0.000000 -0.383830 0.923404
vn -0.000000 -0.569250 0.822165
vn -0.000000 -0.569250 0.822165
vn -0.000000 -0.718125 0.695915
vn -0.000000 -0.718125 0.695915
vn -0.000000 0.091469 0.995808
vn -0.000000 0.091469 0.995808
vn -0.000000 0.091469 0.995808
vn -0.000000 0.091469 0.995808
vn -0.000000 0.991998 -0.126254
vn -0.000000 0.967038 -0.254632
vn -0.000000 0.991998 -0.126254
vn -0.000000 0.967038 -0.254632
vn -0.000000 0.918044 -0.396478
vn -0.000000 0.918044 -0.396478
vn -0.000000 0.839395 -0.543522
vn -0.000000 0.839395 -0.543522
vn -0.000000 0.731261 -0.682098
vn -0.000000 0.731261 -0.682098
vn -0.000000 0.601982 -0.798509
vn -0.000000 0.601982 -0.798509
vn -0.000000 0.454782 -0.890603
vn -0.000000 0.454782 -0.890603
vn -0.000000 0.300358 -0.953827
vn -0.000000 0.300358 -0.953827
vn -0.000000 0.151845 -0.988404
vn -0.000000 0.151845 -0.988404
vn -0.000000 0.018666 -0.999826
vn -0.000000 0.018666 -0.999826
vn -0.000000 -0.110063 -0.993925
vn -0.000000 -0.110063 -0.993925
vn -0.000000 -0.249497 -0.968376
vn -0.000000 -0.249497 -0.968376
vn -0.000000 -0.393278 -0.919419
vn -0.000000 -0.393278 -0.919419
vn -0.000000 -0.529476 -0.848325
vn -0.000000 -0.529476 -0.848325
vn -0.000000 -0.651621 -0.758545
vn -0.000000 -0.651621 -0.758545
vn -0.000000 -0.756913 -0.653515
vn -0.000000 -0.756913 -0.653515
vn -0.000000 -0.841608 -0.540090
vn -0.000000 -0.841608 -0.540090
vn -0.000000 -0.947974 -0.318347
vn -0.000000 -0.947974 -0.318347
vn -0.000000 -0.991565 -0.129613
vn -0.000000 -0.991565 -0.129613
vn -0.000000 -0.999990 -0.004471
vn -0.000000 -0.999990 -0.004471
vn -0.000000 -0.991194 0.132418
vn -0.000000 -0.991194 0.132418
vn -0.000000 -0.932825 0.360330
vn -0.000000 -0.932825 0.360330
vn -0.000000 -0.873792 0.486300
vn -0.000000 -0.873792 0.486300
vn -0.000000 -0.802246 0.596993
vn -0.000000 -0.802246 0.596993
vn -0.000000 -0.705898 0.708314
vn -0.000000 -0.705898 0.708314
vn -0.000000 -0.592658 0.805454
vn -0.000000 -0.592658 0.805454
vn -0.000000 -0.474593 0.880206
vn -0.000000 -0.474593 0.880206
vn -0.000000 -0.347118 0.937821
vn -0.000000 -0.347118 0.937821
vn -0.000000 -0.211213 0.977440
vn -0.000000 -0.211213 0.977440
vn -0.000000 -0.073411 0.997302
vn -0.000000 -0.073411 0.997302
vn 0.000000 0.183837 0.982957
vn 0.000000 0.183837 0.982957
vn 0.000000 0.320826 0.947138
vn 0.000000 0.320826 0.947138
vn 0.000000 0.456384 0.889783
vn 0.000000 0.456384 0.889783
vn 0.000000 0.581410 0.813610
vn 0.000000 0.581410 0.813610
vn 0.000000 0.689190 0.724581
vn 0.000000 0.689190 0.724581
vn 0.000000 0.782566 0.622567
vn 0.000000 0.782566 0.622567
vn 0.000000 0.865301 0.501253
vn 0.000000 0.865301 0.501253
vn 0.000000 0.927912 0.372800
vn 0.000000 0.927912 0.372800
vn 0.000000 0.969878 0.243593
vn 0.000000 0.969878 0.243593
vn 0.000000 0.999951 0.009877
vn 0.000000 0.999951 0.009877
vn -0.000000 0.974805 -0.223061
vn -0.000000 0.974805 -0.223061
vn -0.000000 0.934812 -0.355143
vn -0.000000 0.934812 -0.355143
vn -0.000000 0.873053 -0.487625
vn -0.000000 0.873053 -0.487625
vn -0.000000 0.788822 -0.614621
vn -0.000000 0.788822 -0.614621
vn -0.000000 0.694309 -0.719677
vn -0.000000 0.694309 -0.719677
vn -0.000000 0.587301 -0.809369
vn -0.000000 0.587301 -0.809369
vn -0.000000 0.460953 -0.887425
vn -0.000000 0.460953 -0.887425
vn -0.000000 0.320814 -0.947142
vn -0.000000 0.320814 -0.947142
vn -0.000000 0.176691 -0.984266
vn -0.000000 0.176691 -0.984266
vn -0.000000 0.037424 -0.999299
vn -0.000000 0.037424 -0.999299
vn -0.000000 -0.103761 -0.994602
vn -0.000000 -0.103761 -0.994602
vn -0.000000 -0.259808 -0.965660
vn -0.000000 -0.259808 -0.965660
vn -0.000000 -0.410576 -0.911826
vn -0.000000 -0.410576 -0.911826
vn -0.000000 -0.537144 -0.843491
vn -0.000000 -0.537144 -0.843491
vn -0.000000 -0.651555 -0.758601
vn -0.000000 -0.651555 -0.758601
vn -0.000000 -0.757251 -0.653124
vn -0.000000 -0.757251 -0.653124
vn -0.000000 -0.846751 -0.531990
vn -0.000000 -0.846751 -0.531990
vn -0.000000 0.999289 -0.037709
vn 0.000000 0.985474 0.169826
vn -0.000000 0.999289 -0.037709
vn 0.000000 0.985474 0.169826
vn 0.000000 0.931638 0.363387
vn 0.000000 0.931638 0.363387
vn 0.000000 0.868033 0.496507
vn 0.000000 0.868033 0.496507
vn 0.000000 0.762818 0.646613
vn 0.000000 0.762818 0.646613
vn 0.000000 0.630854 0.775901
vn 0.000000 0.630854 0.775901
vn 0.000000 0.459174 0.888346
vn 0.000000 0.459174 0.888346
vn 0.000000 0.247135 0.968981
vn 0.000000 0.247135 0.968981
vn 0.000000 0.039597 0.999216
vn 0.000000 0.039597 0.999216
vn -0.000000 -0.169622 0.985509
vn -0.000000 -0.169622 0.985509
vn -0.000000 -0.408835 0.912608
vn -0.000000 -0.408835 0.912608
vn -0.000000 -0.529545 0.848282
vn -0.000000 -0.529545 0.848282
vn -0.000000 -0.645146 0.764059
vn -0.000000 -0.645146 0.764059
vn -0.000000 -0.748807 0.662788
vn -0.000000 -0.748807 0.662788
vn -0.000000 -0.834897 0.550406
vn -0.000000 -0.834897 0.550406
vn -0.000000 -0.940504 0.339782
vn -0.000000 -0.940504 0.339782
vn -0.000000 -0.984044 0.177927
vn -0.000000 -0.984044 0.177927
vn -0.000000 -0.854597 0.519291
vn -0.000000 -0.854597 0.519291
vn -0.000000 -0.947914 0.318526
vn -0.000000 -0.947914 0.318526
vn -0.000000 -0.992337 0.123560
vn -0.000000 -0.992337 0.123560
vn -0.000000 -0.999152 -0.041178
vn -0.000000 -0.999152 -0.041178
vn -0.000000 -0.980232 -0.197853
vn -0.000000 -0.980232 -0.197853
vn -0.000000 -0.929446 -0.368959
vn -0.000000 -0.929446 -0.368959
vn -0.000000 -0.838258 -0.545274
vn -0.000000 -0.838258 -0.545274
vn -0.000000 -0.723024 -0.690823
vn -0.000000 -0.723024 -0.690823
vn -0.000000 -0.585802 -0.810454
vn -0.000000 -0.585802 -0.810454
vn -0.000000 -0.409511 -0.912305
vn -0.000000 -0.409511 -0.912305
vn -0.000000 -0.202404 -0.979302
vn -0.000000 -0.202404 -0.979302
vn -0.000000 0.002729 -0.999996
vn -0.000000 0.002729 -0.999996
vn -0.000000 0.207941 -0.978141
vn -0.000000 0.207941 -0.978141
vn -0.000000 0.417992 -0.908451
vn -0.000000 0.417992 -0.908451
vn -0.000000 0.599935 -0.800049
vn -0.000000 0.599935 -0.800049
vn -1.000000 0.000000 -0.000000
vn -1.000000 0.000000 -0.000000
vn -1.000000 0.000000 -0.000000
vn -1.000000 0.000000 -0.000000
vn -1.000000 0.000000 -0.000000
vn -1.000000 0.000000 -0.000000
vn -1.000000 0.000000 -0.000000
vn -1.000000 0.000000 -0.000000
vn -1.000000 0.000000 -0.000000
vn -1.000000 0.000000 -0.000000
vn -1.000000 0.000000 -0.000000
vn -1.000000 0.000000 -0.000000
vn -1.000000 0.000000 -0.000000
vn -1.000000 0.000000 -0.000000
vn -1.000000 0.000000 -0.000000
vn -1.000000 0.000000 -0.000000
vn -1.000000 0.000000 -0.000000
vn -1.000000 0.000000 -0.000000
vn -1.000000 0.000000 -0.000000
vn -1.000000 0.000000 -0.000000
vn -1.000000 0.000000 -0.000000
vn -1.000000 0.000000 -0.000000
vn -1.000000 0.000000 -0.000000
vn -1.000000 0.000000 -0.000000
vn -1.000000 0.000000 -0.000000
vn -1.000000 0.000000 -0.000000
vn -1.000000 0.000000 -0.000000
vn -1.000000 0.000000 -0.000000
vn -1.000000 0.000000 -0.000000
vn -1.000000 0.000000 -0.000000
vn -1.000000 0.000000 -0.000000
vn -1.000000 0.000000 -0.000000
vn -1.000000 0.000000 -0.000000
vn -1.000000 0.000000 -0.000000
vn -1.000000 0.000000 -0.000000
vn -1.000000 0.000000 -0.000000
vn -1.000000 0.000000 -0.000000
vn -1.000000 0.000000 -0.000000
vn -1.000000 0.000000 -0.000000
vn -1.000000 0.000000 -0.000000
vn -1.000000 0.000000 -0.000000
vn -1.000000 0.000000 -0.000000
vn -1.000000 0.000000 -0.000000
vn -1.000000 0.000000 -0.000000
vn -1.000000 0.000000 -0.000000
vn -1.000000 0.000000 -0.000000
vn -1.000000 0.000000 -0.000000
vn -1.000000 0.000000 -0.000000
vn -1.000000 0.000000 -0.000000
vn -1.000000 0.000000 -0.000000
vn -1.000000 0.000000 -0.000000
vn -1.000000 0.000000 -0.000000
vn -1.000000 0.000000 -0.000000
vn -1.000000 0.000000 -0.000000
vn -1.000000 0.000000 -0.000000
vn -1.000000 0.000000 -0.000000
vn -1.000000 0.000000 -0.000000
vn -1.000000 0.000000 -0.000000
vn -1.000000 0.000000 -0.000000
vn -1.000000 0.000000 -0.000000
vn -1.000000 0.000000 -0.000000
vn -1.000000 0.000000 -0.000000
vn -1.000000 0.000000 -0.000000
vn -1.000000 0.000000 -0.000000
vn -1.000000 0.000000 -0.000000
vn -1.000000 0.000000 -0.000000
vn -1.000000 0.000000 -0.000000
vn -1.000000 0.000000 -0.000000
vn -1.000000 0.000000 -0.000000
vn -1.000000 0.000000 -0.000000
vn -1.000000 0.000000 -0.000000
vn -1.000000 0.000000 -0.000000
vn -1.000000 0.000000 -0.000000
vn -1.000000 0.000000 -0.000000
vn -1.000000 0.000000 -0.000000
vn -1.000000 0.000000 -0.000000
vn -1.000000 0.000000 -0.000000
vn -1.000000 0.000000 -0.000000
vn -1.000000 0.000000 -0.000000
vn -1.000000 0.000000 -0.000000
vn -1.000000 0.000000 -0.000000
vn -1.000000 0.000000 -0.000000
vn -1.000000 0.000000 -0.000000
vn -1.000000 0.000000 -0.000000
vn -1.000000 0.000000 -0.000000
vn -1.000000 0.000000 -0.000000
vn -1.000000 0.000000 -0.000000
vn -1.000000 0.000000 -0.000000
vn -1.000000 0.000000 -0.000000
vn -1.000000 0.000000 -0.000000
vn -1.000000 0.000000 -0.000000
vn -1.000000 0.000000 -0.000000
vn -1.000000 0.000000 -0.000000
vn -1.000000 0.000000 -0.000000
vn -1.000000 0.000000 -0.000000
vn -1.000000 0.000000 -0.000000
vn -1.000000 0.000000 -0.000000
vn -1.000000 0.000000 -0.000000
vn -1.000000 0.000000 -0.000000
vn -1.000000 0.000000 -0.000000
vn -1.000000 0.000000 -0.000000
vn -1.000000 0.000000 -0.000000
vn -1.000000 0.000000 -0.000000
vn -1.000000 0.000000 -0.000000
vn -1.000000 0.000000 -0.000000
vn 0.000000 1.000000 0.000000
vn 0.000000 1.000000 0.000000
vn 0.000000 1.000000 0.000000
vn 0.000000 1.000000 0.000000
vn 0.000000 0.000000 -1.000000
vn 0.000000 0.000000 -1.000000
vn 0.000000 0.000000 -1.000000
vn 0.000000 0.000000 -1.000000
vn -0.000000 -1.000000 -0.000000
vn -0.000000 -1.000000 -0.000000
vn -0.000000 -1.000000 -0.000000
vn -0.000000 -1.000000 -0.000000
vn -0.000000 -0.000000 1.000000
vn -0.000000 -0.000000 1.000000
vn -0.000000 -0.000000 1.000000
vn -0.000000 -0.000000 1.000000
vn -1.000000 0.000000 -0.000000
vn -1.000000 0.000000 -0.000000
vn -1.000000 0.000000 -0.000000
vn -1.000000 0.000000 -0.000000
vn -1.000000 0.000000 -0.000000
vn -1.000000 0.000000 -0.000000
vn -1.000000 0.000000 -0.000000
vn -1.000000 0.000000 -0.000000
vn -1.000000 0.000000 -0.000000
vn -1.000000 0.000000 -0.000000
vn -1.000000 0.000000 -0.000000
vn -1.000000 0.000000 -0.000000
vn -1.000000 0.000000 -0.000000
vn -1.000000 0.000000 -0.000000
vn -1.000000 0.000000 -0.000000
vn -1.000000 0.000000 -0.000000
vn -1.000000 0.000000 -0.000000
vn -1.000000 0.000000 -0.000000
vn -1.000000 0.000000 -0.000000
vn -1.000000 0.000000 -0.000000
vn -1.000000 0.000000 -0.000000
vn -1.000000 0.000000 -0.000000
vn -1.000000 0.000000 -0.000000
vn -1.000000 0.000000 -0.000000
vn -1.000000 0.000000 -0.000000
vn -1.000000 0.000000 -0.000000
vn -1.000000 0.000000 -0.000000
vn -1.000000 0.000000 -0.000000
vn -1.000000 0.000000 -0.000000
vn -1.000000 0.000000 -0.000000
vn -1.000000 0.000000 -0.000000
vn -1.000000 0.000000 -0.000000
vn -1.000000 0.000000 -0.000000
vn -1.000000 0.000000 -0.000000
vn -1.000000 0.000000 -0.000000
vn -1.000000 0.000000 -0.000000
usemtl Opaque(65,96,255)
f 2/1/1 36/2/2 1/3/3
f 1/3/3 36/2/2 37/4/4
f 1/3/3 37/4/4 38/5/5
f 3/6/6 26/7/7 2/1/1
f 2/1/1 26/7/7 27/8/8
f 2/1/1 27/8/8 28/9/9
f 4/10/10 55/11/11 3/6/6
f 3/6/6 55/11/11 56/12/12
f 3/6/6 56/12/12 57/13/13
f 1/3/3 8/14/14 4/10/10
f 4/10/10 8/14/14 5/15/15
f 4/10/10 5/15/15 6/16/16
f 7/17/17 49/18/18 6/16/16
f 6/16/16 49/18/18 50/19/19
f 6/16/16 50/19/19 51/20/20
f 8/14/14 46/21/21 7/17/17
f 7/17/17 46/21/21 47/22/22
f 7/17/17 47/22/22 48/23/23
f 9/24/24 10/25/25 81/26/26
f 81/26/26 10/25/25 11/27/27
f 81/26/26 11/27/27 12/28/28
f 12/28/28 13/29/29 81/26/26
f 81/26/26 13/29/29 80/30/30
f 80/30/30 13/29/29 14/31/31
f 80/30/30 14/31/31 79/32/32
f 79/32/32 14/31/31 78/33/33
f 78/33/33 14/31/31 15/34/34
f 78/33/33 15/34/34 77/35/35
f 77/35/35 15/34/34 76/36/36
f 76/36/36 15/34/34 75/37/37
f 75/37/37 15/34/34 74/38/38
f 74/38/38 15/34/34 16/39/39
f 74/38/38 16/39/39 73/40/40
f 73/40/40 16/39/39 72/41/41
f 72/41/41 16/39/39 71/42/42
f 71/42/42 16/39/39 70/43/43
f 70/43/43 16/39/39 69/44/44
f 69/44/44 16/39/39 68/45/45
f 68/45/45 16/39/39 67/46/46
f 67/46/46 16/39/39 17/47/47
f 67/46/46 17/47/47 66/48/48
f 66/48/48 17/47/47 18/49/49
f 66/48/48 18/49/49 19/50/50
f 19/50/50 20/51/51 66/48/48
f 66/48/48 20/51/51 65/52/52
f 65/52/52 20/51/51 21/53/53
f 65/52/52 21/53/53 22/54/54
f 22/54/54 23/55/55 65/52/52
f 65/52/52 23/55/55 24/56/56
f 65/52/52 24/56/56 25/57/57
f 65/52/52 25/57/57 3/6/6
f 3/6/6 25/57/57 26/7/7
f 28/9/9 29/58/58 2/1/1
f 2/1/1 29/58/58 30/59/59
f 2/1/1 30/59/59 31/60/60
f 31/60/60 32/61/61 2/1/1
f 2/1/1 32/61/61 33/62/62
f 2/1/1 33/62/62 34/63/63
f 34/63/63 35/64/64 2/1/1
f 2/1/1 35/64/64 36/2/2
f 38/5/5 39/65/65 1/3/3
f 1/3/3 39/65/65 40/66/66
f 1/3/3 40/66/66 41/67/67
f 41/67/67 42/68/68 1/3/3
f 1/3/3 42/68/68 43/69/69
f 1/3/3 43/69/69 44/70/70
f 44/70/70 45/71/71 1/3/3
f 1/3/3 45/71/71 8/14/14
f 45/71/71 46/21/21 8/14/14
f 48/23/23 49/18/18 7/17/17
f 51/20/20 52/72/72 6/16/16
f 6/16/16 52/72/72 53/73/73
f 6/16/16 53/73/73 54/74/74
f 6/16/16 54/74/74 4/10/10
f 4/10/10 54/74/74 55/11/11
f 57/13/13 58/75/75 3/6/6
f 3/6/6 58/75/75 59/76/76
f 3/6/6 59/76/76 60/77/77
f 60/77/77 61/78/78 3/6/6
f 3/6/6 61/78/78 62/79/79
f 3/6/6 62/79/79 63/80/80
f 63/80/80 64/81/81 3/6/6
f 3/6/6 64/81/81 65/52/52
f 85/82/82 82/83/83 86/84/84
f 86/84/84 82/83/83 83/85/85
f 86/84/84 83/85/85 89/86/86
f 89/86/86 83/85/85 84/87/87
f 89/86/86 84/87/87 88/88/88
f 88/88/88 84/87/87 134/89/89
f 88/88/88 134/89/89 135/90/90
f 85/82/82 102/91/91 84/87/87
f 84/87/87 102/91/91 126/92/92
f 84/87/87 126/92/92 127/93/93
f 86/84/84 87/94/94 85/82/82
f 85/82/82 87/94/94 94/95/95
f 85/82/82 94/95/95 95/96/96
f 88/88/88 112/97/97 87/94/94
f 87/94/94 112/97/97 113/98/98
f 87/94/94 113/98/98 90/99/99
f 90/99/99 91/100/100 87/94/94
f 87/94/94 91/100/100 92/101/101
f 87/94/94 92/101/101 93/102/102
f 93/102/102 94/95/95 87/94/94
f 95/96/96 96/103/103 85/82/82
f 85/82/82 96/103/103 97/104/104
f 85/82/82 97/104/104 98/105/105
f 98/105/105 99/106/106 85/82/82
f 85/82/82 99/106/106 100/107/107
f 85/82/82 100/107/107 101/108/108
f 101/108/108 102/91/91 85/82/82
f 102/91/91 103/109/109 126/92/92
f 126/92/92 103/109/109 125/110/110
f 125/110/110 103/109/109 104/111/111
f 125/110/110 104/111/111 124/112/112
f 124/112/112 104/111/111 105/113/113
f 124/112/112 105/113/113 123/114/114
f 123/114/114 105/113/113 106/115/115
f 123/114/114 106/115/115 122/116/116
f 122/116/116 106/115/115 107/117/117
f 122/116/116 107/117/117 121/118/118
f 121/118/118 107/117/117 108/119/119
f 121/118/118 108/119/119 120/120/120
f 120/120/120 108/119/119 119/121/121
f 119/121/121 108/119/119 109/122/122
f 119/121/121 109/122/122 110/123/123
f 119/121/121 110/123/123 118/124/124
f 118/124/124 110/123/123 111/125/125
f 118/124/124 111/125/125 117/126/126
f 117/126/126 111/125/125 112/97/97
f 117/126/126 112/97/97 116/127/127
f 116/127/127 112/97/97 88/88/88
f 116/127/127 88/88/88 115/128/128
f 115/128/128 88/88/88 114/129/129
f 114/129/129 88/88/88 137/130/130
f 137/130/130 88/88/88 136/131/131
f 136/131/131 88/88/88 135/90/90
f 127/93/93 128/132/132 84/87/87
f 84/87/87 128/132/132 129/133/133
f 84/87/87 129/133/133 130/134/134
f 130/134/134 131/135/135 84/87/87
f 84/87/87 131/135/135 132/136/136
f 84/87/87 132/136/136 133/137/137
f 133/137/137 134/89/89 84/87/87
f 82/138/138 138/139/139 83/140/140
f 83/140/140 138/139/139 139/141/141
f 82/142/142 85/143/143 138/144/144
f 138/144/144 85/143/143 140/145/145
f 84/146/146 141/147/147 85/148/148
f 85/148/148 141/147/147 140/149/149
f 84/150/150 83/151/151 141/152/152
f 141/152/152 83/151/151 139/153/153
f 138/154/154 142/155/155 139/156/156
f 139/156/156 142/155/155 166/157/157
f 139/156/156 166/157/157 167/158/158
f 140/159/159 164/160/160 138/154/154
f 138/154/154 164/160/160 165/161/161
f 138/154/154 165/161/161 142/155/155
f 141/162/162 154/163/163 140/159/159
f 140/159/159 154/163/163 155/164/164
f 140/159/159 155/164/164 156/165/165
f 139/156/156 168/166/166 141/162/162
f 141/162/162 168/166/166 169/167/167
f 141/162/162 169/167/167 170/168/168
f 166/157/157 142/155/155 189/169/169
f 189/169/169 142/155/155 143/170/170
f 189/169/169 143/170/170 188/171/171
f 188/171/171 143/170/170 144/172/172
f 188/171/171 144/172/172 187/173/173
f 187/173/173 144/172/172 145/174/174
f 187/173/173 145/174/174 146/175/175
f 187/173/173 146/175/175 186/176/176
f 186/176/176 146/175/175 147/177/177
f 186/176/176 147/177/177 185/178/178
f 185/178/178 147/177/177 148/179/179
f 185/178/178 148/179/179 184/180/180
f 184/180/180 148/179/179 183/181/181
f 183/181/181 148/179/179 149/182/182
f 183/181/181 149/182/182 182/183/183
f 182/183/183 149/182/182 150/184/184
f 182/183/183 150/184/184 181/185/185
f 181/185/185 150/184/184 151/186/186
f 181/185/185 151/186/186 180/187/187
f 180/187/187 151/186/186 152/188/188
f 180/187/187 152/188/188 179/189/189
f 179/189/189 152/188/188 153/190/190
f 179/189/189 153/190/190 178/191/191
f 178/191/191 153/190/190 154/163/163
f 178/191/191 154/163/163 141/162/162
f 156/165/165 157/192/192 140/159/159
f 140/159/159 157/192/192 158/193/193
f 140/159/159 158/193/193 159/194/194
f 159/194/194 160/195/195 140/159/159
f 140/159/159 160/195/195 161/196/196
f 140/159/159 161/196/196 162/197/197
f 162/197/197 163/198/198 140/159/159
f 140/159/159 163/198/198 164/160/160
f 167/158/158 168/166/166 139/156/156
f 170/168/168 171/199/199 141/162/162
f 141/162/162 171/199/199 172/200/200
f 141/162/162 172/200/200 173/201/201
f 173/201/201 174/202/202 141/162/162
f 141/162/162 174/202/202 175/203/203
f 141/162/162 175/203/203 176/204/204
f 176/204/204 177/205/205 141/162/162
f 141/162/162 177/205/205 178/191/191
f 189/206/206 115/207/207 166/208/208
f 166/208/208 115/207/207 114/209/209
f 166/208/208 114/209/209 167/210/210
f 167/210/210 114/209/209 137/211/211
f 167/210/210 137/211/211 168/212/212
f 168/212/212 137/211/211 136/213/213
f 168/212/212 136/213/213 169/214/214
f 169/214/214 136/213/213 135/215/215
f 169/214/214 135/215/215 170/216/216
f 170/216/216 135/215/215 134/217/217
f 170/216/216 134/217/217 171/218/218
f 171/218/218 134/217/217 133/219/219
f 171/218/218 133/219/219 172/220/220
f 172/220/220 133/219/219 132/221/221
f 172/220/220 132/221/221 173/222/222
f 173/222/222 132/221/221 131/223/223
f 173/222/222 131/223/223 174/224/224
f 174/224/224 131/223/223 130/225/225
f 174/224/224 130/225/225 175/226/226
f 175/226/226 130/225/225 129/227/227
f 175/226/226 129/227/227 176/228/228
f 176/228/228 129/227/227 128/229/229
f 176/228/228 128/229/229 177/230/230
f 177/230/230 128/229/229 127/231/231
f 177/230/230 127/231/231 178/232/232
f 178/232/232 127/231/231 126/233/233
f 178/234/232 126/235/233 179/236/234
f 179/236/234 126/235/233 125/237/235
f 179/236/234 125/237/235 180/238/236
f 180/238/236 125/237/235 124/239/237
f 180/238/236 124/239/237 181/240/238
f 181/240/238 124/239/237 123/241/239
f 181/240/238 123/241/239 182/242/240
f 182/242/240 123/241/239 122/243/241
f 182/242/240 122/243/241 183/244/242
f 183/244/242 122/243/241 121/245/243
f 183/244/242 121/245/243 184/246/244
f 184/246/244 121/245/243 120/247/245
f 184/246/244 120/247/245 185/248/246
f 185/248/246 120/247/245 119/249/247
f 185/248/246 119/249/247 186/250/248
f 186/250/248 119/249/247 118/251/249
f 186/250/248 118/251/249 187/252/250
f 187/252/250 118/251/249 117/253/251
f 187/252/250 117/253/251 188/254/252
f 188/254/252 117/253/251 116/255/253
f 188/254/252 116/255/253 189/206/206
f 189/206/206 116/255/253 115/207/207
f 165/256/254 91/257/255 142/258/256
f 142/258/256 91/257/255 90/259/257
f 142/258/256 90/259/257 143/260/258
f 143/260/258 90/259/257 113/261/259
f 143/260/258 113/261/259 144/262/260
f 144/262/260 113/261/259 112/263/261
f 144/262/260 112/263/261 145/264/262
f 145/264/262 112/263/261 111/265/263
f 145/264/262 111/265/263 146/266/264
f 146/266/264 111/265/263 110/267/265
f 146/266/264 110/267/265 147/268/266
f 147/268/266 110/267/265 109/269/267
f 147/268/266 109/269/267 148/270/268
f 148/270/268 109/269/267 108/271/269
f 148/270/268 108/271/269 149/272/270
f 149/272/270 108/271/269 107/273/271
f 149/272/270 107/273/271 150/274/272
f 150/274/272 107/273/271 106/275/273
f 150/274/272 106/275/273 151/276/274
f 151/276/274 106/275/273 105/277/275
f 151/276/274 105/277/275 152/278/276
f 152/278/276 105/277/275 104/279/277
f 152/278/276 104/279/277 153/280/278
f 153/280/278 104/279/277 103/281/279
f 153/280/278 103/281/279 154/282/280
f 154/282/280 103/281/279 102/283/281
f 154/284/280 102/285/281 155/286/282
f 155/286/282 102/285/281 101/287/283
f 155/286/282 101/287/283 156/288/284
f 156/288/284 101/287/283 100/289/285
f 156/288/284 100/289/285 157/290/286
f 157/290/286 100/289/285 99/291/287
f 157/290/286 99/291/287 158/292/288
f 158/292/288 99/291/287 98/293/289
f 158/292/288 98/293/289 159/294/290
f 159/294/290 98/293/289 97/295/291
f 159/294/290 97/295/291 160/296/292
f 160/296/292 97/295/291 96/297/293
f 160/296/292 96/297/293 161/298/294
f 161/298/294 96/297/293 95/299/295
f 161/298/294 95/299/295 162/300/296
f 162/300/296 95/299/295 94/301/297
f 162/300/296 94/301/297 163/302/298
f 163/302/298 94/301/297 93/303/299
f 163/302/298 93/303/299 164/304/300
f 164/304/300 93/303/299 92/305/301
f 164/304/300 92/305/301 165/256/254
f 165/256/254 92/305/301 91/257/255
f 3/306/302 2/307/303 191/308/304
f 191/308/304 2/307/303 190/309/305
f 3/310/306 191/311/307 4/312/308
f 4/312/308 191/311/307 192/313/309
f 1/314/310 4/315/311 193/316/312
f 193/316/312 4/315/311 192/317/313
f 87/318/314 86/319/315 195/320/316
f 195/320/316 86/319/315 194/321/317
f 87/322/318 195/323/319 88/324/320
f 88/324/320 195/323/319 196/325/321
f 89/326/322 88/327/323 197/328/324
f 197/328/324 88/327/323 196/329/325
f 89/330/326 197/331/327 86/332/328
f 86/332/328 197/331/327 194/333/329
f 1/334/330 193/335/331 2/336/332
f 2/336/332 193/335/331 190/337/333
f 196/338/334 195/339/335 192/340/336
f 192/340/336 195/339/335 194/341/337
f 192/340/336 194/341/337 193/342/338
f 193/342/338 194/341/337 197/343/339
f 193/342/338 197/343/339 190/344/340
f 190/344/340 197/343/339 196/338/334
f 190/344/340 196/338/334 191/345/341
f 191/345/341 196/338/334 192/340/336
f 198/346/342 199/347/343 231/348/344
f 231/348/344 199/347/343 230/349/345
f 230/349/345 199/347/343 200/350/346
f 230/349/345 200/350/346 229/351/347
f 229/351/347 200/350/346 201/352/348
f 229/351/347 201/352/348 228/353/349
f 228/353/349 201/352/348 202/354/350
f 228/353/349 202/354/350 227/355/351
f 227/355/351 202/354/350 203/356/352
f 227/355/351 203/356/352 226/357/353
f 226/357/353 203/356/352 204/358/354
f 226/357/353 204/358/354 225/359/355
f 225/359/355 204/358/354 205/360/356
f 225/359/355 205/360/356 224/361/357
f 224/361/357 205/360/356 206/362/358
f 224/361/357 206/362/358 223/363/359
f 223/363/359 206/362/358 207/364/360
f 223/363/359 207/364/360 222/365/361
f 222/365/361 207/364/360 208/366/362
f 222/365/361 208/366/362 221/367/363
f 221/367/363 208/366/362 209/368/364
f 221/367/363 209/368/364 220/369/365
f 220/369/365 209/368/364 210/370/366
f 220/369/365 210/370/366 219/371/367
f 219/371/367 210/370/366 211/372/368
f 219/371/367 211/372/368 218/373/369
f 218/373/369 211/372/368 212/374/370
f 218/373/369 212/374/370 217/375/371
f 217/375/371 212/374/370 213/376/372
f 217/375/371 213/376/372 216/377/373
f 216/377/373 213/376/372 214/378/374
f 216/377/373 214/378/374 215/379/375
f 65/380/376 232/381/377 66/382/378
f 66/382/378 232/381/377 233/383/379
f 65/384/380 64/385/381 232/386/382
f 232/386/382 64/385/381 289/387/383
f 289/387/383 64/385/381 63/388/384
f 289/387/383 63/388/384 288/389/385
f 288/389/385 63/388/384 62/390/386
f 288/389/385 62/390/386 287/391/387
f 287/391/387 62/390/386 61/392/388
f 287/391/387 61/392/388 286/393/389
f 286/393/389 61/392/388 60/394/390
f 286/393/389 60/394/390 285/395/391
f 285/395/391 60/394/390 59/396/392
f 285/395/391 59/396/392 284/397/393
f 284/397/393 59/396/392 58/398/394
f 284/397/393 58/398/394 283/399/395
f 283/399/395 58/398/394 57/400/396
f 283/399/395 57/400/396 282/401/397
f 282/401/397 57/400/396 56/402/398
f 282/401/397 56/402/398 281/403/399
f 281/403/399 56/402/398 55/404/400
f 281/403/399 55/404/400 280/405/401
f 280/405/401 55/404/400 54/406/402
f 280/405/401 54/406/402 279/407/403
f 279/407/403 54/406/402 53/408/404
f 279/407/403 53/408/404 278/409/405
f 278/409/405 53/408/404 52/410/406
f 278/409/405 52/410/406 277/411/407
f 277/411/407 52/410/406 51/412/408
f 277/411/407 51/412/408 276/413/409
f 276/413/409 51/412/408 50/414/410
f 276/413/409 50/414/410 275/415/411
f 275/415/411 50/414/410 49/416/412
f 275/415/411 49/416/412 274/417/413
f 274/417/413 49/416/412 48/418/414
f 274/417/413 48/418/414 273/419/415
f 273/419/415 48/418/414 47/420/416
f 273/419/415 47/420/416 272/421/417
f 272/421/417 47/420/416 46/422/418
f 272/421/417 46/422/418 271/423/419
f 271/423/419 46/422/418 45/424/420
f 271/423/419 45/424/420 270/425/421
f 270/425/421 45/424/420 44/426/422
f 270/425/421 44/426/422 269/427/423
f 269/427/423 44/426/422 43/428/424
f 269/427/423 43/428/424 268/429/425
f 268/429/425 43/428/424 42/430/426
f 268/429/425 42/430/426 267/431/427
f 267/431/427 42/430/426 41/432/428
f 267/431/427 41/432/428 266/433/429
f 266/433/429 41/432/428 40/434/430
f 266/433/429 40/434/430 265/435/431
f 265/435/431 40/434/430 39/436/432
f 265/435/431 39/436/432 264/437/433
f 264/437/433 39/436/432 38/438/434
f 264/437/433 38/438/434 263/439/435
f 263/439/435 38/438/434 37/440/436
f 263/439/435 37/440/436 262/441/437
f 262/441/437 37/440/436 36/442/438
f 262/441/437 36/442/438 261/443/439
f 261/443/439 36/442/438 35/444/440
f 261/443/439 35/444/440 260/445/441
f 260/445/441 35/444/440 34/446/442
f 260/445/441 34/446/442 259/447/443
f 259/447/443 34/446/442 33/448/444
f 259/447/443 33/448/444 258/449/445
f 258/449/445 33/448/444 32/450/446
f 258/449/445 32/450/446 257/451/447
f 257/451/447 32/450/446 31/452/448
f 257/451/447 31/452/448 256/453/449
f 256/453/449 31/452/448 30/454/450
f 256/453/449 30/454/450 255/455/451
f 255/455/451 30/454/450 29/456/452
f 255/455/451 29/456/452 254/457/453
f 254/457/453 29/456/452 28/458/454
f 254/457/453 28/458/454 253/459/455
f 253/459/455 28/458/454 27/460/456
f 253/459/455 27/460/456 252/461/457
f 252/461/457 27/460/456 26/462/458
f 252/461/457 26/462/458 251/463/459
f 251/463/459 26/462/458 25/464/460
f 251/463/459 25/464/460 250/465/461
f 250/465/461 25/464/460 24/466/462
f 250/465/461 24/466/462 249/467/463
f 249/467/463 24/466/462 23/468/464
f 249/467/463 23/468/464 248/469/465
f 248/469/465 23/468/464 22/470/466
f 248/469/465 22/470/466 247/471/467
f 247/471/467 22/470/466 21/472/468
f 247/471/467 21/472/468 246/473/469
f 246/473/469 21/472/468 20/474/470
f 246/473/469 20/474/470 245/475/471
f 245/475/471 20/474/470 19/476/472
f 245/475/471 19/476/472 244/477/473
f 244/477/473 19/476/472 18/478/474
f 244/477/473 18/478/474 243/479/475
f 243/479/475 18/478/474 17/480/476
f 243/479/475 17/480/476 242/481/477
f 242/481/477 17/480/476 16/482/478
f 242/481/477 16/482/478 241/483/479
f 241/483/479 16/482/478 15/484/480
f 241/483/479 15/484/480 240/485/481
f 240/485/481 15/484/480 14/486/482
f 240/485/481 14/486/482 239/487/483
f 239/487/483 14/486/482 13/488/484
f 239/487/483 13/488/484 238/489/485
f 238/489/485 13/488/484 12/490/486
f 238/489/485 12/490/486 237/491/487
f 237/491/487 12/490/486 11/492/488
f 237/491/487 11/492/488 236/493/489
f 236/493/489 11/492/488 10/494/490
f 236/493/489 10/494/490 235/495/491
f 235/495/491 10/494/490 9/496/492
f 235/495/491 9/496/492 234/497/493
f 9/496/494 81/498/495 234/499/496
f 234/499/496 81/498/495 304/500/497
f 304/500/497 81/498/495 80/501/498
f 304/500/497 80/501/498 303/502/499
f 303/502/499 80/501/498 79/503/500
f 303/502/499 79/503/500 302/504/501
f 302/504/501 79/503/500 78/505/502
f 302/504/501 78/505/502 301/506/503
f 301/506/503 78/505/502 77/507/504
f 301/506/503 77/507/504 300/508/505
f 300/508/505 77/507/504 76/509/506
f 300/508/505 76/509/506 299/510/507
f 299/510/507 76/509/506 75/511/508
f 299/510/507 75/511/508 298/512/509
f 298/512/509 75/511/508 74/513/510
f 298/512/509 74/513/510 297/514/511
f 297/514/511 74/513/510 73/515/512
f 297/514/511 73/515/512 296/516/513
f 296/516/513 73/515/512 72/517/514
f 296/516/513 72/517/514 295/518/515
f 295/518/515 72/517/514 71/519/516
f 295/518/515 71/519/516 294/520/517
f 294/520/517 71/519/516 70/521/518
f 294/520/517 70/521/518 293/522/519
f 293/522/519 70/521/518 69/523/520
f 293/522/519 69/523/520 292/524/521
f 292/524/521 69/523/520 68/525/522
f 292/524/521 68/525/522 291/526/523
f 291/526/523 68/525/522 67/527/524
f 291/526/523 67/527/524 290/528/525
f 290/528/525 67/527/524 66/529/526
f 290/528/525 66/529/526 233/530/527
f 214/531/374 305/532/528 215/533/375
f 215/533/375 305/532/528 334/534/529
f 334/534/529 305/532/528 306/535/530
f 334/534/529 306/535/530 333/536/531
f 333/536/531 306/535/530 307/537/532
f 333/536/531 307/537/532 332/538/533
f 332/538/533 307/537/532 308/539/534
f 332/538/533 308/539/534 331/540/535
f 331/540/535 308/539/534 309/541/536
f 331/540/535 309/541/536 330/542/537
f 330/542/537 309/541/536 310/543/538
f 330/542/537 310/543/538 329/544/539
f 329/544/539 310/543/538 311/545/540
f 329/544/539 311/545/540 328/546/541
f 328/546/541 311/545/540 312/547/542
f 328/546/541 312/547/542 327/548/543
f 327/548/543 312/547/542 313/549/544
f 327/548/543 313/549/544 326/550/545
f 326/550/545 313/549/544 314/551/546
f 326/550/545 314/551/546 325/552/547
f 325/552/547 314/551/546 315/553/548
f 325/552/547 315/553/548 324/554/549
f 324/554/549 315/553/548 316/555/550
f 324/554/549 316/555/550 323/556/551
f 323/556/551 316/555/550 317/557/552
f 323/556/551 317/557/552 322/558/553
f 322/558/553 317/557/552 318/559/554
f 322/558/553 318/559/554 321/560/555
f 321/560/555 318/559/554 319/561/556
f 321/560/555 319/561/556 320/562/557
f 320/562/557 319/561/556 198/563/342
f 320/562/557 198/563/342 231/564/344
f 232/565/558 289/566/559 233/567/560
f 233/567/560 289/566/559 288/568/561
f 233/567/560 288/568/561 290/569/562
f 290/569/562 288/568/561 287/570/563
f 290/569/562 287/570/563 286/571/564
f 290/569/562 286/571/564 291/572/565
f 291/572/565 286/571/564 285/573/566
f 291/572/565 285/573/566 292/574/567
f 292/574/567 285/573/566 284/575/568
f 292/574/567 284/575/568 293/576/569
f 293/576/569 284/575/568 283/577/570
f 293/576/569 283/577/570 294/578/571
f 294/578/571 283/577/570 295/579/572
f 295/579/572 283/577/570 282/580/573
f 295/579/572 282/580/573 296/581/574
f 296/581/574 282/580/573 281/582/575
f 296/581/574 281/582/575 297/583/576
f 297/583/576 281/582/575 280/584/577
f 297/583/576 280/584/577 298/585/578
f 298/585/578 280/584/577 279/586/579
f 298/585/578 279/586/579 299/587/580
f 299/587/580 279/586/579 278/588/581
f 299/587/580 278/588/581 300/589/582
f 300/589/582 278/588/581 277/590/583
f 300/589/582 277/590/583 301/591/584
f 301/591/584 277/590/583 276/592/585
f 301/591/584 276/592/585 302/593/586
f 302/593/586 276/592/585 275/594/587
f 302/593/586 275/594/587 303/595/588
f 303/595/588 275/594/587 274/596/589
f 303/595/588 274/596/589 273/597/590
f 303/595/588 273/597/590 304/598/591
f 304/598/591 273/597/590 272/599/592
f 304/598/591 272/599/592 234/600/593
f 234/600/593 272/599/592 271/601/594
f 234/600/593 271/601/594 225/602/595
f 225/602/595 271/601/594 226/603/596
f 226/603/596 271/601/594 270/604/597
f 226/603/596 270/604/597 227/605/598
f 227/605/598 270/604/597 269/606/599
f 227/605/598 269/606/599 228/607/600
f 228/607/600 269/606/599 268/608/601
f 228/607/600 268/608/601 229/609/602
f 229/609/602 268/608/601 267/610/603
f 229/609/602 267/610/603 230/611/604
f 230/611/604 267/610/603 266/612/605
f 230/611/604 266/612/605 231/613/606
f 231/613/606 266/612/605 265/614/607
f 231/613/606 265/614/607 264/615/608
f 231/613/606 264/615/608 320/616/609
f 320/616/609 264/615/608 263/617/610
f 320/616/609 263/617/610 321/618/611
f 321/618/611 263/617/610 262/619/612
f 321/618/611 262/619/612 322/620/613
f 322/620/613 262/619/612 261/621/614
f 322/620/613 261/621/614 323/622/615
f 323/622/615 261/621/614 324/623/616
f 324/623/616 261/621/614 260/624/617
f 324/623/616 260/624/617 325/625/618
f 325/625/618 260/624/617 259/626/619
f 325/625/618 259/626/619 326/627/620
f 326/627/620 259/626/619 258/628/621
f 326/627/620 258/628/621 327/629/622
f 327/629/622 258/628/621 257/630/623
f 327/629/622 257/630/623 328/631/624
f 328/631/624 257/630/623 256/632/625
f 328/631/624 256/632/625 255/633/626
f 328/631/624 255/633/626 329/634/627
f 329/634/627 255/633/626 254/635/628
f 329/634/627 254/635/628 330/636/629
f 330/636/629 254/635/628 253/637/630
f 330/636/629 253/637/630 252/638/631
f 330/636/629 252/638/631 331/639/632
f 331/639/632 252/638/631 251/640/633
f 331/639/632 251/640/633 332/641/634
f 332/641/634 251/640/633 250/642/635
f 332/641/634 250/642/635 249/643/636
f 332/641/634 249/643/636 333/644/637
f 333/644/637 249/643/636 248/645/638
f 333/644/637 248/645/638 247/646/639
f 333/644/637 247/646/639 334/647/640
f 334/647/640 247/646/639 246/648/641
f 334/647/640 246/648/641 245/649/642
f 334/647/640 245/649/642 215/650/643
f 215/650/643 245/649/642 244/651/644
f 215/650/643 244/651/644 216/652/645
f 216/652/645 244/651/644 243/653/646
f 216/652/645 243/653/646 217/654/647
f 217/654/647 243/653/646 242/655/648
f 217/654/647 242/655/648 218/656/649
f 218/656/649 242/655/648 241/657/650
f 218/656/649 241/657/650 219/658/651
f 219/658/651 241/657/650 240/659/652
f 219/658/651 240/659/652 239/660/653
f 219/658/651 239/660/653 220/661/654
f 220/661/654 239/660/653 238/662/655
f 220/661/654 238/662/655 221/663/656
f 221/663/656 238/662/655 237/664/657
f 221/663/656 237/664/657 222/665/658
f 222/665/658 237/664/657 236/666/659
f 222/665/658 236/666/659 223/667/660
f 223/667/660 236/666/659 235/668/661
f 223/667/660 235/668/661 224/669/662
f 224/669/662 235/668/661 234/600/593
f 224/669/662 234/600/593 225/602/595
f 7/670/663 6/671/664 336/672/665
f 336/672/665 6/671/664 335/673/666
f 5/674/667 337/675/668 6/676/669
f 6/676/669 337/675/668 335/677/670
f 5/678/671 8/679/672 337/680/673
f 337/680/673 8/679/672 338/681/674
f 7/682/675 336/683/676 8/684/677
f 8/684/677 336/683/676 338/685/678
f 336/686/679 335/687/680 338/688/681
f 338/688/681 335/687/680 337/689/682
f 199/690/683 198/691/684 210/692/685
f 210/692/685 198/691/684 319/693/686
f 210/692/685 319/693/686 318/694/687
f 318/694/687 317/695/688 210/692/685
f 210/692/685 317/695/688 316/696/689
f 210/692/685 316/696/689 315/697/690
f 315/697/690 314/698/691 210/692/685
f 210/692/685 314/698/691 313/699/692
f 210/692/685 313/699/692 312/700/693
f 312/700/693 311/701/694 210/692/685
f 210/692/685 311/701/694 310/702/695
f 210/692/685 310/702/695 309/703/696
f 210/692/685 309/703/696 211/704/697
f 211/704/697 309/703/696 308/705/698
f 211/704/697 308/705/698 212/706/699
f 212/706/699 308/705/698 213/707/700
f 213/707/700 308/705/698 214/708/701
f 214/708/701 308/705/698 307/709/702
f 214/708/701 307/709/702 306/710/703
f 306/710/703 305/711/704 214/708/701
f 209/712/705 202/713/706 210/692/685
f 210/692/685 202/713/706 201/714/707
f 210/692/685 201/714/707 200/715/708
f 202/713/706 209/712/705 203/716/709
f 203/716/709 209/712/705 208/717/710
f 203/716/709 208/717/710 207/718/711
f 207/718/711 206/719/712 203/716/709
f 203/716/709 206/719/712 204/720/713
f 204/720/713 206/719/712 205/721/714
f 200/715/708 199/690/683 210/692/685
# 338 vertices
# 721 texture params
# 714 normals
# 680 facets

# 1 groups
