# WaveFront *.obj file (generated by Autodesk ATF)

mtllib Back_wall.mtl

g Body1

v -0.300000 -0.350000 0.350000
v -0.300000 -0.350000 1.050000
v -0.300000 0.350000 1.050000
v -0.300000 0.350000 0.350000
v -0.300000 0.200955 0.912786
v -0.300000 0.200955 0.982375
v -0.300000 -0.180955 0.982375
v -0.300000 -0.180955 0.926070
v -0.300000 -0.105099 0.826805
v -0.300000 -0.033325 0.695489
v -0.300000 0.018110 0.555579
v -0.300000 0.043964 0.400000
v -0.300000 0.118535 0.400000
v -0.300000 0.102605 0.520593
v -0.300000 0.059273 0.665004
v -0.300000 -0.008839 0.802450
v -0.300000 -0.087968 0.912786
v 0.000000 -1.717157 2.020000
v 0.000000 2.867157 2.020000
v -0.300000 2.867157 2.020000
v -0.300000 -1.717157 2.020000
v 0.000000 -3.875000 2.020000
v 0.000000 -2.932843 2.020000
v -0.300000 -2.932843 2.020000
v -0.300000 -3.875000 2.020000
v 0.000000 4.175000 -0.000000
v -0.300000 4.175000 -0.000000
v -0.300000 4.375000 -0.000000
v 0.000000 4.375000 -0.000000
v -0.300000 4.175000 2.020000
v -0.300000 4.275000 2.020000
v -0.300000 4.300882 2.016593
v -0.300000 4.325000 2.006603
v -0.300000 4.345711 1.990711
v -0.300000 4.361603 1.970000
v -0.300000 4.371593 1.945882
v -0.300000 4.375000 1.920000
v -0.300000 4.175000 0.500000
v -0.300000 3.875000 0.500000
v -0.300000 3.875000 -0.000000
v -0.300000 -3.875000 -0.000000
v -0.300000 -3.875000 0.500000
v -0.300000 -4.175000 0.500000
v -0.300000 -4.175000 -0.000000
v -0.300000 -4.375000 -0.000000
v -0.300000 -4.375000 1.920000
v -0.300000 -4.371593 1.945882
v -0.300000 -4.361603 1.970000
v -0.300000 -4.345711 1.990711
v -0.300000 -4.325000 2.006603
v -0.300000 -4.300882 2.016593
v -0.300000 -4.275000 2.020000
v -0.300000 -4.175000 2.020000
v -0.300000 -4.175000 1.520000
v -0.300000 -3.875000 1.520000
v -0.300000 -2.859729 2.029046
v -0.300000 -2.791024 2.055637
v -0.300000 -2.730872 2.098172
v -0.300000 -2.682900 2.154083
v -0.300000 -2.650000 2.220000
v -0.300000 -2.000000 2.220000
v -0.300000 -1.967100 2.154083
v -0.300000 -1.919128 2.098172
v -0.300000 -1.858976 2.055637
v -0.300000 -1.790271 2.029046
v -0.300000 2.940271 2.029046
v -0.300000 3.008976 2.055637
v -0.300000 3.069128 2.098172
v -0.300000 3.117100 2.154083
v -0.300000 3.150000 2.220000
v -0.300000 3.800000 2.220000
v -0.300000 3.800000 2.218431
v -0.300000 3.808664 2.146855
v -0.300000 3.834154 2.079413
v -0.300000 3.875000 2.020000
v -0.300000 3.875000 1.520000
v -0.300000 4.175000 1.520000
v -0.300000 0.400000 1.100000
v -0.300000 -0.400000 1.100000
v -0.300000 -0.400000 0.300000
v -0.300000 0.400000 0.300000
v -0.300000 4.025000 1.160000
v -0.300000 3.986177 1.154889
v -0.300000 3.950000 1.139904
v -0.300000 3.918934 1.116066
v -0.300000 3.895096 1.085000
v -0.300000 3.880111 1.048823
v -0.300000 3.875000 1.010000
v -0.300000 3.880111 0.971177
v -0.300000 3.895096 0.935000
v -0.300000 3.918934 0.903934
v -0.300000 3.950000 0.880096
v -0.300000 3.986177 0.865111
v -0.300000 4.025000 0.860000
v -0.300000 4.063823 0.865111
v -0.300000 4.100000 0.880096
v -0.300000 4.131066 0.903934
v -0.300000 4.154904 0.935000
v -0.300000 4.169889 0.971177
v -0.300000 4.175000 1.010000
v -0.300000 4.169889 1.048823
v -0.300000 4.154904 1.085000
v -0.300000 4.131066 1.116066
v -0.300000 4.100000 1.139904
v -0.300000 4.063823 1.154889
v -0.300000 -4.025000 1.160000
v -0.300000 -4.063823 1.154889
v -0.300000 -4.100000 1.139904
v -0.300000 -4.131066 1.116066
v -0.300000 -4.154904 1.085000
v -0.300000 -4.169889 1.048823
v -0.300000 -4.175000 1.010000
v -0.300000 -4.169889 0.971177
v -0.300000 -4.154904 0.935000
v -0.300000 -4.131066 0.903934
v -0.300000 -4.100000 0.880096
v -0.300000 -4.063823 0.865111
v -0.300000 -4.025000 0.860000
v -0.300000 -3.986177 0.865111
v -0.300000 -3.950000 0.880096
v -0.300000 -3.918934 0.903934
v -0.300000 -3.895096 0.935000
v -0.300000 -3.880111 0.971177
v -0.300000 -3.875000 1.010000
v -0.300000 -3.880111 1.048823
v -0.300000 -3.895096 1.085000
v -0.300000 -3.918934 1.116066
v -0.300000 -3.950000 1.139904
v -0.300000 -3.986177 1.154889
v 0.000000 4.375000 1.920000
v 0.000000 4.371593 1.945882
v 0.000000 4.361603 1.970000
v 0.000000 4.345711 1.990711
v 0.000000 4.325000 2.006603
v 0.000000 4.300882 2.016593
v 0.000000 4.275000 2.020000
v 0.000000 4.175000 2.020000
v 0.000000 4.175000 1.520000
v 0.000000 3.875000 1.520000
v 0.000000 3.875000 2.020000
v 0.000000 3.834154 2.079413
v 0.000000 3.808664 2.146855
v 0.000000 3.800000 2.218431
v 0.000000 3.800000 2.220000
v 0.000000 3.150000 2.220000
v 0.000000 3.117100 2.154083
v 0.000000 3.069128 2.098172
v 0.000000 3.008976 2.055637
v 0.000000 2.940271 2.029046
v 0.000000 -1.790271 2.029046
v 0.000000 -1.858976 2.055637
v 0.000000 -1.919128 2.098172
v 0.000000 -1.967100 2.154083
v 0.000000 -2.000000 2.220000
v 0.000000 -2.650000 2.220000
v 0.000000 -2.682900 2.154083
v 0.000000 -2.730872 2.098172
v 0.000000 -2.791024 2.055637
v 0.000000 -2.859729 2.029046
v 0.000000 -3.875000 1.520000
v 0.000000 -4.175000 1.520000
v 0.000000 -4.175000 2.020000
v 0.000000 -4.275000 2.020000
v 0.000000 -4.300882 2.016593
v 0.000000 -4.325000 2.006603
v 0.000000 -4.345711 1.990711
v 0.000000 -4.361603 1.970000
v 0.000000 -4.371593 1.945882
v 0.000000 -4.375000 1.920000
v 0.000000 -4.375000 -0.000000
v 0.000000 -4.175000 -0.000000
v 0.000000 -4.175000 0.500000
v 0.000000 -3.875000 0.500000
v 0.000000 -3.875000 -0.000000
v 0.000000 3.875000 -0.000000
v 0.000000 3.875000 0.500000
v 0.000000 4.175000 0.500000
v 0.000000 4.025000 1.160000
v 0.000000 4.063823 1.154889
v 0.000000 4.100000 1.139904
v 0.000000 4.131066 1.116066
v 0.000000 4.154904 1.085000
v 0.000000 4.169889 1.048823
v 0.000000 4.175000 1.010000
v 0.000000 4.169889 0.971177
v 0.000000 4.154904 0.935000
v 0.000000 4.131066 0.903934
v 0.000000 4.100000 0.880096
v 0.000000 4.063823 0.865111
v 0.000000 4.025000 0.860000
v 0.000000 3.986177 0.865111
v 0.000000 3.950000 0.880096
v 0.000000 3.918934 0.903934
v 0.000000 3.895096 0.935000
v 0.000000 3.880111 0.971177
v 0.000000 3.875000 1.010000
v 0.000000 3.880111 1.048823
v 0.000000 3.895096 1.085000
v 0.000000 3.918934 1.116066
v 0.000000 3.950000 1.139904
v 0.000000 3.986177 1.154889
v 0.000000 -4.025000 1.160000
v 0.000000 -3.986177 1.154889
v 0.000000 -3.950000 1.139904
v 0.000000 -3.918934 1.116066
v 0.000000 -3.895096 1.085000
v 0.000000 -3.880111 1.048823
v 0.000000 -3.875000 1.010000
v 0.000000 -3.880111 0.971177
v 0.000000 -3.895096 0.935000
v 0.000000 -3.918934 0.903934
v 0.000000 -3.950000 0.880096
v 0.000000 -3.986177 0.865111
v 0.000000 -4.025000 0.860000
v 0.000000 -4.063823 0.865111
v 0.000000 -4.100000 0.880096
v 0.000000 -4.131066 0.903934
v 0.000000 -4.154904 0.935000
v 0.000000 -4.169889 0.971177
v 0.000000 -4.175000 1.010000
v 0.000000 -4.169889 1.048823
v 0.000000 -4.154904 1.085000
v 0.000000 -4.131066 1.116066
v 0.000000 -4.100000 1.139904
v 0.000000 -4.063823 1.154889
v -0.250000 -0.350000 1.050000
v -0.250000 0.350000 1.050000
v -0.250000 -0.350000 0.350000
v -0.250000 0.350000 0.350000
v -0.250000 0.400000 1.100000
v -0.250000 -0.400000 1.100000
v -0.250000 0.400000 0.300000
v -0.250000 -0.400000 0.300000
v -0.250000 0.200955 0.982375
v -0.250000 -0.180955 0.982375
v -0.250000 -0.180955 0.926070
v -0.250000 -0.105099 0.826805
v -0.250000 -0.033325 0.695489
v -0.250000 0.018110 0.555579
v -0.250000 0.043964 0.400000
v -0.250000 0.118535 0.400000
v -0.250000 0.102605 0.520593
v -0.250000 0.059273 0.665004
v -0.250000 -0.008839 0.802450
v -0.250000 -0.087968 0.912786
v -0.250000 0.200955 0.912786
vt 1.050000 -0.350000 0.000000
vt 0.926070 -0.180955 0.000000
vt 0.350000 -0.350000 0.000000
vt 0.826805 -0.105099 0.000000
vt 0.695489 -0.033325 0.000000
vt 0.982375 -0.180955 0.000000
vt 1.050000 0.350000 0.000000
vt 0.982375 0.200955 0.000000
vt 0.912786 0.200955 0.000000
vt 0.350000 0.350000 0.000000
vt 0.520593 0.102605 0.000000
vt 0.400000 0.118535 0.000000
vt 0.400000 0.043964 0.000000
vt 0.555579 0.018110 0.000000
vt 0.665004 0.059273 0.000000
vt 0.802450 -0.008839 0.000000
vt 0.912786 -0.087968 0.000000
vt 0.300000 7.242157 0.000000
vt -0.000000 7.242157 0.000000
vt 0.300000 2.657843 0.000000
vt -0.000000 2.657843 0.000000
vt 0.300000 1.442157 0.000000
vt -0.000000 1.442157 0.000000
vt 0.300000 0.500000 0.000000
vt 0.000000 0.500000 0.000000
vt -0.300000 -0.200000 0.000000
vt -0.000000 -0.200000 0.000000
vt -0.300000 0.000000 0.000000
vt -0.000000 0.000000 0.000000
vt 2.020000 4.275000 0.000000
vt 2.006603 4.325000 0.000000
vt 2.020000 4.175000 0.000000
vt 1.990711 4.345711 0.000000
vt 1.970000 4.361603 0.000000
vt 2.016593 4.300882 0.000000
vt 1.945882 4.371593 0.000000
vt 1.920000 4.375000 0.000000
vt 1.520000 4.175000 0.000000
vt 1.048823 4.169889 0.000000
vt 1.085000 4.154904 0.000000
vt 1.010000 4.175000 0.000000
vt -0.000000 4.375000 0.000000
vt 0.971177 4.169889 0.000000
vt 0.500000 4.175000 0.000000
vt 0.935000 4.154904 0.000000
vt 0.903934 4.131066 0.000000
vt 0.880096 4.100000 0.000000
vt 0.865111 4.063823 0.000000
vt 0.860000 4.025000 0.000000
vt 0.500000 3.875000 0.000000
vt 0.865111 3.986177 0.000000
vt 0.880096 3.950000 0.000000
vt 1.100000 0.400000 0.000000
vt 0.903934 3.918934 0.000000
vt 0.935000 3.895096 0.000000
vt 0.971177 3.880111 0.000000
vt 1.010000 3.875000 0.000000
vt 1.048823 3.880111 0.000000
vt 1.085000 3.895096 0.000000
vt 1.116066 3.918934 0.000000
vt 1.139904 3.950000 0.000000
vt 1.520000 3.875000 0.000000
vt 1.154889 3.986177 0.000000
vt 1.160000 4.025000 0.000000
vt 1.154889 4.063823 0.000000
vt 1.139904 4.100000 0.000000
vt 1.116066 4.131066 0.000000
vt -0.000000 4.175000 0.000000
vt 0.300000 0.400000 0.000000
vt -0.000000 3.875000 0.000000
vt -0.000000 -3.875000 0.000000
vt 0.300000 -0.400000 0.000000
vt 0.500000 -3.875000 0.000000
vt 1.100000 -0.400000 0.000000
vt 0.880096 -3.950000 0.000000
vt 0.903934 -3.918934 0.000000
vt 0.500000 -4.175000 0.000000
vt 0.860000 -4.025000 0.000000
vt 0.865111 -3.986177 0.000000
vt -0.000000 -4.175000 0.000000
vt -0.000000 -4.375000 0.000000
vt 0.971177 -4.169889 0.000000
vt 0.935000 -4.154904 0.000000
vt 1.010000 -4.175000 0.000000
vt 1.920000 -4.375000 0.000000
vt 1.048823 -4.169889 0.000000
vt 1.520000 -4.175000 0.000000
vt 1.085000 -4.154904 0.000000
vt 1.116066 -4.131066 0.000000
vt 1.139904 -4.100000 0.000000
vt 1.154889 -4.063823 0.000000
vt 1.160000 -4.025000 0.000000
vt 1.520000 -3.875000 0.000000
vt 1.154889 -3.986177 0.000000
vt 1.139904 -3.950000 0.000000
vt 1.116066 -3.918934 0.000000
vt 1.085000 -3.895096 0.000000
vt 1.048823 -3.880111 0.000000
vt 1.010000 -3.875000 0.000000
vt 0.971177 -3.880111 0.000000
vt 0.935000 -3.895096 0.000000
vt 2.020000 -4.175000 0.000000
vt 1.945882 -4.371593 0.000000
vt 1.970000 -4.361603 0.000000
vt 1.990711 -4.345711 0.000000
vt 2.006603 -4.325000 0.000000
vt 2.020000 -4.275000 0.000000
vt 2.016593 -4.300882 0.000000
vt 2.020000 -3.875000 0.000000
vt 2.020000 -2.932843 0.000000
vt 2.020000 -1.717157 0.000000
vt 2.020000 2.867157 0.000000
vt 2.020000 3.875000 0.000000
vt 2.029046 2.940271 0.000000
vt 2.055637 3.008976 0.000000
vt 2.029046 -2.859729 0.000000
vt 2.029046 -1.790271 0.000000
vt 2.055637 -2.791024 0.000000
vt 2.055637 -1.858976 0.000000
vt 2.098172 -2.730872 0.000000
vt 2.098172 -1.919128 0.000000
vt 2.154083 -2.682900 0.000000
vt 2.154083 -1.967100 0.000000
vt 2.220000 -2.000000 0.000000
vt 2.220000 -2.650000 0.000000
vt 2.079413 3.834154 0.000000
vt 2.098172 3.069128 0.000000
vt 2.154083 3.117100 0.000000
vt 2.146855 3.808664 0.000000
vt 2.220000 3.150000 0.000000
vt 2.218431 3.800000 0.000000
vt 2.220000 3.800000 0.000000
vt 0.903934 -4.131066 0.000000
vt 0.880096 -4.100000 0.000000
vt 0.865111 -4.063823 0.000000
vt -1.920000 4.375000 0.000000
vt -1.010000 4.175000 0.000000
vt 0.000000 4.375000 0.000000
vt -0.971177 4.169889 0.000000
vt -0.500000 4.175000 0.000000
vt -0.935000 4.154904 0.000000
vt -0.903934 4.131066 0.000000
vt -1.945882 4.371593 0.000000
vt -2.020000 4.175000 0.000000
vt -1.520000 4.175000 0.000000
vt -1.048823 4.169889 0.000000
vt -1.085000 4.154904 0.000000
vt -1.116066 4.131066 0.000000
vt -1.139904 4.100000 0.000000
vt -1.154889 4.063823 0.000000
vt -1.160000 4.025000 0.000000
vt -1.520000 3.875000 0.000000
vt -1.154889 3.986177 0.000000
vt -1.139904 3.950000 0.000000
vt -1.116066 3.918934 0.000000
vt -2.020000 -1.717157 0.000000
vt -1.085000 3.895096 0.000000
vt -1.048823 3.880111 0.000000
vt -1.048823 -3.880111 0.000000
vt -1.010000 3.875000 0.000000
vt -1.010000 -3.875000 0.000000
vt -0.971177 -3.880111 0.000000
vt -1.970000 4.361603 0.000000
vt -1.990711 4.345711 0.000000
vt -2.006603 4.325000 0.000000
vt -2.016593 4.300882 0.000000
vt -2.020000 4.275000 0.000000
vt -2.020000 2.867157 0.000000
vt -2.020000 3.875000 0.000000
vt -2.029046 2.940271 0.000000
vt -2.055637 3.008976 0.000000
vt -2.079413 3.834154 0.000000
vt -2.098172 3.069128 0.000000
vt -2.154083 3.117100 0.000000
vt -2.146855 3.808664 0.000000
vt -2.220000 3.150000 0.000000
vt -2.218431 3.800000 0.000000
vt -2.220000 3.800000 0.000000
vt -2.029046 -1.790271 0.000000
vt -2.029046 -2.859729 0.000000
vt -2.020000 -2.932843 0.000000
vt -1.520000 -3.875000 0.000000
vt -2.020000 -3.875000 0.000000
vt -2.055637 -2.791024 0.000000
vt -2.055637 -1.858976 0.000000
vt -2.098172 -2.730872 0.000000
vt -2.098172 -1.919128 0.000000
vt -2.154083 -2.682900 0.000000
vt -2.154083 -1.967100 0.000000
vt -2.220000 -2.000000 0.000000
vt -2.220000 -2.650000 0.000000
vt -1.520000 -4.175000 0.000000
vt -1.160000 -4.025000 0.000000
vt -1.154889 -3.986177 0.000000
vt -1.139904 -3.950000 0.000000
vt -2.020000 -4.175000 0.000000
vt -1.920000 -4.375000 0.000000
vt -1.048823 -4.169889 0.000000
vt -1.085000 -4.154904 0.000000
vt -2.020000 -4.275000 0.000000
vt -2.006603 -4.325000 0.000000
vt -1.990711 -4.345711 0.000000
vt -1.970000 -4.361603 0.000000
vt -2.016593 -4.300882 0.000000
vt -1.945882 -4.371593 0.000000
vt -1.010000 -4.175000 0.000000
vt 0.000000 -4.375000 0.000000
vt -0.971177 -4.169889 0.000000
vt -0.500000 -4.175000 0.000000
vt -0.935000 -4.154904 0.000000
vt -0.903934 -4.131066 0.000000
vt -0.880096 -4.100000 0.000000
vt -0.865111 -4.063823 0.000000
vt -0.860000 -4.025000 0.000000
vt -0.500000 -3.875000 0.000000
vt -0.865111 -3.986177 0.000000
vt -0.880096 -3.950000 0.000000
vt -0.903934 -3.918934 0.000000
vt -0.935000 -3.895096 0.000000
vt -0.500000 3.875000 0.000000
vt -0.935000 3.895096 0.000000
vt -0.903934 3.918934 0.000000
vt -0.880096 3.950000 0.000000
vt -0.865111 3.986177 0.000000
vt -0.860000 4.025000 0.000000
vt -0.865111 4.063823 0.000000
vt -0.880096 4.100000 0.000000
vt 0.000000 -4.175000 0.000000
vt 0.000000 -3.875000 0.000000
vt 0.000000 3.875000 0.000000
vt 0.000000 4.175000 0.000000
vt -0.971177 3.880111 0.000000
vt -1.116066 -3.918934 0.000000
vt -1.085000 -3.895096 0.000000
vt -1.116066 -4.131066 0.000000
vt -1.139904 -4.100000 0.000000
vt -1.154889 -4.063823 0.000000
vt -0.000000 0.100000 0.000000
vt 0.300000 0.100000 0.000000
vt 0.000000 0.200000 0.000000
vt 0.300000 0.200000 0.000000
vt -0.000000 -0.500000 0.000000
vt -0.300000 -0.500000 0.000000
vt -0.000000 -8.250000 0.000000
vt -0.300000 -8.250000 0.000000
vt 0.300000 8.650000 0.000000
vt -0.000000 8.650000 0.000000
vt 0.300000 8.550000 0.000000
vt 0.000000 8.550000 0.000000
vt -2.020000 0.000000 0.000000
vt -0.100000 0.000000 0.000000
vt -2.020000 0.300000 0.000000
vt -0.100000 0.300000 0.000000
vt -0.000000 -8.550000 0.000000
vt -0.300000 -8.550000 0.000000
vt -0.000000 -8.750000 0.000000
vt -0.300000 -8.750000 0.000000
vt -0.000000 0.300000 0.000000
vt -1.920000 0.300000 0.000000
vt -0.000000 0.000000 0.000000
vt -1.920000 0.000000 0.000000
vt 0.300000 0.039270 0.000000
vt 0.000000 0.039270 0.000000
vt 0.300000 0.000000 0.000000
vt 0.000000 0.000000 0.000000
vt 0.300000 -0.039270 0.000000
vt 0.000000 -0.039270 0.000000
vt 0.300000 -0.078540 0.000000
vt 0.000000 -0.078540 0.000000
vt 0.300000 -0.117810 0.000000
vt 0.000000 -0.117810 0.000000
vt 0.300000 -0.157080 0.000000
vt 0.000000 -0.157080 0.000000
vt 0.300000 -0.196350 0.000000
vt 0.000000 -0.196350 0.000000
vt 0.300000 -0.235619 0.000000
vt 0.000000 -0.235619 0.000000
vt 0.300000 -0.274889 0.000000
vt 0.000000 -0.274889 0.000000
vt 0.300000 -0.314159 0.000000
vt 0.000000 -0.314159 0.000000
vt 0.300000 -0.353429 0.000000
vt -0.000000 -0.353429 0.000000
vt 0.300000 -0.392699 0.000000
vt 0.000000 -0.392699 0.000000
vt 0.300000 -0.431969 0.000000
vt 0.000000 -0.431969 0.000000
vt 0.300000 -0.471239 0.000000
vt 0.000000 -0.471239 0.000000
vt 0.300000 0.471239 0.000000
vt 0.000000 0.471239 0.000000
vt 0.300000 0.431969 0.000000
vt 0.000000 0.431969 0.000000
vt 0.300000 0.392699 0.000000
vt 0.000000 0.392699 0.000000
vt 0.300000 0.353429 0.000000
vt 0.000000 0.353429 0.000000
vt 0.300000 0.314159 0.000000
vt 0.000000 0.314159 0.000000
vt 0.300000 0.274889 0.000000
vt 0.000000 0.274889 0.000000
vt 0.300000 0.235619 0.000000
vt 0.000000 0.235619 0.000000
vt 0.300000 0.196350 0.000000
vt 0.000000 0.196350 0.000000
vt 0.300000 0.157080 0.000000
vt 0.000000 0.157080 0.000000
vt 0.300000 0.117810 0.000000
vt 0.000000 0.117810 0.000000
vt 0.300000 0.078540 0.000000
vt 0.000000 0.078540 0.000000
vt 0.300000 0.039270 0.000000
vt 0.000000 0.039270 0.000000
vt 0.300000 0.000000 0.000000
vt 0.000000 0.000000 0.000000
vt 0.300000 -0.039270 0.000000
vt 0.000000 -0.039270 0.000000
vt 0.300000 -0.078540 0.000000
vt 0.000000 -0.078540 0.000000
vt 0.300000 -0.117810 0.000000
vt 0.000000 -0.117810 0.000000
vt 0.300000 -0.157080 0.000000
vt 0.000000 -0.157080 0.000000
vt 0.300000 -0.196350 0.000000
vt 0.000000 -0.196350 0.000000
vt 0.300000 -0.235619 0.000000
vt 0.000000 -0.235619 0.000000
vt 0.300000 -0.274889 0.000000
vt 0.000000 -0.274889 0.000000
vt 0.300000 -0.314159 0.000000
vt 0.000000 -0.314159 0.000000
vt 0.300000 -0.353429 0.000000
vt -0.000000 -0.353429 0.000000
vt 0.300000 -0.392699 0.000000
vt 0.000000 -0.392699 0.000000
vt 0.300000 -0.431969 0.000000
vt -0.000000 -0.431969 0.000000
vt 0.300000 -0.471239 0.000000
vt 0.000000 -0.471239 0.000000
vt 0.300000 0.471239 0.000000
vt 0.000000 0.471239 0.000000
vt 0.300000 0.431969 0.000000
vt 0.000000 0.431969 0.000000
vt 0.300000 0.392699 0.000000
vt 0.000000 0.392699 0.000000
vt 0.300000 0.353429 0.000000
vt 0.000000 0.353429 0.000000
vt 0.300000 0.314159 0.000000
vt 0.000000 0.314159 0.000000
vt 0.300000 0.274889 0.000000
vt 0.000000 0.274889 0.000000
vt 0.300000 0.235619 0.000000
vt 0.000000 0.235619 0.000000
vt 0.300000 0.196350 0.000000
vt 0.000000 0.196350 0.000000
vt 0.300000 0.157080 0.000000
vt 0.000000 0.157080 0.000000
vt 0.300000 0.117810 0.000000
vt 0.000000 0.117810 0.000000
vt 0.300000 0.078540 0.000000
vt 0.000000 0.078540 0.000000
vt -0.300000 0.000000 0.000000
vt 0.000000 0.000000 0.000000
vt -0.300000 0.300000 0.000000
vt 0.000000 0.300000 0.000000
vt 0.500000 0.300000 0.000000
vt 0.000000 0.300000 0.000000
vt 0.500000 -0.000000 0.000000
vt 0.000000 0.000000 0.000000
vt 0.500000 0.300000 0.000000
vt 0.000000 0.300000 0.000000
vt 0.500000 0.000000 0.000000
vt 0.000000 0.000000 0.000000
vt 0.300000 0.300000 0.000000
vt -0.000000 0.300000 0.000000
vt 0.300000 0.000000 0.000000
vt -0.000000 0.000000 0.000000
vt -0.000000 0.300000 0.000000
vt -0.500000 0.300000 0.000000
vt -0.000000 0.000000 0.000000
vt -0.500000 0.000000 0.000000
vt -0.000000 0.300000 0.000000
vt -0.500000 0.300000 0.000000
vt -0.000000 0.000000 0.000000
vt -0.500000 -0.000000 0.000000
vt 0.300000 0.000000 0.000000
vt 0.000000 0.000000 0.000000
vt 0.300000 -0.300000 0.000000
vt -0.000000 -0.300000 0.000000
vt 0.500000 0.300000 0.000000
vt 0.000000 0.300000 0.000000
vt 0.500000 0.000000 0.000000
vt 0.000000 0.000000 0.000000
vt 0.500000 0.300000 0.000000
vt 0.000000 0.300000 0.000000
vt 0.500000 -0.000000 0.000000
vt 0.000000 0.000000 0.000000
vt -0.300000 -0.300000 0.000000
vt 0.000000 -0.300000 0.000000
vt -0.300000 0.000000 0.000000
vt -0.000000 0.000000 0.000000
vt -0.000000 0.300000 0.000000
vt -0.500000 0.300000 0.000000
vt -0.000000 0.000000 0.000000
vt -0.500000 -0.000000 0.000000
vt -0.000000 0.300000 0.000000
vt -0.500000 0.300000 0.000000
vt -0.000000 0.000000 0.000000
vt -0.500000 0.000000 0.000000
vt -0.300000 0.157080 0.000000
vt -0.000000 0.157080 0.000000
vt -0.300000 0.183260 0.000000
vt -0.000000 0.183260 0.000000
vt -0.300000 0.209440 0.000000
vt -0.000000 0.209440 0.000000
vt -0.300000 0.235619 0.000000
vt -0.000000 0.235619 0.000000
vt -0.300000 0.261799 0.000000
vt -0.000000 0.261799 0.000000
vt -0.300000 0.287979 0.000000
vt -0.000000 0.287979 0.000000
vt -0.300000 0.314159 0.000000
vt -0.000000 0.314159 0.000000
vt -0.300000 -0.314159 0.000000
vt -0.000000 -0.314159 0.000000
vt -0.300000 -0.287979 0.000000
vt -0.000000 -0.287979 0.000000
vt -0.300000 -0.261799 0.000000
vt -0.000000 -0.261799 0.000000
vt -0.300000 -0.235619 0.000000
vt -0.000000 -0.235619 0.000000
vt -0.300000 -0.209440 0.000000
vt -0.000000 -0.209440 0.000000
vt -0.300000 -0.183260 0.000000
vt -0.000000 -0.183260 0.000000
vt -0.300000 -0.157080 0.000000
vt -0.000000 -0.157080 0.000000
vt 0.300000 0.000000 0.000000
vt 0.000000 0.000000 0.000000
vt 0.300000 -0.650000 0.000000
vt 0.000000 -0.650000 0.000000
vt 0.300000 0.000000 0.000000
vt 0.000000 0.000000 0.000000
vt 0.300000 -0.073858 0.000000
vt 0.000000 -0.073858 0.000000
vt 0.300000 -0.147715 0.000000
vt 0.000000 -0.147715 0.000000
vt 0.300000 -0.221573 0.000000
vt 0.000000 -0.221573 0.000000
vt 0.300000 -0.295430 0.000000
vt 0.000000 -0.295430 0.000000
vt 0.300000 -0.369288 0.000000
vt 0.000000 -0.369288 0.000000
vt -0.300000 0.573190 0.000000
vt 0.000000 0.573190 0.000000
vt -0.300000 0.647048 0.000000
vt 0.000000 0.647048 0.000000
vt -0.300000 0.720905 0.000000
vt 0.000000 0.720905 0.000000
vt -0.300000 0.794763 0.000000
vt 0.000000 0.794763 0.000000
vt -0.300000 0.868620 0.000000
vt 0.000000 0.868620 0.000000
vt -0.300000 0.942478 0.000000
vt 0.000000 0.942478 0.000000
vt 0.300000 0.000000 0.000000
vt 0.000000 0.000000 0.000000
vt 0.300000 -0.650000 0.000000
vt 0.000000 -0.650000 0.000000
vt 0.200000 0.300000 0.000000
vt 0.198431 0.300000 0.000000
vt 0.200000 0.000000 0.000000
vt 0.198431 0.000000 0.000000
vt 0.300000 -0.254419 0.000000
vt 0.000000 -0.254419 0.000000
vt 0.300000 -0.326692 0.000000
vt 0.000000 -0.326692 0.000000
vt 0.300000 -0.398965 0.000000
vt 0.000000 -0.398965 0.000000
vt 0.300000 -0.471239 0.000000
vt 0.000000 -0.471239 0.000000
vt -0.300000 0.573190 0.000000
vt 0.000000 0.573190 0.000000
vt -0.300000 0.647048 0.000000
vt 0.000000 0.647048 0.000000
vt -0.300000 0.720905 0.000000
vt 0.000000 0.720905 0.000000
vt -0.300000 0.794763 0.000000
vt 0.000000 0.794763 0.000000
vt -0.300000 0.868620 0.000000
vt 0.000000 0.868620 0.000000
vt -0.300000 0.942478 0.000000
vt 0.000000 0.942478 0.000000
vt -0.050000 0.000000 0.000000
vt 0.000000 0.000000 0.000000
vt -0.050000 0.700000 0.000000
vt 0.000000 0.700000 0.000000
vt -0.700000 -0.050000 0.000000
vt 0.000000 -0.050000 0.000000
vt -0.700000 0.000000 0.000000
vt 0.000000 0.000000 0.000000
vt 0.050000 0.000000 0.000000
vt 0.000000 0.000000 0.000000
vt 0.050000 -0.700000 0.000000
vt 0.000000 -0.700000 0.000000
vt 0.050000 0.800000 0.000000
vt -0.000000 0.800000 0.000000
vt 0.050000 0.000000 0.000000
vt -0.000000 0.000000 0.000000
vt -0.000000 -0.050000 0.000000
vt 0.800000 -0.050000 0.000000
vt -0.000000 0.000000 0.000000
vt 0.800000 0.000000 0.000000
vt -0.050000 -0.800000 0.000000
vt -0.000000 -0.800000 0.000000
vt -0.050000 0.000000 0.000000
vt -0.000000 0.000000 0.000000
vt -0.000000 -0.050000 0.000000
vt 0.800000 -0.050000 0.000000
vt -0.000000 0.000000 0.000000
vt 0.800000 0.000000 0.000000
vt -0.700000 -0.050000 0.000000
vt 0.000000 -0.050000 0.000000
vt -0.700000 0.000000 0.000000
vt 0.000000 0.000000 0.000000
vt 1.100000 0.400000 0.000000
vt 1.050000 0.350000 0.000000
vt 1.100000 -0.400000 0.000000
vt 1.050000 -0.350000 0.000000
vt 0.350000 -0.350000 0.000000
vt 0.300000 0.400000 0.000000
vt 0.350000 0.350000 0.000000
vt 0.300000 -0.400000 0.000000
vt 0.050000 0.000000 0.000000
vt 0.000000 0.000000 0.000000
vt 0.050000 -0.381910 0.000000
vt 0.000000 -0.381910 0.000000
vt -0.056305 -0.050000 0.000000
vt 0.000000 -0.050000 0.000000
vt -0.056305 0.000000 0.000000
vt 0.000000 0.000000 0.000000
vt 1.036901 0.050000 0.000000
vt 0.885886 0.050000 0.000000
vt 1.036901 0.000000 0.000000
vt 0.885886 0.000000 0.000000
vt 0.734871 0.050000 0.000000
vt 0.734871 0.000000 0.000000
vt 0.583856 0.050000 0.000000
vt 0.583856 0.000000 0.000000
vt 0.432840 0.050000 0.000000
vt 0.432840 0.000000 0.000000
vt -0.050000 0.000000 0.000000
vt 0.000000 0.000000 0.000000
vt -0.050000 0.074571 0.000000
vt 0.000000 0.074571 0.000000
vt 1.875774 0.050000 0.000000
vt 1.722545 0.050000 0.000000
vt 1.875774 0.000000 0.000000
vt 1.722545 0.000000 0.000000
vt 1.569317 0.050000 0.000000
vt 1.569317 0.000000 0.000000
vt 1.416088 0.050000 0.000000
vt 1.416088 0.000000 0.000000
vt 1.262859 0.050000 0.000000
vt 1.262859 0.000000 0.000000
vt -0.050000 0.000000 0.000000
vt 0.000000 0.000000 0.000000
vt -0.050000 0.288923 0.000000
vt 0.000000 0.288923 0.000000
vt -0.069589 -0.050000 0.000000
vt 0.000000 -0.050000 0.000000
vt -0.069589 0.000000 0.000000
vt 0.000000 0.000000 0.000000
vt 0.230581 -0.147631 0.000000
vt 0.286886 -0.147631 0.000000
vt 0.217297 -0.054644 0.000000
vt 0.286886 0.234280 0.000000
vt 0.217297 0.234280 0.000000
vt 0.131316 -0.071774 0.000000
vt 0.106961 0.024486 0.000000
vt 0.000000 0.000000 0.000000
vt -0.030485 0.092598 0.000000
vt -0.139910 0.051434 0.000000
vt -0.174896 0.135930 0.000000
vt -0.295489 0.077289 0.000000
vt -0.295489 0.151860 0.000000
vn -1.000000 0.000000 0.000000
vn -1.000000 0.000000 0.000000
vn -1.000000 0.000000 0.000000
vn -1.000000 0.000000 0.000000
vn -1.000000 0.000000 0.000000
vn -1.000000 0.000000 0.000000
vn -1.000000 0.000000 0.000000
vn -1.000000 0.000000 0.000000
vn -1.000000 0.000000 0.000000
vn -1.000000 0.000000 0.000000
vn -1.000000 0.000000 0.000000
vn -1.000000 0.000000 0.000000
vn -1.000000 0.000000 0.000000
vn -1.000000 0.000000 0.000000
vn -1.000000 0.000000 0.000000
vn -1.000000 0.000000 0.000000
vn -1.000000 0.000000 0.000000
vn -0.000000 -0.000000 1.000000
vn -0.000000 -0.000000 1.000000
vn -0.000000 -0.000000 1.000000
vn -0.000000 -0.000000 1.000000
vn -0.000000 -0.000000 1.000000
vn -0.000000 -0.000000 1.000000
vn -0.000000 -0.000000 1.000000
vn -0.000000 -0.000000 1.000000
vn 0.000000 -0.000000 -1.000000
vn 0.000000 -0.000000 -1.000000
vn 0.000000 -0.000000 -1.000000
vn 0.000000 -0.000000 -1.000000
vn -1.000000 0.000000 0.000000
vn -1.000000 0.000000 0.000000
vn -1.000000 0.000000 0.000000
vn -1.000000 0.000000 0.000000
vn -1.000000 0.000000 0.000000
vn -1.000000 0.000000 0.000000
vn -1.000000 0.000000 0.000000
vn -1.000000 0.000000 0.000000
vn -1.000000 0.000000 0.000000
vn -1.000000 0.000000 0.000000
vn -1.000000 0.000000 0.000000
vn -1.000000 0.000000 0.000000
vn -1.000000 0.000000 0.000000
vn -1.000000 0.000000 0.000000
vn -1.000000 0.000000 0.000000
vn -1.000000 0.000000 0.000000
vn -1.000000 0.000000 0.000000
vn -1.000000 0.000000 0.000000
vn -1.000000 0.000000 0.000000
vn -1.000000 0.000000 0.000000
vn -1.000000 0.000000 0.000000
vn -1.000000 0.000000 0.000000
vn -1.000000 0.000000 0.000000
vn -1.000000 0.000000 0.000000
vn -1.000000 0.000000 0.000000
vn -1.000000 0.000000 0.000000
vn -1.000000 0.000000 0.000000
vn -1.000000 0.000000 0.000000
vn -1.000000 0.000000 0.000000
vn -1.000000 0.000000 0.000000
vn -1.000000 0.000000 0.000000
vn -1.000000 0.000000 0.000000
vn -1.000000 0.000000 0.000000
vn -1.000000 0.000000 0.000000
vn -1.000000 0.000000 0.000000
vn -1.000000 0.000000 0.000000
vn -1.000000 0.000000 0.000000
vn -1.000000 0.000000 0.000000
vn -1.000000 0.000000 0.000000
vn -1.000000 0.000000 0.000000
vn -1.000000 0.000000 0.000000
vn -1.000000 0.000000 0.000000
vn -1.000000 0.000000 0.000000
vn -1.000000 0.000000 0.000000
vn -1.000000 0.000000 0.000000
vn -1.000000 0.000000 0.000000
vn -1.000000 0.000000 0.000000
vn -1.000000 0.000000 0.000000
vn -1.000000 0.000000 0.000000
vn -1.000000 0.000000 0.000000
vn -1.000000 0.000000 0.000000
vn -1.000000 0.000000 0.000000
vn -1.000000 0.000000 0.000000
vn -1.000000 0.000000 0.000000
vn -1.000000 0.000000 0.000000
vn -1.000000 0.000000 0.000000
vn -1.000000 0.000000 0.000000
vn -1.000000 0.000000 0.000000
vn -1.000000 0.000000 0.000000
vn -1.000000 0.000000 0.000000
vn -1.000000 0.000000 0.000000
vn -1.000000 0.000000 0.000000
vn -1.000000 0.000000 0.000000
vn -1.000000 0.000000 0.000000
vn -1.000000 0.000000 0.000000
vn -1.000000 0.000000 0.000000
vn -1.000000 0.000000 0.000000
vn -1.000000 0.000000 0.000000
vn -1.000000 0.000000 0.000000
vn -1.000000 0.000000 0.000000
vn -1.000000 0.000000 0.000000
vn -1.000000 0.000000 0.000000
vn -1.000000 0.000000 0.000000
vn -1.000000 0.000000 0.000000
vn -1.000000 0.000000 0.000000
vn -1.000000 0.000000 0.000000
vn -1.000000 0.000000 0.000000
vn -1.000000 0.000000 0.000000
vn -1.000000 0.000000 0.000000
vn -1.000000 0.000000 0.000000
vn -1.000000 0.000000 0.000000
vn -1.000000 0.000000 0.000000
vn -1.000000 0.000000 0.000000
vn -1.000000 0.000000 0.000000
vn -1.000000 0.000000 0.000000
vn -1.000000 0.000000 0.000000
vn -1.000000 0.000000 0.000000
vn -1.000000 0.000000 0.000000
vn -1.000000 0.000000 0.000000
vn -1.000000 0.000000 0.000000
vn -1.000000 0.000000 0.000000
vn -1.000000 0.000000 0.000000
vn -1.000000 0.000000 0.000000
vn -1.000000 0.000000 0.000000
vn -1.000000 0.000000 0.000000
vn -1.000000 0.000000 0.000000
vn -1.000000 0.000000 0.000000
vn -1.000000 0.000000 0.000000
vn -1.000000 0.000000 0.000000
vn -1.000000 0.000000 0.000000
vn -1.000000 0.000000 0.000000
vn -1.000000 0.000000 0.000000
vn -1.000000 0.000000 0.000000
vn -1.000000 0.000000 0.000000
vn -1.000000 0.000000 0.000000
vn -1.000000 0.000000 0.000000
vn 1.000000 -0.000000 -0.000000
vn 1.000000 -0.000000 -0.000000
vn 1.000000 -0.000000 -0.000000
vn 1.000000 -0.000000 -0.000000
vn 1.000000 -0.000000 -0.000000
vn 1.000000 -0.000000 -0.000000
vn 1.000000 -0.000000 -0.000000
vn 1.000000 -0.000000 -0.000000
vn 1.000000 -0.000000 -0.000000
vn 1.000000 -0.000000 -0.000000
vn 1.000000 -0.000000 -0.000000
vn 1.000000 -0.000000 -0.000000
vn 1.000000 -0.000000 -0.000000
vn 1.000000 -0.000000 -0.000000
vn 1.000000 -0.000000 -0.000000
vn 1.000000 -0.000000 -0.000000
vn 1.000000 -0.000000 -0.000000
vn 1.000000 -0.000000 -0.000000
vn 1.000000 -0.000000 -0.000000
vn 1.000000 -0.000000 -0.000000
vn 1.000000 -0.000000 -0.000000
vn 1.000000 -0.000000 -0.000000
vn 1.000000 -0.000000 -0.000000
vn 1.000000 -0.000000 -0.000000
vn 1.000000 -0.000000 -0.000000
vn 1.000000 -0.000000 -0.000000
vn 1.000000 -0.000000 -0.000000
vn 1.000000 -0.000000 -0.000000
vn 1.000000 -0.000000 -0.000000
vn 1.000000 -0.000000 -0.000000
vn 1.000000 -0.000000 -0.000000
vn 1.000000 -0.000000 -0.000000
vn 1.000000 -0.000000 -0.000000
vn 1.000000 -0.000000 -0.000000
vn 1.000000 -0.000000 -0.000000
vn 1.000000 -0.000000 -0.000000
vn 1.000000 -0.000000 -0.000000
vn 1.000000 -0.000000 -0.000000
vn 1.000000 -0.000000 -0.000000
vn 1.000000 -0.000000 -0.000000
vn 1.000000 -0.000000 -0.000000
vn 1.000000 -0.000000 -0.000000
vn 1.000000 -0.000000 -0.000000
vn 1.000000 -0.000000 -0.000000
vn 1.000000 -0.000000 -0.000000
vn 1.000000 -0.000000 -0.000000
vn 1.000000 -0.000000 -0.000000
vn 1.000000 -0.000000 -0.000000
vn 1.000000 -0.000000 -0.000000
vn 1.000000 -0.000000 -0.000000
vn 1.000000 -0.000000 -0.000000
vn 1.000000 -0.000000 -0.000000
vn 1.000000 -0.000000 -0.000000
vn 1.000000 -0.000000 -0.000000
vn 1.000000 -0.000000 -0.000000
vn 1.000000 -0.000000 -0.000000
vn 1.000000 -0.000000 -0.000000
vn 1.000000 -0.000000 -0.000000
vn 1.000000 -0.000000 -0.000000
vn 1.000000 -0.000000 -0.000000
vn 1.000000 -0.000000 -0.000000
vn 1.000000 -0.000000 -0.000000
vn 1.000000 -0.000000 -0.000000
vn 1.000000 -0.000000 -0.000000
vn 1.000000 -0.000000 -0.000000
vn 1.000000 -0.000000 -0.000000
vn 1.000000 -0.000000 -0.000000
vn 1.000000 -0.000000 -0.000000
vn 1.000000 -0.000000 -0.000000
vn 1.000000 -0.000000 -0.000000
vn 1.000000 -0.000000 -0.000000
vn 1.000000 -0.000000 -0.000000
vn 1.000000 -0.000000 -0.000000
vn 1.000000 -0.000000 -0.000000
vn 1.000000 -0.000000 -0.000000
vn 1.000000 -0.000000 -0.000000
vn 1.000000 -0.000000 -0.000000
vn 1.000000 -0.000000 -0.000000
vn 1.000000 -0.000000 -0.000000
vn 1.000000 -0.000000 -0.000000
vn 1.000000 -0.000000 -0.000000
vn 1.000000 -0.000000 -0.000000
vn 1.000000 -0.000000 -0.000000
vn 1.000000 -0.000000 -0.000000
vn 1.000000 -0.000000 -0.000000
vn 1.000000 -0.000000 -0.000000
vn 1.000000 -0.000000 -0.000000
vn 1.000000 -0.000000 -0.000000
vn 1.000000 -0.000000 -0.000000
vn 1.000000 -0.000000 -0.000000
vn 1.000000 -0.000000 -0.000000
vn 1.000000 -0.000000 -0.000000
vn 1.000000 -0.000000 -0.000000
vn 1.000000 -0.000000 -0.000000
vn 1.000000 -0.000000 -0.000000
vn 1.000000 -0.000000 -0.000000
vn 1.000000 -0.000000 -0.000000
vn 1.000000 -0.000000 -0.000000
vn 1.000000 -0.000000 -0.000000
vn 1.000000 -0.000000 -0.000000
vn 1.000000 -0.000000 -0.000000
vn 1.000000 -0.000000 -0.000000
vn -0.000000 -0.000000 1.000000
vn -0.000000 -0.000000 1.000000
vn -0.000000 -0.000000 1.000000
vn -0.000000 -0.000000 1.000000
vn 0.000000 -0.000000 -1.000000
vn 0.000000 -0.000000 -1.000000
vn 0.000000 -0.000000 -1.000000
vn 0.000000 -0.000000 -1.000000
vn -0.000000 -0.000000 1.000000
vn -0.000000 -0.000000 1.000000
vn -0.000000 -0.000000 1.000000
vn -0.000000 -0.000000 1.000000
vn -0.000000 1.000000 -0.000000
vn -0.000000 1.000000 -0.000000
vn -0.000000 1.000000 -0.000000
vn -0.000000 1.000000 -0.000000
vn 0.000000 -0.000000 -1.000000
vn 0.000000 -0.000000 -1.000000
vn 0.000000 -0.000000 -1.000000
vn 0.000000 -0.000000 -1.000000
vn -0.000000 -1.000000 -0.000000
vn -0.000000 -1.000000 -0.000000
vn -0.000000 -1.000000 -0.000000
vn -0.000000 -1.000000 -0.000000
vn -0.000000 -0.258819 -0.965926
vn -0.000000 -0.258819 -0.965926
vn -0.000000 0.000000 -1.000000
vn -0.000000 0.000000 -1.000000
vn 0.000000 0.258819 -0.965926
vn 0.000000 0.258819 -0.965926
vn 0.000000 0.500000 -0.866025
vn 0.000000 0.500000 -0.866025
vn 0.000000 0.707107 -0.707107
vn 0.000000 0.707107 -0.707107
vn 0.000000 0.866025 -0.500000
vn 0.000000 0.866025 -0.500000
vn 0.000000 0.965926 -0.258819
vn 0.000000 0.965926 -0.258819
vn 0.000000 1.000000 -0.000000
vn 0.000000 1.000000 -0.000000
vn 0.000000 0.965926 0.258819
vn 0.000000 0.965926 0.258819
vn 0.000000 0.866025 0.500000
vn 0.000000 0.866025 0.500000
vn 0.000000 0.707107 0.707107
vn 0.000000 0.707107 0.707107
vn 0.000000 0.500000 0.866025
vn 0.000000 0.500000 0.866025
vn 0.000000 0.258819 0.965926
vn 0.000000 0.258819 0.965926
vn 0.000000 0.000000 1.000000
vn 0.000000 0.000000 1.000000
vn 0.000000 -0.258819 0.965926
vn 0.000000 -0.258819 0.965926
vn 0.000000 -0.500000 0.866025
vn 0.000000 -0.500000 0.866025
vn 0.000000 -0.707107 0.707107
vn 0.000000 -0.707107 0.707107
vn 0.000000 -0.866025 0.500000
vn 0.000000 -0.866025 0.500000
vn 0.000000 -0.965926 0.258819
vn 0.000000 -0.965926 0.258819
vn -0.000000 -1.000000 -0.000000
vn -0.000000 -1.000000 -0.000000
vn -0.000000 -0.965926 -0.258819
vn -0.000000 -0.965926 -0.258819
vn -0.000000 -0.866025 -0.500000
vn -0.000000 -0.866025 -0.500000
vn -0.000000 -0.707107 -0.707107
vn -0.000000 -0.707107 -0.707107
vn -0.000000 -0.500000 -0.866025
vn -0.000000 -0.500000 -0.866025
vn -0.000000 -0.258819 -0.965926
vn -0.000000 -0.258819 -0.965926
vn -0.000000 0.000000 -1.000000
vn -0.000000 0.000000 -1.000000
vn 0.000000 0.258819 -0.965926
vn 0.000000 0.258819 -0.965926
vn 0.000000 0.500000 -0.866025
vn 0.000000 0.500000 -0.866025
vn 0.000000 0.707107 -0.707107
vn 0.000000 0.707107 -0.707107
vn 0.000000 0.866025 -0.500000
vn 0.000000 0.866025 -0.500000
vn 0.000000 0.965926 -0.258819
vn 0.000000 0.965926 -0.258819
vn 0.000000 1.000000 -0.000000
vn 0.000000 1.000000 -0.000000
vn 0.000000 0.965926 0.258819
vn 0.000000 0.965926 0.258819
vn 0.000000 0.866025 0.500000
vn 0.000000 0.866025 0.500000
vn 0.000000 0.707107 0.707107
vn 0.000000 0.707107 0.707107
vn 0.000000 0.500000 0.866025
vn 0.000000 0.500000 0.866025
vn 0.000000 0.258819 0.965926
vn 0.000000 0.258819 0.965926
vn 0.000000 0.000000 1.000000
vn 0.000000 0.000000 1.000000
vn 0.000000 -0.258819 0.965926
vn 0.000000 -0.258819 0.965926
vn 0.000000 -0.500000 0.866025
vn 0.000000 -0.500000 0.866025
vn 0.000000 -0.707107 0.707107
vn 0.000000 -0.707107 0.707107
vn 0.000000 -0.866025 0.500000
vn 0.000000 -0.866025 0.500000
vn 0.000000 -0.965926 0.258819
vn 0.000000 -0.965926 0.258819
vn -0.000000 -1.000000 -0.000000
vn -0.000000 -1.000000 -0.000000
vn -0.000000 -0.965926 -0.258819
vn -0.000000 -0.965926 -0.258819
vn -0.000000 -0.866025 -0.500000
vn -0.000000 -0.866025 -0.500000
vn -0.000000 -0.707107 -0.707107
vn -0.000000 -0.707107 -0.707107
vn -0.000000 -0.500000 -0.866025
vn -0.000000 -0.500000 -0.866025
vn 0.000000 -0.000000 -1.000000
vn 0.000000 -0.000000 -1.000000
vn 0.000000 -0.000000 -1.000000
vn 0.000000 -0.000000 -1.000000
vn 0.000000 -1.000000 0.000000
vn 0.000000 -1.000000 0.000000
vn 0.000000 -1.000000 0.000000
vn 0.000000 -1.000000 0.000000
vn 0.000000 1.000000 0.000000
vn 0.000000 1.000000 0.000000
vn 0.000000 1.000000 0.000000
vn 0.000000 1.000000 0.000000
vn -0.000000 -0.000000 1.000000
vn -0.000000 -0.000000 1.000000
vn -0.000000 -0.000000 1.000000
vn -0.000000 -0.000000 1.000000
vn -0.000000 -1.000000 -0.000000
vn -0.000000 -1.000000 -0.000000
vn -0.000000 -1.000000 -0.000000
vn -0.000000 -1.000000 -0.000000
vn -0.000000 1.000000 0.000000
vn -0.000000 1.000000 0.000000
vn -0.000000 1.000000 0.000000
vn -0.000000 1.000000 0.000000
vn 0.000000 0.000000 1.000000
vn 0.000000 0.000000 1.000000
vn 0.000000 0.000000 1.000000
vn 0.000000 0.000000 1.000000
vn 0.000000 1.000000 -0.000000
vn 0.000000 1.000000 -0.000000
vn 0.000000 1.000000 -0.000000
vn 0.000000 1.000000 -0.000000
vn 0.000000 -1.000000 0.000000
vn 0.000000 -1.000000 0.000000
vn 0.000000 -1.000000 0.000000
vn 0.000000 -1.000000 0.000000
vn 0.000000 0.000000 -1.000000
vn 0.000000 0.000000 -1.000000
vn 0.000000 0.000000 -1.000000
vn 0.000000 0.000000 -1.000000
vn -0.000000 1.000000 0.000000
vn -0.000000 1.000000 0.000000
vn -0.000000 1.000000 0.000000
vn -0.000000 1.000000 0.000000
vn -0.000000 -1.000000 0.000000
vn -0.000000 -1.000000 0.000000
vn -0.000000 -1.000000 0.000000
vn -0.000000 -1.000000 0.000000
vn -0.000000 0.965926 0.258819
vn -0.000000 0.965926 0.258819
vn -0.000000 0.866025 0.500000
vn -0.000000 0.866025 0.500000
vn -0.000000 0.707107 0.707107
vn -0.000000 0.707107 0.707107
vn -0.000000 0.500000 0.866025
vn -0.000000 0.500000 0.866025
vn -0.000000 0.258819 0.965926
vn -0.000000 0.258819 0.965926
vn -0.000000 -0.258819 0.965926
vn -0.000000 -0.258819 0.965926
vn -0.000000 -0.500000 0.866025
vn -0.000000 -0.500000 0.866025
vn -0.000000 -0.707107 0.707107
vn -0.000000 -0.707107 0.707107
vn -0.000000 -0.866025 0.500000
vn -0.000000 -0.866025 0.500000
vn -0.000000 -0.965926 0.258819
vn -0.000000 -0.965926 0.258819
vn -0.000000 0.000000 1.000000
vn -0.000000 0.000000 1.000000
vn -0.000000 0.000000 1.000000
vn -0.000000 0.000000 1.000000
vn 0.000000 0.243712 0.969848
vn 0.000000 0.243712 0.969848
vn 0.000000 0.472728 0.881208
vn 0.000000 0.472728 0.881208
vn 0.000000 0.673235 0.739428
vn 0.000000 0.673235 0.739428
vn 0.000000 0.833144 0.553057
vn 0.000000 0.833144 0.553057
vn 0.000000 0.942809 0.333333
vn 0.000000 0.942809 0.333333
vn 0.000000 -0.942809 0.333333
vn 0.000000 -0.942809 0.333333
vn 0.000000 -0.833144 0.553057
vn 0.000000 -0.833144 0.553057
vn 0.000000 -0.673235 0.739428
vn 0.000000 -0.673235 0.739428
vn 0.000000 -0.472728 0.881208
vn 0.000000 -0.472728 0.881208
vn 0.000000 -0.243712 0.969848
vn 0.000000 -0.243712 0.969848
vn -0.000000 0.000000 1.000000
vn -0.000000 0.000000 1.000000
vn -0.000000 0.000000 1.000000
vn -0.000000 0.000000 1.000000
vn 0.000000 1.000000 0.000000
vn 0.000000 1.000000 0.000000
vn 0.000000 1.000000 0.000000
vn 0.000000 1.000000 0.000000
vn -0.000000 0.750000 0.661438
vn -0.000000 0.750000 0.661438
vn -0.000000 0.886152 0.463395
vn -0.000000 0.886152 0.463395
vn -0.000000 0.971121 0.238588
vn -0.000000 0.971121 0.238588
vn 0.000000 -0.942809 0.333333
vn 0.000000 -0.942809 0.333333
vn 0.000000 -0.833144 0.553057
vn 0.000000 -0.833144 0.553057
vn 0.000000 -0.673235 0.739428
vn 0.000000 -0.673235 0.739428
vn 0.000000 -0.472728 0.881208
vn 0.000000 -0.472728 0.881208
vn 0.000000 -0.243712 0.969848
vn 0.000000 -0.243712 0.969848
vn 0.000000 -0.000000 1.000000
vn 0.000000 -0.000000 1.000000
vn 0.000000 -0.000000 1.000000
vn 0.000000 -0.000000 1.000000
vn 0.000000 -1.000000 0.000000
vn 0.000000 -1.000000 0.000000
vn 0.000000 -1.000000 0.000000
vn 0.000000 -1.000000 0.000000
vn -0.000000 -0.000000 -1.000000
vn -0.000000 -0.000000 -1.000000
vn -0.000000 -0.000000 -1.000000
vn -0.000000 -0.000000 -1.000000
vn -0.000000 0.000000 -1.000000
vn -0.000000 0.000000 -1.000000
vn -0.000000 0.000000 -1.000000
vn -0.000000 0.000000 -1.000000
vn -0.000000 -1.000000 -0.000000
vn -0.000000 -1.000000 -0.000000
vn -0.000000 -1.000000 -0.000000
vn -0.000000 -1.000000 -0.000000
vn 0.000000 0.000000 1.000000
vn 0.000000 0.000000 1.000000
vn 0.000000 0.000000 1.000000
vn 0.000000 0.000000 1.000000
vn -0.000000 1.000000 -0.000000
vn -0.000000 1.000000 -0.000000
vn -0.000000 1.000000 -0.000000
vn -0.000000 1.000000 -0.000000
vn 0.000000 1.000000 0.000000
vn 0.000000 1.000000 0.000000
vn 0.000000 1.000000 0.000000
vn 0.000000 1.000000 0.000000
vn -1.000000 0.000000 0.000000
vn -1.000000 0.000000 0.000000
vn -1.000000 0.000000 0.000000
vn -1.000000 0.000000 0.000000
vn -1.000000 0.000000 0.000000
vn -1.000000 0.000000 0.000000
vn -1.000000 0.000000 0.000000
vn -1.000000 0.000000 0.000000
vn 0.000000 0.000000 -1.000000
vn 0.000000 0.000000 -1.000000
vn 0.000000 0.000000 -1.000000
vn 0.000000 0.000000 -1.000000
vn -0.000000 1.000000 0.000000
vn -0.000000 1.000000 0.000000
vn -0.000000 1.000000 0.000000
vn -0.000000 1.000000 0.000000
vn 0.000000 0.997774 0.066689
vn 0.000000 0.963160 0.268930
vn 0.000000 0.997774 0.066689
vn 0.000000 0.963160 0.268930
vn 0.000000 0.910059 0.414479
vn 0.000000 0.910059 0.414479
vn 0.000000 0.841465 0.540311
vn 0.000000 0.841465 0.540311
vn 0.000000 0.728765 0.684764
vn 0.000000 0.728765 0.684764
vn 0.000000 0.000000 1.000000
vn 0.000000 0.000000 1.000000
vn 0.000000 0.000000 1.000000
vn 0.000000 0.000000 1.000000
vn -0.000000 -0.751736 -0.659465
vn -0.000000 -0.858329 -0.513100
vn -0.000000 -0.751736 -0.659465
vn -0.000000 -0.858329 -0.513100
vn -0.000000 -0.929991 -0.367583
vn -0.000000 -0.929991 -0.367583
vn -0.000000 -0.977138 -0.212607
vn -0.000000 -0.977138 -0.212607
vn -0.000000 -0.999809 -0.019540
vn -0.000000 -0.999809 -0.019540
vn 0.000000 0.000000 1.000000
vn 0.000000 0.000000 1.000000
vn 0.000000 0.000000 1.000000
vn 0.000000 0.000000 1.000000
vn 0.000000 -1.000000 0.000000
vn 0.000000 -1.000000 0.000000
vn 0.000000 -1.000000 0.000000
vn 0.000000 -1.000000 0.000000
vn -1.000000 -0.000000 -0.000000
vn -1.000000 -0.000000 -0.000000
vn -1.000000 -0.000000 -0.000000
vn -1.000000 -0.000000 -0.000000
vn -1.000000 -0.000000 -0.000000
vn -1.000000 -0.000000 -0.000000
vn -1.000000 -0.000000 -0.000000
vn -1.000000 -0.000000 -0.000000
vn -1.000000 -0.000000 -0.000000
vn -1.000000 -0.000000 -0.000000
vn -1.000000 -0.000000 -0.000000
vn -1.000000 -0.000000 -0.000000
vn -1.000000 -0.000000 -0.000000
usemtl Opaque(65,96,255)
f 2/1/1 8/2/2 1/3/3
f 1/3/3 8/2/2 9/4/4
f 1/3/3 9/4/4 10/5/5
f 8/2/2 2/1/1 7/6/6
f 7/6/6 2/1/1 3/7/7
f 7/6/6 3/7/7 6/8/8
f 6/8/8 3/7/7 5/9/9
f 5/9/9 3/7/7 4/10/10
f 5/9/9 4/10/10 14/11/11
f 14/11/11 4/10/10 13/12/12
f 13/12/12 4/10/10 12/13/13
f 12/13/13 4/10/10 1/3/3
f 12/13/13 1/3/3 11/14/14
f 11/14/14 1/3/3 10/5/5
f 14/11/11 15/15/15 5/9/9
f 5/9/9 15/15/15 16/16/16
f 5/9/9 16/16/16 17/17/17
f 19/18/18 20/19/19 18/20/20
f 18/20/20 20/19/19 21/21/21
f 23/22/22 24/23/23 22/24/24
f 22/24/24 24/23/23 25/25/25
f 26/26/26 27/27/27 29/28/28
f 29/28/28 27/27/27 28/29/29
f 31/30/30 33/31/31 30/32/32
f 30/32/32 33/31/31 34/33/33
f 30/32/32 34/33/33 35/34/34
f 31/30/30 32/35/35 33/31/31
f 35/34/34 36/36/36 30/32/32
f 30/32/32 36/36/36 37/37/37
f 30/32/32 37/37/37 77/38/38
f 77/38/38 37/37/37 101/39/39
f 77/38/38 101/39/39 102/40/40
f 101/39/39 37/37/37 100/41/41
f 100/41/41 37/37/37 28/42/42
f 100/41/41 28/42/42 99/43/43
f 99/43/43 28/42/42 38/44/44
f 99/43/43 38/44/44 98/45/45
f 98/45/45 38/44/44 97/46/46
f 97/46/46 38/44/44 96/47/47
f 96/47/47 38/44/44 95/48/48
f 95/48/48 38/44/44 94/49/49
f 94/49/49 38/44/44 39/50/50
f 94/49/49 39/50/50 93/51/51
f 93/51/51 39/50/50 92/52/52
f 92/52/52 39/50/50 78/53/53
f 92/52/52 78/53/53 91/54/54
f 91/54/54 78/53/53 90/55/55
f 90/55/55 78/53/53 89/56/56
f 89/56/56 78/53/53 88/57/57
f 88/57/57 78/53/53 87/58/58
f 87/58/58 78/53/53 86/59/59
f 86/59/59 78/53/53 85/60/60
f 85/60/60 78/53/53 84/61/61
f 84/61/61 78/53/53 76/62/62
f 84/61/61 76/62/62 83/63/63
f 83/63/63 76/62/62 82/64/64
f 82/64/64 76/62/62 77/38/38
f 82/64/64 77/38/38 105/65/65
f 105/65/65 77/38/38 104/66/66
f 104/66/66 77/38/38 103/67/67
f 103/67/67 77/38/38 102/40/40
f 28/42/42 27/68/68 38/44/44
f 78/53/53 39/50/50 81/69/69
f 81/69/69 39/50/50 40/70/70
f 81/69/69 40/70/70 41/71/71
f 81/69/69 41/71/71 80/72/72
f 80/72/72 41/71/71 42/73/73
f 80/72/72 42/73/73 79/74/74
f 79/74/74 42/73/73 120/75/75
f 79/74/74 120/75/75 121/76/76
f 43/77/77 118/78/78 42/73/73
f 42/73/73 118/78/78 119/79/79
f 42/73/73 119/79/79 120/75/75
f 44/80/80 45/81/81 43/77/77
f 43/77/77 45/81/81 113/82/82
f 43/77/77 113/82/82 114/83/83
f 113/82/82 45/81/81 112/84/84
f 112/84/84 45/81/81 46/85/85
f 112/84/84 46/85/85 111/86/86
f 111/86/86 46/85/85 54/87/87
f 111/86/86 54/87/87 110/88/88
f 110/88/88 54/87/87 109/89/89
f 109/89/89 54/87/87 108/90/90
f 108/90/90 54/87/87 107/91/91
f 107/91/91 54/87/87 106/92/92
f 106/92/92 54/87/87 55/93/93
f 106/92/92 55/93/93 129/94/94
f 129/94/94 55/93/93 128/95/95
f 128/95/95 55/93/93 79/74/74
f 128/95/95 79/74/74 127/96/96
f 127/96/96 79/74/74 126/97/97
f 126/97/97 79/74/74 125/98/98
f 125/98/98 79/74/74 124/99/99
f 124/99/99 79/74/74 123/100/100
f 123/100/100 79/74/74 122/101/101
f 122/101/101 79/74/74 121/76/76
f 54/87/87 46/85/85 53/102/102
f 53/102/102 46/85/85 47/103/103
f 53/102/102 47/103/103 48/104/104
f 48/104/104 49/105/105 53/102/102
f 53/102/102 49/105/105 50/106/106
f 53/102/102 50/106/106 52/107/107
f 52/107/107 50/106/106 51/108/108
f 25/109/109 24/110/110 55/93/93
f 55/93/93 24/110/110 21/111/111
f 55/93/93 21/111/111 79/74/74
f 79/74/74 21/111/111 78/53/53
f 78/53/53 21/111/111 20/112/112
f 78/53/53 20/112/112 76/62/62
f 76/62/62 20/112/112 75/113/113
f 75/113/113 20/112/112 66/114/114
f 75/113/113 66/114/114 67/115/115
f 24/110/110 56/116/116 21/111/111
f 21/111/111 56/116/116 65/117/117
f 65/117/117 56/116/116 57/118/118
f 65/117/117 57/118/118 64/119/119
f 64/119/119 57/118/118 58/120/120
f 64/119/119 58/120/120 63/121/121
f 63/121/121 58/120/120 59/122/122
f 63/121/121 59/122/122 62/123/123
f 62/123/123 59/122/122 61/124/124
f 61/124/124 59/122/122 60/125/125
f 75/113/113 67/115/115 74/126/126
f 74/126/126 67/115/115 68/127/127
f 74/126/126 68/127/127 69/128/128
f 74/126/126 69/128/128 73/129/129
f 73/129/129 69/128/128 70/130/130
f 73/129/129 70/130/130 72/131/131
f 72/131/131 70/130/130 71/132/132
f 114/83/83 115/133/133 43/77/77
f 43/77/77 115/133/133 116/134/134
f 43/77/77 116/134/134 117/135/135
f 117/135/135 118/78/78 43/77/77
f 130/136/136 184/137/137 29/138/138
f 29/138/138 184/137/137 185/139/139
f 29/138/138 185/139/139 177/140/140
f 177/140/140 185/139/139 186/141/141
f 177/140/140 186/141/141 187/142/142
f 131/143/143 137/144/144 130/136/136
f 130/136/136 137/144/144 138/145/145
f 130/136/136 138/145/145 183/146/146
f 183/146/146 138/145/145 182/147/147
f 182/147/147 138/145/145 181/148/148
f 181/148/148 138/145/145 180/149/149
f 180/149/149 138/145/145 179/150/150
f 179/150/150 138/145/145 178/151/151
f 178/151/151 138/145/145 139/152/152
f 178/151/151 139/152/152 201/153/153
f 201/153/153 139/152/152 200/154/154
f 200/154/154 139/152/152 199/155/155
f 199/155/155 139/152/152 18/156/156
f 199/155/155 18/156/156 198/157/157
f 198/157/157 18/156/156 197/158/158
f 197/158/158 18/156/156 207/159/159
f 197/158/158 207/159/159 196/160/160
f 196/160/160 207/159/159 208/161/161
f 196/160/160 208/161/161 209/162/162
f 131/143/143 132/163/163 137/144/144
f 137/144/144 132/163/163 133/164/164
f 137/144/144 133/164/164 134/165/165
f 135/166/166 136/167/167 134/165/165
f 134/165/165 136/167/167 137/144/144
f 18/156/156 139/152/152 19/168/168
f 19/168/168 139/152/152 140/169/169
f 19/168/168 140/169/169 149/170/170
f 149/170/170 140/169/169 148/171/171
f 148/171/171 140/169/169 141/172/172
f 148/171/171 141/172/172 147/173/173
f 147/173/173 141/172/172 146/174/174
f 146/174/174 141/172/172 142/175/175
f 146/174/174 142/175/175 145/176/176
f 145/176/176 142/175/175 143/177/177
f 145/176/176 143/177/177 144/178/178
f 150/179/179 159/180/180 18/156/156
f 18/156/156 159/180/180 23/181/181
f 18/156/156 23/181/181 160/182/182
f 160/182/182 23/181/181 22/183/183
f 159/180/180 150/179/179 158/184/184
f 158/184/184 150/179/179 151/185/185
f 158/184/184 151/185/185 157/186/186
f 157/186/186 151/185/185 152/187/187
f 157/186/186 152/187/187 156/188/188
f 156/188/188 152/187/187 153/189/189
f 156/188/188 153/189/189 154/190/190
f 154/190/190 155/191/191 156/188/188
f 161/192/192 202/193/193 160/182/182
f 160/182/182 202/193/193 203/194/194
f 160/182/182 203/194/194 204/195/195
f 162/196/196 169/197/197 161/192/192
f 161/192/192 169/197/197 221/198/198
f 161/192/192 221/198/198 222/199/199
f 163/200/200 165/201/201 162/196/196
f 162/196/196 165/201/201 166/202/202
f 162/196/196 166/202/202 167/203/203
f 163/200/200 164/204/204 165/201/201
f 167/203/203 168/205/205 162/196/196
f 162/196/196 168/205/205 169/197/197
f 221/198/198 169/197/197 220/206/206
f 220/206/206 169/197/197 170/207/207
f 220/206/206 170/207/207 219/208/208
f 219/208/208 170/207/207 172/209/209
f 219/208/208 172/209/209 218/210/210
f 218/210/210 172/209/209 217/211/211
f 217/211/211 172/209/209 216/212/212
f 216/212/212 172/209/209 215/213/213
f 215/213/213 172/209/209 214/214/214
f 214/214/214 172/209/209 173/215/215
f 214/214/214 173/215/215 213/216/216
f 213/216/216 173/215/215 212/217/217
f 212/217/217 173/215/215 211/218/218
f 211/218/218 173/215/215 210/219/219
f 210/219/219 173/215/215 176/220/220
f 210/219/219 176/220/220 194/221/221
f 194/221/221 176/220/220 193/222/222
f 193/222/222 176/220/220 192/223/223
f 192/223/223 176/220/220 191/224/224
f 191/224/224 176/220/220 190/225/225
f 190/225/225 176/220/220 177/140/140
f 190/225/225 177/140/140 189/226/226
f 189/226/226 177/140/140 188/227/227
f 188/227/227 177/140/140 187/142/142
f 170/207/207 171/228/228 172/209/209
f 173/215/215 174/229/229 176/220/220
f 176/220/220 174/229/229 175/230/230
f 177/140/140 26/231/231 29/138/138
f 183/146/146 184/137/137 130/136/136
f 194/221/221 195/232/232 210/219/219
f 210/219/219 195/232/232 209/162/162
f 209/162/162 195/232/232 196/160/160
f 204/195/195 205/233/233 160/182/182
f 160/182/182 205/233/233 18/156/156
f 205/233/233 206/234/234 18/156/156
f 18/156/156 206/234/234 207/159/159
f 222/199/199 223/235/235 161/192/192
f 161/192/192 223/235/235 224/236/236
f 161/192/192 224/236/236 225/237/237
f 225/237/237 202/193/193 161/192/192
f 52/238/238 163/239/239 53/240/240
f 53/240/240 163/239/239 162/241/241
f 40/242/242 175/243/243 41/244/244
f 41/244/244 175/243/243 174/245/245
f 136/246/246 31/247/247 137/248/248
f 137/248/248 31/247/247 30/249/249
f 28/250/250 37/251/251 29/252/252
f 29/252/252 37/251/251 130/253/253
f 44/254/254 171/255/255 45/256/256
f 45/256/256 171/255/255 170/257/257
f 170/258/258 169/259/259 45/260/260
f 45/260/260 169/259/259 46/261/261
f 129/262/262 203/263/263 106/264/264
f 106/264/264 203/263/263 202/265/265
f 106/264/264 202/265/265 107/266/266
f 107/266/266 202/265/265 225/267/267
f 107/266/266 225/267/267 108/268/268
f 108/268/268 225/267/267 224/269/269
f 108/268/268 224/269/269 109/270/270
f 109/270/270 224/269/269 223/271/271
f 109/270/270 223/271/271 110/272/272
f 110/272/272 223/271/271 222/273/273
f 110/272/272 222/273/273 111/274/274
f 111/274/274 222/273/273 221/275/275
f 111/274/274 221/275/275 112/276/276
f 112/276/276 221/275/275 220/277/277
f 112/276/276 220/277/277 113/278/278
f 113/278/278 220/277/277 219/279/279
f 113/278/278 219/279/279 114/280/280
f 114/280/280 219/279/279 218/281/281
f 114/280/280 218/281/281 115/282/282
f 115/282/282 218/281/281 217/283/283
f 115/282/282 217/283/283 116/284/284
f 116/284/284 217/283/283 216/285/285
f 116/284/284 216/285/285 117/286/286
f 117/286/286 216/285/285 215/287/287
f 117/286/286 215/287/287 118/288/288
f 118/288/288 215/287/287 214/289/289
f 118/290/288 214/291/289 119/292/290
f 119/292/290 214/291/289 213/293/291
f 119/292/290 213/293/291 120/294/292
f 120/294/292 213/293/291 212/295/293
f 120/294/292 212/295/293 121/296/294
f 121/296/294 212/295/293 211/297/295
f 121/296/294 211/297/295 122/298/296
f 122/298/296 211/297/295 210/299/297
f 122/298/296 210/299/297 123/300/298
f 123/300/298 210/299/297 209/301/299
f 123/300/298 209/301/299 124/302/300
f 124/302/300 209/301/299 208/303/301
f 124/302/300 208/303/301 125/304/302
f 125/304/302 208/303/301 207/305/303
f 125/304/302 207/305/303 126/306/304
f 126/306/304 207/305/303 206/307/305
f 126/306/304 206/307/305 127/308/306
f 127/308/306 206/307/305 205/309/307
f 127/308/306 205/309/307 128/310/308
f 128/310/308 205/309/307 204/311/309
f 128/310/308 204/311/309 129/262/262
f 129/262/262 204/311/309 203/263/263
f 105/312/310 179/313/311 82/314/312
f 82/314/312 179/313/311 178/315/313
f 82/314/312 178/315/313 83/316/314
f 83/316/314 178/315/313 201/317/315
f 83/316/314 201/317/315 84/318/316
f 84/318/316 201/317/315 200/319/317
f 84/318/316 200/319/317 85/320/318
f 85/320/318 200/319/317 199/321/319
f 85/320/318 199/321/319 86/322/320
f 86/322/320 199/321/319 198/323/321
f 86/322/320 198/323/321 87/324/322
f 87/324/322 198/323/321 197/325/323
f 87/324/322 197/325/323 88/326/324
f 88/326/324 197/325/323 196/327/325
f 88/326/324 196/327/325 89/328/326
f 89/328/326 196/327/325 195/329/327
f 89/328/326 195/329/327 90/330/328
f 90/330/328 195/329/327 194/331/329
f 90/330/328 194/331/329 91/332/330
f 91/332/330 194/331/329 193/333/331
f 91/332/330 193/333/331 92/334/332
f 92/334/332 193/333/331 192/335/333
f 92/334/332 192/335/333 93/336/334
f 93/336/334 192/335/333 191/337/335
f 93/336/334 191/337/335 94/338/336
f 94/338/336 191/337/335 190/339/337
f 94/340/336 190/341/337 95/342/338
f 95/342/338 190/341/337 189/343/339
f 95/342/338 189/343/339 96/344/340
f 96/344/340 189/343/339 188/345/341
f 96/344/340 188/345/341 97/346/342
f 97/346/342 188/345/341 187/347/343
f 97/346/342 187/347/343 98/348/344
f 98/348/344 187/347/343 186/349/345
f 98/348/344 186/349/345 99/350/346
f 99/350/346 186/349/345 185/351/347
f 99/350/346 185/351/347 100/352/348
f 100/352/348 185/351/347 184/353/349
f 100/352/348 184/353/349 101/354/350
f 101/354/350 184/353/349 183/355/351
f 101/354/350 183/355/351 102/356/352
f 102/356/352 183/355/351 182/357/353
f 102/356/352 182/357/353 103/358/354
f 103/358/354 182/357/353 181/359/355
f 103/358/354 181/359/355 104/360/356
f 104/360/356 181/359/355 180/361/357
f 104/360/356 180/361/357 105/312/310
f 105/312/310 180/361/357 179/313/311
f 172/362/358 43/363/359 173/364/360
f 173/364/360 43/363/359 42/365/361
f 174/366/362 173/367/363 41/368/364
f 41/368/364 173/367/363 42/369/365
f 172/370/366 171/371/367 43/372/368
f 43/372/368 171/371/367 44/373/369
f 160/374/370 55/375/371 161/376/372
f 161/376/372 55/375/371 54/377/373
f 160/378/374 22/379/375 55/380/376
f 55/380/376 22/379/375 25/381/377
f 162/382/378 161/383/379 53/384/380
f 53/384/380 161/383/379 54/385/381
f 138/386/382 77/387/383 139/388/384
f 139/388/384 77/387/383 76/389/385
f 140/390/386 139/391/387 75/392/388
f 75/392/388 139/391/387 76/393/389
f 138/394/390 137/395/391 77/396/392
f 77/396/392 137/395/391 30/397/393
f 176/398/394 39/399/395 177/400/396
f 177/400/396 39/399/395 38/401/397
f 176/402/398 175/403/399 39/404/400
f 39/404/400 175/403/399 40/405/401
f 26/406/402 177/407/403 27/408/404
f 27/408/404 177/407/403 38/409/405
f 130/410/253 37/411/251 131/412/406
f 131/412/406 37/411/251 36/413/407
f 131/412/406 36/413/407 132/414/408
f 132/414/408 36/413/407 35/415/409
f 132/414/408 35/415/409 133/416/410
f 133/416/410 35/415/409 34/417/411
f 133/416/410 34/417/411 134/418/412
f 134/418/412 34/417/411 33/419/413
f 134/418/412 33/419/413 135/420/414
f 135/420/414 33/419/413 32/421/415
f 135/420/414 32/421/415 136/422/246
f 136/422/246 32/421/415 31/423/247
f 163/424/239 52/425/238 164/426/416
f 164/426/416 52/425/238 51/427/417
f 164/426/416 51/427/417 165/428/418
f 165/428/418 51/427/417 50/429/419
f 165/428/418 50/429/419 166/430/420
f 166/430/420 50/429/419 49/431/421
f 166/430/420 49/431/421 167/432/422
f 167/432/422 49/431/421 48/433/423
f 167/432/422 48/433/423 168/434/424
f 168/434/424 48/433/423 47/435/425
f 168/434/424 47/435/425 169/436/259
f 169/436/259 47/435/425 46/437/261
f 154/438/426 61/439/427 155/440/428
f 155/440/428 61/439/427 60/441/429
f 18/442/20 21/443/21 150/444/430
f 150/444/430 21/443/21 65/445/431
f 150/444/430 65/445/431 151/446/432
f 151/446/432 65/445/431 64/447/433
f 151/446/432 64/447/433 152/448/434
f 152/448/434 64/447/433 63/449/435
f 152/448/434 63/449/435 153/450/436
f 153/450/436 63/449/435 62/451/437
f 153/450/436 62/451/437 154/452/438
f 154/452/438 62/451/437 61/453/439
f 155/454/440 60/455/441 156/456/442
f 156/456/442 60/455/441 59/457/443
f 156/456/442 59/457/443 157/458/444
f 157/458/444 59/457/443 58/459/445
f 157/458/444 58/459/445 158/460/446
f 158/460/446 58/459/445 57/461/447
f 158/460/446 57/461/447 159/462/448
f 159/462/448 57/461/447 56/463/449
f 159/462/448 56/463/449 23/464/22
f 23/464/22 56/463/449 24/465/23
f 144/466/450 71/467/451 145/468/452
f 145/468/452 71/467/451 70/469/453
f 144/470/454 143/471/455 71/472/456
f 71/472/456 143/471/455 72/473/457
f 140/474/458 75/475/459 141/476/460
f 141/476/460 75/475/459 74/477/461
f 141/476/460 74/477/461 142/478/462
f 142/478/462 74/477/461 73/479/463
f 142/478/462 73/479/463 143/480/455
f 143/480/455 73/479/463 72/481/457
f 145/482/464 70/483/465 146/484/466
f 146/484/466 70/483/465 69/485/467
f 146/484/466 69/485/467 147/486/468
f 147/486/468 69/485/467 68/487/469
f 147/486/468 68/487/469 148/488/470
f 148/488/470 68/487/469 67/489/471
f 148/488/470 67/489/471 149/490/472
f 149/490/472 67/489/471 66/491/473
f 149/490/472 66/491/473 19/492/18
f 19/492/18 66/491/473 20/493/19
f 2/494/474 226/495/475 3/496/476
f 3/496/476 226/495/475 227/497/477
f 2/498/478 1/499/479 226/500/480
f 226/500/480 1/499/479 228/501/481
f 4/502/482 229/503/483 1/504/484
f 1/504/484 229/503/483 228/505/485
f 78/506/486 230/507/487 79/508/488
f 79/508/488 230/507/487 231/509/489
f 78/510/490 81/511/491 230/512/492
f 230/512/492 81/511/491 232/513/493
f 80/514/494 233/515/495 81/516/496
f 81/516/496 233/515/495 232/517/497
f 80/518/498 79/519/499 233/520/500
f 233/520/500 79/519/499 231/521/501
f 4/522/502 3/523/503 229/524/504
f 229/524/504 3/523/503 227/525/505
f 230/526/506 227/527/507 231/528/508
f 231/528/508 227/527/507 226/529/509
f 231/528/508 226/529/509 228/530/510
f 230/526/506 232/531/511 227/527/507
f 227/527/507 232/531/511 229/532/512
f 229/532/512 232/531/511 233/533/513
f 229/532/512 233/533/513 228/530/510
f 228/530/510 233/533/513 231/528/508
f 6/534/514 234/535/515 7/536/516
f 7/536/516 234/535/515 235/537/517
f 8/538/518 7/539/519 236/540/520
f 236/540/520 7/539/519 235/541/521
f 12/542/522 11/543/523 240/544/524
f 240/544/524 11/543/523 239/545/525
f 239/545/525 11/543/523 10/546/526
f 239/545/525 10/546/526 238/547/527
f 238/547/527 10/546/526 9/548/528
f 238/547/527 9/548/528 237/549/529
f 237/549/529 9/548/528 8/550/530
f 237/549/529 8/550/530 236/551/531
f 12/552/532 240/553/533 13/554/534
f 13/554/534 240/553/533 241/555/535
f 17/556/536 16/557/537 245/558/538
f 245/558/538 16/557/537 244/559/539
f 244/559/539 16/557/537 15/560/540
f 244/559/539 15/560/540 243/561/541
f 243/561/541 15/560/540 14/562/542
f 243/561/541 14/562/542 242/563/543
f 242/563/543 14/562/542 13/564/544
f 242/563/543 13/564/544 241/565/545
f 17/566/546 245/567/547 5/568/548
f 5/568/548 245/567/547 246/569/549
f 6/570/550 5/571/551 234/572/552
f 234/572/552 5/571/551 246/573/553
f 236/574/554 235/575/555 245/576/556
f 245/576/556 235/575/555 234/577/557
f 245/576/556 234/577/557 246/578/558
f 236/574/554 245/576/556 237/579/559
f 237/579/559 245/576/556 244/580/560
f 237/579/559 244/580/560 238/581/561
f 238/581/561 244/580/560 243/582/562
f 238/581/561 243/582/562 239/583/563
f 239/583/563 243/582/562 242/584/564
f 239/583/563 242/584/564 240/585/565
f 240/585/565 242/584/564 241/586/566
# 246 vertices
# 586 texture params
# 566 normals
# 496 facets

# 1 groups
