# WaveFront *.obj file (generated by Autodesk ATF)

mtllib Battery_lock.mtl

g Body1

v -0.350000 1.050000 0.000000
v 0.350000 1.050000 0.000000
v 0.350000 0.350000 0.000000
v -0.350000 0.350000 0.000000
v -0.110762 0.824556 0.000000
v -0.096438 0.871892 -0.000000
v -0.086730 0.890597 -0.000000
v -0.075357 0.906042 -0.000000
v -0.062385 0.918332 -0.000000
v -0.048010 0.927763 -0.000000
v -0.032397 0.934612 -0.000000
v -0.015461 0.938865 -0.000000
v 0.002764 0.940471 -0.000000
v 0.021358 0.939513 -0.000000
v 0.038940 0.936080 -0.000000
v 0.055331 0.930184 -0.000000
v 0.070661 0.921813 -0.000000
v 0.084942 0.910933 -0.000000
v 0.097902 0.897754 -0.000000
v 0.108544 0.883225 -0.000000
v 0.116710 0.867479 -0.000000
v 0.122405 0.850552 -0.000000
v 0.125612 0.832422 -0.000000
v 0.126327 0.813160 -0.000000
v 0.124517 0.794457 -0.000000
v 0.120169 0.777103 -0.000000
v 0.113304 0.761131 -0.000000
v 0.103853 0.746469 -0.000000
v 0.091899 0.733215 -0.000000
v 0.078143 0.722053 -0.000000
v 0.063013 0.713403 -0.000000
v 0.046507 0.707271 -0.000000
v 0.028625 0.703666 -0.000000
v 0.009359 0.702597 -0.000000
v -0.040267 0.710738 -0.000000
v -0.032267 0.647036 -0.000000
v 0.000287 0.646673 -0.000000
v 0.028282 0.640453 -0.000000
v 0.054278 0.629003 -0.000000
v 0.066436 0.621298 -0.000000
v 0.076966 0.612200 -0.000000
v 0.085517 0.601676 -0.000000
v 0.092069 0.589773 -0.000000
v 0.096626 0.576509 -0.000000
v 0.099202 0.561730 -0.000000
v 0.099762 0.545673 -0.000000
v 0.098094 0.530019 -0.000000
v 0.094100 0.515531 -0.000000
v 0.087796 0.502252 -0.000000
v 0.079184 0.490106 -0.000000
v 0.068344 0.479186 -0.000000
v 0.055968 0.470335 -0.000000
v 0.042251 0.463757 -0.000000
v 0.027203 0.459434 -0.000000
v 0.010793 0.457349 -0.000000
v -0.006521 0.457499 -0.000000
v -0.022832 0.459931 -0.000000
v -0.037886 0.464668 -0.000000
v -0.051776 0.471726 -0.000000
v -0.064486 0.481121 -0.000000
v -0.075760 0.492863 -0.000000
v -0.085333 0.506963 -0.000000
v -0.093151 0.523421 -0.000000
v -0.103516 0.563408 -0.000000
v -0.175974 0.550426 -0.000000
v -0.163221 0.505196 -0.000000
v -0.142782 0.467268 -0.000000
v -0.114723 0.436778 -0.000000
v -0.080285 0.414618 -0.000000
v -0.040656 0.401545 -0.000000
v 0.004118 0.397525 -0.000000
v 0.049134 0.402889 -0.000000
v 0.090452 0.418111 -0.000000
v 0.125499 0.441881 -0.000000
v 0.139661 0.456430 -0.000000
v 0.151563 0.472777 -0.000000
v 0.161070 0.490440 -0.000000
v 0.168000 0.508651 -0.000000
v 0.172365 0.527401 -0.000000
v 0.174179 0.546691 -0.000000
v 0.173385 0.566064 -0.000000
v 0.169863 0.584542 -0.000000
v 0.163647 0.602113 -0.000000
v 0.154774 0.618794 -0.000000
v 0.143254 0.634259 -0.000000
v 0.129093 0.648013 -0.000000
v 0.093024 0.670433 -0.000000
v 0.115288 0.677131 -0.000000
v 0.135196 0.686455 -0.000000
v 0.152754 0.698392 -0.000000
v 0.167987 0.712949 -0.000000
v 0.180804 0.729999 -0.000000
v 0.190773 0.749033 -0.000000
v 0.197829 0.769987 -0.000000
v 0.201976 0.792832 -0.000000
v 0.201440 0.842405 -0.000000
v 0.196592 0.865936 -0.000000
v 0.188682 0.888117 -0.000000
v 0.177721 0.909002 -0.000000
v 0.163649 0.928670 -0.000000
v 0.127107 0.963266 -0.000000
v 0.106028 0.976580 -0.000000
v 0.083397 0.986899 -0.000000
v 0.033242 0.998822 -0.000000
v -0.021818 0.999030 -0.000000
v -0.047649 0.994579 -0.000000
v -0.071747 0.987055 -0.000000
v -0.094056 0.976444 -0.000000
v -0.114601 0.962682 -0.000000
v -0.133212 0.945955 -0.000000
v -0.149068 0.927232 -0.000000
v -0.162005 0.906700 -0.000000
v -0.172020 0.884349 -0.000000
v -0.183219 0.834217 -0.000000
v 2.315000 2.800000 0.000000
v 2.315000 2.680000 0.000000
v 2.317726 2.659294 0.000000
v 2.325718 2.640000 0.000000
v 2.338431 2.623431 0.000000
v 2.355000 2.610718 0.000000
v 2.374294 2.602726 0.000000
v 2.395000 2.600000 -0.000000
v 2.585000 2.600000 -0.000000
v 2.605706 2.602726 0.000000
v 2.625000 2.610718 0.000000
v 2.641569 2.623431 0.000000
v 2.654282 2.640000 0.000000
v 2.662274 2.659294 0.000000
v 2.665000 2.680000 -0.000000
v 2.665000 2.800000 -0.000000
v 3.115000 2.800000 0.000000
v 3.115000 1.400000 0.000000
v 3.415000 1.400000 0.000000
v 3.415000 0.000000 0.000000
v 2.100000 0.000000 0.000000
v 2.100000 -0.300000 0.000000
v 1.100000 -0.300000 0.000000
v 1.100000 0.000000 0.000000
v -1.100000 0.000000 0.000000
v -1.100000 -0.300000 0.000000
v -2.100000 -0.300000 0.000000
v -2.100000 0.000000 0.000000
v -3.415000 0.000000 0.000000
v -3.415000 1.400000 0.000000
v -3.115000 1.400000 0.000000
v -3.115000 2.800000 0.000000
v -2.665000 2.800000 -0.000000
v -2.665000 2.680000 -0.000000
v -2.662274 2.659294 0.000000
v -2.654282 2.640000 0.000000
v -2.641569 2.623431 0.000000
v -2.625000 2.610718 0.000000
v -2.605706 2.602726 0.000000
v -2.585000 2.600000 -0.000000
v -2.395000 2.600000 -0.000000
v -2.374294 2.602726 0.000000
v -2.355000 2.610718 0.000000
v -2.338431 2.623431 0.000000
v -2.325718 2.640000 0.000000
v -2.317726 2.659294 0.000000
v -2.315000 2.680000 0.000000
v -2.315000 2.800000 0.000000
v -1.800000 2.800000 0.000000
v -1.800000 3.100000 0.000000
v -0.800000 3.100000 0.000000
v -0.800000 2.800000 0.000000
v 0.800000 2.800000 0.000000
v 0.800000 3.100000 0.000000
v 1.800000 3.100000 0.000000
v 1.800000 2.800000 0.000000
v 0.400000 1.100000 0.000000
v -0.400000 1.100000 0.000000
v -0.400000 0.300000 0.000000
v 0.400000 0.300000 0.000000
v 2.665000 2.800000 0.300000
v 3.115000 2.800000 0.300000
v 2.665000 2.680000 0.300000
v 2.662274 2.659294 0.300000
v 2.654282 2.640000 0.300000
v 2.641569 2.623431 0.300000
v 2.625000 2.610718 0.300000
v 2.605706 2.602726 0.300000
v 2.585000 2.600000 0.300000
v 2.395000 2.600000 0.300000
v 2.374294 2.602726 0.300000
v 2.355000 2.610718 0.300000
v 2.338431 2.623431 0.300000
v 2.325718 2.640000 0.300000
v 2.317726 2.659294 0.300000
v 2.315000 2.680000 0.300000
v 2.315000 2.800000 0.300000
v 1.800000 2.800000 0.300000
v 1.800000 3.100000 0.300000
v 0.800000 3.100000 0.300000
v 0.800000 2.800000 0.300000
v -0.800000 2.800000 0.300000
v -0.800000 3.100000 0.300000
v -1.800000 3.100000 0.300000
v -1.800000 2.800000 0.300000
v -2.315000 2.800000 0.300000
v -2.315000 2.680000 0.300000
v -2.317726 2.659294 0.300000
v -2.325718 2.640000 0.300000
v -2.338431 2.623431 0.300000
v -2.355000 2.610718 0.300000
v -2.374294 2.602726 0.300000
v -2.395000 2.600000 0.300000
v -2.585000 2.600000 0.300000
v -2.605706 2.602726 0.300000
v -2.625000 2.610718 0.300000
v -2.641569 2.623431 0.300000
v -2.654282 2.640000 0.300000
v -2.662274 2.659294 0.300000
v -2.665000 2.680000 0.300000
v -2.665000 2.800000 0.300000
v -3.115000 2.800000 0.300000
v -3.115000 1.400000 0.300000
v -3.415000 1.400000 0.300000
v -3.415000 0.000000 0.300000
v -2.100000 0.000000 0.300000
v -2.100000 -0.300000 0.300000
v -1.100000 -0.300000 0.300000
v -1.100000 0.000000 0.300000
v 1.100000 0.000000 0.300000
v 1.100000 -0.300000 0.300000
v 2.100000 -0.300000 0.300000
v 2.100000 0.000000 0.300000
v 3.415000 0.000000 0.300000
v 3.415000 1.400000 0.300000
v 3.115000 1.400000 0.300000
v 0.350000 1.050000 0.050000
v 0.350000 0.350000 0.050000
v -0.350000 0.350000 0.050000
v -0.350000 1.050000 0.050000
v 0.400000 1.100000 0.050000
v -0.400000 1.100000 0.050000
v -0.400000 0.300000 0.050000
v 0.400000 0.300000 0.050000
v -0.110762 0.824556 0.050000
v -0.096438 0.871892 0.050000
v -0.086730 0.890597 0.050000
v -0.075357 0.906042 0.050000
v -0.062385 0.918332 0.050000
v -0.048010 0.927763 0.050000
v -0.032397 0.934612 0.050000
v -0.015461 0.938865 0.050000
v 0.002764 0.940471 0.050000
v 0.021358 0.939513 0.050000
v 0.038940 0.936080 0.050000
v 0.055331 0.930184 0.050000
v 0.070661 0.921813 0.050000
v 0.084942 0.910933 0.050000
v 0.097902 0.897754 0.050000
v 0.108544 0.883225 0.050000
v 0.116710 0.867479 0.050000
v 0.122405 0.850552 0.050000
v 0.125612 0.832422 0.050000
v 0.126327 0.813160 0.050000
v 0.124517 0.794457 0.050000
v 0.120169 0.777103 0.050000
v 0.113304 0.761131 0.050000
v 0.103853 0.746469 0.050000
v 0.091899 0.733215 0.050000
v 0.078143 0.722053 0.050000
v 0.063013 0.713403 0.050000
v 0.046507 0.707271 0.050000
v 0.028625 0.703666 0.050000
v 0.009359 0.702597 0.050000
v -0.040267 0.710738 0.050000
v -0.032267 0.647036 0.050000
v 0.000287 0.646673 0.050000
v 0.028282 0.640453 0.050000
v 0.054278 0.629003 0.050000
v 0.066436 0.621298 0.050000
v 0.076966 0.612200 0.050000
v 0.085517 0.601676 0.050000
v 0.092069 0.589773 0.050000
v 0.096626 0.576509 0.050000
v 0.099202 0.561730 0.050000
v 0.099762 0.545673 0.050000
v 0.098094 0.530019 0.050000
v 0.094100 0.515531 0.050000
v 0.087796 0.502252 0.050000
v 0.079184 0.490106 0.050000
v 0.068344 0.479186 0.050000
v 0.055968 0.470335 0.050000
v 0.042251 0.463757 0.050000
v 0.027203 0.459434 0.050000
v 0.010793 0.457349 0.050000
v -0.006521 0.457499 0.050000
v -0.022832 0.459931 0.050000
v -0.037886 0.464668 0.050000
v -0.051776 0.471726 0.050000
v -0.064486 0.481121 0.050000
v -0.075760 0.492863 0.050000
v -0.085333 0.506963 0.050000
v -0.093151 0.523421 0.050000
v -0.103516 0.563408 0.050000
v -0.175974 0.550426 0.050000
v -0.163221 0.505196 0.050000
v -0.142782 0.467268 0.050000
v -0.114723 0.436778 0.050000
v -0.080285 0.414618 0.050000
v -0.040656 0.401545 0.050000
v 0.004118 0.397525 0.050000
v 0.049134 0.402889 0.050000
v 0.090452 0.418111 0.050000
v 0.125499 0.441881 0.050000
v 0.139661 0.456430 0.050000
v 0.151563 0.472777 0.050000
v 0.161070 0.490440 0.050000
v 0.168000 0.508651 0.050000
v 0.172365 0.527401 0.050000
v 0.174179 0.546691 0.050000
v 0.173385 0.566064 0.050000
v 0.169863 0.584542 0.050000
v 0.163647 0.602113 0.050000
v 0.154774 0.618794 0.050000
v 0.143254 0.634259 0.050000
v 0.129093 0.648013 0.050000
v 0.093024 0.670433 0.050000
v 0.115288 0.677131 0.050000
v 0.135196 0.686455 0.050000
v 0.152754 0.698392 0.050000
v 0.167987 0.712949 0.050000
v 0.180804 0.729999 0.050000
v 0.190773 0.749033 0.050000
v 0.197829 0.769987 0.050000
v 0.201976 0.792832 0.050000
v 0.201440 0.842405 0.050000
v 0.196592 0.865936 0.050000
v 0.188682 0.888117 0.050000
v 0.177721 0.909002 0.050000
v 0.163649 0.928670 0.050000
v 0.127107 0.963266 0.050000
v 0.106028 0.976580 0.050000
v 0.083397 0.986899 0.050000
v 0.033242 0.998822 0.050000
v -0.021818 0.999030 0.050000
v -0.047649 0.994579 0.050000
v -0.071747 0.987055 0.050000
v -0.094056 0.976444 0.050000
v -0.114601 0.962682 0.050000
v -0.133212 0.945955 0.050000
v -0.149068 0.927232 0.050000
v -0.162005 0.906700 0.050000
v -0.172020 0.884349 0.050000
v -0.183219 0.834217 0.050000
vt -0.350000 1.050000 0.000000
vt 0.021818 0.999030 0.000000
vt 0.350000 1.050000 0.000000
vt 0.047649 0.994579 0.000000
vt 0.071747 0.987055 0.000000
vt -0.350000 0.350000 0.000000
vt -0.201976 0.792832 0.000000
vt -0.201440 0.842405 0.000000
vt -0.196592 0.865936 0.000000
vt 0.350000 0.350000 0.000000
vt -0.004118 0.397525 0.000000
vt -0.049134 0.402889 0.000000
vt -0.090452 0.418111 0.000000
vt 0.183219 0.834217 0.000000
vt 0.175974 0.550426 0.000000
vt 0.163221 0.505196 0.000000
vt 0.096438 0.871892 0.000000
vt -0.009359 0.702597 0.000000
vt 0.110762 0.824556 0.000000
vt 0.040267 0.710738 0.000000
vt 0.086730 0.890597 0.000000
vt -0.038940 0.936080 0.000000
vt -0.055331 0.930184 0.000000
vt -0.070661 0.921813 0.000000
vt 0.075357 0.906042 0.000000
vt 0.062385 0.918332 0.000000
vt 0.048010 0.927763 0.000000
vt 0.032397 0.934612 0.000000
vt 0.015461 0.938865 0.000000
vt -0.002764 0.940471 0.000000
vt -0.021358 0.939513 0.000000
vt -0.084942 0.910933 0.000000
vt -0.097902 0.897754 0.000000
vt -0.108544 0.883225 0.000000
vt -0.116710 0.867479 0.000000
vt -0.122405 0.850552 0.000000
vt -0.125612 0.832422 0.000000
vt -0.126327 0.813160 0.000000
vt -0.124517 0.794457 0.000000
vt -0.120169 0.777103 0.000000
vt -0.113304 0.761131 0.000000
vt -0.103853 0.746469 0.000000
vt -0.091899 0.733215 0.000000
vt -0.028625 0.703666 0.000000
vt -0.046507 0.707271 0.000000
vt -0.078143 0.722053 0.000000
vt -0.063013 0.713403 0.000000
vt 0.103516 0.563408 0.000000
vt 0.032267 0.647036 0.000000
vt 0.093151 0.523421 0.000000
vt -0.000287 0.646673 0.000000
vt -0.028282 0.640453 0.000000
vt -0.054278 0.629003 0.000000
vt -0.010793 0.457349 0.000000
vt 0.006521 0.457499 0.000000
vt 0.022832 0.459931 0.000000
vt -0.066436 0.621298 0.000000
vt -0.099202 0.561730 0.000000
vt -0.099762 0.545673 0.000000
vt -0.098094 0.530019 0.000000
vt -0.094100 0.515531 0.000000
vt -0.076966 0.612200 0.000000
vt -0.092069 0.589773 0.000000
vt -0.096626 0.576509 0.000000
vt -0.085517 0.601676 0.000000
vt -0.087796 0.502252 0.000000
vt -0.079184 0.490106 0.000000
vt -0.027203 0.459434 0.000000
vt -0.068344 0.479186 0.000000
vt -0.042251 0.463757 0.000000
vt -0.055968 0.470335 0.000000
vt 0.037886 0.464668 0.000000
vt 0.051776 0.471726 0.000000
vt 0.064486 0.481121 0.000000
vt 0.075760 0.492863 0.000000
vt 0.085333 0.506963 0.000000
vt 0.142782 0.467268 0.000000
vt 0.114723 0.436778 0.000000
vt 0.080285 0.414618 0.000000
vt 0.040656 0.401545 0.000000
vt -0.125499 0.441881 0.000000
vt -0.139661 0.456430 0.000000
vt -0.151563 0.472777 0.000000
vt -0.161070 0.490440 0.000000
vt -0.168000 0.508651 0.000000
vt -0.172365 0.527401 0.000000
vt -0.174179 0.546691 0.000000
vt -0.173385 0.566064 0.000000
vt -0.190773 0.749033 0.000000
vt -0.169863 0.584542 0.000000
vt -0.180804 0.729999 0.000000
vt -0.163647 0.602113 0.000000
vt -0.167987 0.712949 0.000000
vt -0.154774 0.618794 0.000000
vt -0.152754 0.698392 0.000000
vt -0.143254 0.634259 0.000000
vt -0.135196 0.686455 0.000000
vt -0.129093 0.648013 0.000000
vt -0.115288 0.677131 0.000000
vt -0.093024 0.670433 0.000000
vt -0.197829 0.769987 0.000000
vt -0.188682 0.888117 0.000000
vt -0.177721 0.909002 0.000000
vt -0.163649 0.928670 0.000000
vt -0.127107 0.963266 0.000000
vt -0.106028 0.976580 0.000000
vt -0.083397 0.986899 0.000000
vt -0.033242 0.998822 0.000000
vt 0.094056 0.976444 0.000000
vt 0.114601 0.962682 0.000000
vt 0.133212 0.945955 0.000000
vt 0.149068 0.927232 0.000000
vt 0.162005 0.906700 0.000000
vt 0.172020 0.884349 0.000000
vt -2.315000 2.800000 0.000000
vt -2.315000 2.680000 0.000000
vt -1.800000 2.800000 0.000000
vt -2.317726 2.659294 0.000000
vt -2.325718 2.640000 0.000000
vt -2.338431 2.623431 0.000000
vt -2.355000 2.610718 0.000000
vt -0.800000 2.800000 0.000000
vt -0.400000 1.100000 0.000000
vt 0.400000 1.100000 0.000000
vt -2.374294 2.602726 0.000000
vt -3.115000 1.400000 0.000000
vt -2.100000 0.000000 0.000000
vt -3.415000 0.000000 0.000000
vt -3.415000 1.400000 0.000000
vt -2.395000 2.600000 0.000000
vt -2.585000 2.600000 0.000000
vt -2.605706 2.602726 0.000000
vt -2.625000 2.610718 0.000000
vt -3.115000 2.800000 0.000000
vt -2.641569 2.623431 0.000000
vt -2.654282 2.640000 0.000000
vt -2.662274 2.659294 0.000000
vt -2.665000 2.680000 0.000000
vt -2.665000 2.800000 0.000000
vt -2.100000 -0.300000 0.000000
vt -1.100000 -0.300000 0.000000
vt -1.100000 0.000000 0.000000
vt -0.400000 0.300000 0.000000
vt 1.100000 0.000000 0.000000
vt 0.400000 0.300000 0.000000
vt 2.100000 0.000000 0.000000
vt 3.115000 1.400000 0.000000
vt 3.415000 0.000000 0.000000
vt 3.415000 1.400000 0.000000
vt 1.100000 -0.300000 0.000000
vt 2.100000 -0.300000 0.000000
vt 3.115000 2.800000 0.000000
vt 2.625000 2.610718 0.000000
vt 2.605706 2.602726 0.000000
vt 2.585000 2.600000 0.000000
vt 2.665000 2.800000 0.000000
vt 2.665000 2.680000 0.000000
vt 2.662274 2.659294 0.000000
vt 2.654282 2.640000 0.000000
vt 2.641569 2.623431 0.000000
vt 2.395000 2.600000 0.000000
vt 2.374294 2.602726 0.000000
vt 2.355000 2.610718 0.000000
vt 0.800000 2.800000 0.000000
vt 1.800000 2.800000 0.000000
vt 0.800000 3.100000 0.000000
vt 1.800000 3.100000 0.000000
vt 2.338431 2.623431 0.000000
vt 2.325718 2.640000 0.000000
vt 2.317726 2.659294 0.000000
vt 2.315000 2.680000 0.000000
vt 2.315000 2.800000 0.000000
vt -0.800000 3.100000 0.000000
vt -1.800000 3.100000 0.000000
vt -0.300000 -0.450000 0.000000
vt -0.000000 -0.450000 0.000000
vt -0.300000 0.000000 0.000000
vt -0.000000 0.000000 0.000000
vt 2.665000 2.800000 0.000000
vt 2.665000 2.680000 0.000000
vt 3.115000 2.800000 0.000000
vt 2.662274 2.659294 0.000000
vt 2.654282 2.640000 0.000000
vt 2.641569 2.623431 0.000000
vt 2.625000 2.610718 0.000000
vt 3.115000 1.400000 0.000000
vt 2.605706 2.602726 0.000000
vt 2.585000 2.600000 0.000000
vt 2.395000 2.600000 0.000000
vt 2.374294 2.602726 0.000000
vt 0.800000 2.800000 0.000000
vt 2.355000 2.610718 0.000000
vt 1.800000 2.800000 0.000000
vt 2.338431 2.623431 0.000000
vt 2.325718 2.640000 0.000000
vt 2.317726 2.659294 0.000000
vt 2.315000 2.680000 0.000000
vt 2.315000 2.800000 0.000000
vt 1.800000 3.100000 0.000000
vt 0.800000 3.100000 0.000000
vt 1.100000 0.000000 0.000000
vt -0.800000 2.800000 0.000000
vt -1.100000 0.000000 0.000000
vt -3.115000 1.400000 0.000000
vt -2.100000 0.000000 0.000000
vt -3.415000 0.000000 0.000000
vt -3.415000 1.400000 0.000000
vt -0.800000 3.100000 0.000000
vt -1.800000 3.100000 0.000000
vt -1.800000 2.800000 0.000000
vt -2.355000 2.610718 0.000000
vt -2.338431 2.623431 0.000000
vt -2.325718 2.640000 0.000000
vt -2.317726 2.659294 0.000000
vt -2.315000 2.680000 0.000000
vt -2.315000 2.800000 0.000000
vt -2.374294 2.602726 0.000000
vt -2.395000 2.600000 0.000000
vt -2.585000 2.600000 0.000000
vt -2.605706 2.602726 0.000000
vt -2.625000 2.610718 0.000000
vt -3.115000 2.800000 0.000000
vt -2.641569 2.623431 0.000000
vt -2.654282 2.640000 0.000000
vt -2.662274 2.659294 0.000000
vt -2.665000 2.680000 0.000000
vt -2.665000 2.800000 0.000000
vt -2.100000 -0.300000 0.000000
vt -1.100000 -0.300000 0.000000
vt 1.100000 -0.300000 0.000000
vt 2.100000 -0.300000 0.000000
vt 2.100000 0.000000 0.000000
vt 3.415000 0.000000 0.000000
vt 3.415000 1.400000 0.000000
vt -0.300000 -0.515000 0.000000
vt 0.000000 -0.515000 0.000000
vt -0.300000 0.000000 0.000000
vt -0.000000 0.000000 0.000000
vt -0.300000 -1.400000 0.000000
vt 0.000000 -1.400000 0.000000
vt -0.300000 0.000000 0.000000
vt -0.000000 0.000000 0.000000
vt 0.300000 1.315000 0.000000
vt -0.000000 1.315000 0.000000
vt 0.300000 0.000000 0.000000
vt -0.000000 0.000000 0.000000
vt -0.300000 -0.300000 0.000000
vt 0.000000 -0.300000 0.000000
vt -0.300000 0.000000 0.000000
vt -0.000000 0.000000 0.000000
vt 0.300000 1.000000 0.000000
vt -0.000000 1.000000 0.000000
vt 0.300000 0.000000 0.000000
vt -0.000000 0.000000 0.000000
vt 0.300000 0.300000 0.000000
vt -0.000000 0.300000 0.000000
vt 0.300000 0.000000 0.000000
vt -0.000000 0.000000 0.000000
vt 0.300000 2.200000 0.000000
vt -0.000000 2.200000 0.000000
vt 0.300000 0.000000 0.000000
vt -0.000000 0.000000 0.000000
vt -0.300000 -0.300000 0.000000
vt 0.000000 -0.300000 0.000000
vt -0.300000 0.000000 0.000000
vt -0.000000 0.000000 0.000000
vt 0.300000 1.000000 0.000000
vt -0.000000 1.000000 0.000000
vt 0.300000 0.000000 0.000000
vt -0.000000 0.000000 0.000000
vt 0.300000 0.300000 0.000000
vt -0.000000 0.300000 0.000000
vt 0.300000 0.000000 0.000000
vt -0.000000 0.000000 0.000000
vt 0.300000 1.315000 0.000000
vt -0.000000 1.315000 0.000000
vt 0.300000 0.000000 0.000000
vt -0.000000 0.000000 0.000000
vt 0.300000 1.400000 0.000000
vt -0.000000 1.400000 0.000000
vt 0.300000 0.000000 0.000000
vt -0.000000 0.000000 0.000000
vt -0.300000 -0.300000 0.000000
vt -0.000000 -0.300000 0.000000
vt -0.300000 0.000000 0.000000
vt -0.000000 0.000000 0.000000
vt 0.300000 1.400000 0.000000
vt -0.000000 1.400000 0.000000
vt 0.300000 0.000000 0.000000
vt -0.000000 0.000000 0.000000
vt 0.000000 -0.800000 0.000000
vt -0.300000 -0.800000 0.000000
vt -0.000000 -1.315000 0.000000
vt -0.300000 -1.315000 0.000000
vt 0.300000 0.300000 0.000000
vt -0.000000 0.300000 0.000000
vt 0.300000 0.000000 0.000000
vt -0.000000 0.000000 0.000000
vt -0.300000 -1.000000 0.000000
vt 0.000000 -1.000000 0.000000
vt -0.300000 0.000000 0.000000
vt -0.000000 0.000000 0.000000
vt -0.300000 -0.300000 0.000000
vt 0.000000 -0.300000 0.000000
vt -0.300000 0.000000 0.000000
vt -0.000000 0.000000 0.000000
vt -0.300000 -1.600000 0.000000
vt -0.000000 -1.600000 0.000000
vt -0.300000 0.000000 0.000000
vt 0.000000 0.000000 0.000000
vt 0.300000 0.300000 0.000000
vt -0.000000 0.300000 0.000000
vt 0.300000 0.000000 0.000000
vt -0.000000 0.000000 0.000000
vt -0.300000 -1.000000 0.000000
vt -0.000000 -1.000000 0.000000
vt -0.300000 0.000000 0.000000
vt -0.000000 0.000000 0.000000
vt -0.300000 -0.300000 0.000000
vt 0.000000 -0.300000 0.000000
vt -0.300000 0.000000 0.000000
vt -0.000000 0.000000 0.000000
vt -0.000000 -0.865000 0.000000
vt -0.300000 -0.865000 0.000000
vt -0.000000 -1.315000 0.000000
vt -0.300000 -1.315000 0.000000
vt -0.300000 -1.400000 0.000000
vt 0.000000 -1.400000 0.000000
vt -0.300000 0.000000 0.000000
vt -0.000000 0.000000 0.000000
vt -0.300000 -0.300000 0.000000
vt -0.000000 -0.300000 0.000000
vt -0.300000 0.000000 0.000000
vt -0.000000 0.000000 0.000000
vt -0.300000 0.080000 0.000000
vt 0.000000 0.080000 0.000000
vt -0.300000 0.200000 0.000000
vt 0.000000 0.200000 0.000000
vt 0.000000 -0.120000 0.000000
vt 0.300000 -0.120000 0.000000
vt 0.000000 0.000000 0.000000
vt 0.300000 0.000000 0.000000
vt -0.300000 0.080000 0.000000
vt 0.000000 0.080000 0.000000
vt -0.300000 0.270000 0.000000
vt 0.000000 0.270000 0.000000
vt -0.000000 -0.125664 0.000000
vt 0.300000 -0.125664 0.000000
vt -0.000000 -0.104720 0.000000
vt 0.300000 -0.104720 0.000000
vt -0.000000 -0.083776 0.000000
vt 0.300000 -0.083776 0.000000
vt -0.000000 -0.062832 0.000000
vt 0.300000 -0.062832 0.000000
vt -0.000000 -0.041888 0.000000
vt 0.300000 -0.041888 0.000000
vt -0.000000 -0.020944 0.000000
vt 0.300000 -0.020944 0.000000
vt 0.000000 0.000000 0.000000
vt 0.300000 0.000000 0.000000
vt 0.000000 -0.251327 0.000000
vt 0.300000 -0.251327 0.000000
vt 0.000000 -0.230383 0.000000
vt 0.300000 -0.230383 0.000000
vt 0.000000 -0.209440 0.000000
vt 0.300000 -0.209440 0.000000
vt 0.000000 -0.188496 0.000000
vt 0.300000 -0.188496 0.000000
vt 0.000000 -0.167552 0.000000
vt 0.300000 -0.167552 0.000000
vt 0.000000 -0.146608 0.000000
vt 0.300000 -0.146608 0.000000
vt 0.000000 -0.125664 0.000000
vt 0.300000 -0.125664 0.000000
vt -0.000000 0.080000 0.000000
vt 0.300000 0.080000 0.000000
vt -0.000000 0.200000 0.000000
vt 0.300000 0.200000 0.000000
vt -0.300000 -0.120000 0.000000
vt 0.000000 -0.120000 0.000000
vt -0.300000 0.000000 0.000000
vt -0.000000 0.000000 0.000000
vt 0.000000 -0.080000 0.000000
vt -0.300000 -0.080000 0.000000
vt 0.000000 -0.270000 0.000000
vt -0.300000 -0.270000 0.000000
vt 0.000000 -0.251327 0.000000
vt 0.300000 -0.251327 0.000000
vt -0.000000 -0.230383 0.000000
vt 0.300000 -0.230383 0.000000
vt -0.000000 -0.209440 0.000000
vt 0.300000 -0.209440 0.000000
vt -0.000000 -0.188496 0.000000
vt 0.300000 -0.188496 0.000000
vt -0.000000 -0.167552 0.000000
vt 0.300000 -0.167552 0.000000
vt -0.000000 -0.146608 0.000000
vt 0.300000 -0.146608 0.000000
vt -0.000000 -0.125664 0.000000
vt 0.300000 -0.125664 0.000000
vt -0.000000 -0.125664 0.000000
vt 0.300000 -0.125664 0.000000
vt -0.000000 -0.104720 0.000000
vt 0.300000 -0.104720 0.000000
vt -0.000000 -0.083776 0.000000
vt 0.300000 -0.083776 0.000000
vt -0.000000 -0.062832 0.000000
vt 0.300000 -0.062832 0.000000
vt -0.000000 -0.041888 0.000000
vt 0.300000 -0.041888 0.000000
vt -0.000000 -0.020944 0.000000
vt 0.300000 -0.020944 0.000000
vt -0.000000 0.000000 0.000000
vt 0.300000 0.000000 0.000000
vt 0.050000 0.700000 0.000000
vt -0.000000 0.700000 0.000000
vt 0.050000 0.000000 0.000000
vt -0.000000 0.000000 0.000000
vt 0.050000 0.700000 0.000000
vt -0.000000 0.700000 0.000000
vt 0.050000 0.000000 0.000000
vt -0.000000 0.000000 0.000000
vt -0.050000 -0.700000 0.000000
vt -0.000000 -0.700000 0.000000
vt -0.050000 0.000000 0.000000
vt -0.000000 0.000000 0.000000
vt 0.050000 0.000000 0.000000
vt 0.000000 0.000000 0.000000
vt 0.050000 -0.800000 0.000000
vt -0.000000 -0.800000 0.000000
vt 0.050000 0.000000 0.000000
vt 0.000000 0.000000 0.000000
vt 0.050000 -0.800000 0.000000
vt 0.000000 -0.800000 0.000000
vt -0.050000 0.000000 0.000000
vt 0.000000 0.000000 0.000000
vt -0.050000 0.800000 0.000000
vt 0.000000 0.800000 0.000000
vt -0.050000 0.000000 0.000000
vt 0.000000 0.000000 0.000000
vt -0.050000 0.800000 0.000000
vt 0.000000 0.800000 0.000000
vt -0.050000 -0.700000 0.000000
vt 0.000000 -0.700000 0.000000
vt -0.050000 0.000000 0.000000
vt -0.000000 0.000000 0.000000
vt 0.400000 0.300000 0.000000
vt 0.400000 1.100000 0.000000
vt 0.350000 1.050000 0.000000
vt -0.400000 1.100000 0.000000
vt -0.350000 1.050000 0.000000
vt -0.400000 0.300000 0.000000
vt -0.350000 0.350000 0.000000
vt 0.350000 0.350000 0.000000
vt 0.569805 0.050000 0.000000
vt 0.534192 0.050000 0.000000
vt 0.569805 0.000000 0.000000
vt 0.534192 0.000000 0.000000
vt 0.516385 0.050000 0.000000
vt 0.516385 0.000000 0.000000
vt 0.498579 0.050000 0.000000
vt 0.498579 0.000000 0.000000
vt 0.480773 0.050000 0.000000
vt 0.480773 0.000000 0.000000
vt 0.462966 0.050000 0.000000
vt 0.462966 0.000000 0.000000
vt 0.445160 0.050000 0.000000
vt 0.445160 0.000000 0.000000
vt 0.427353 0.050000 0.000000
vt 0.427353 0.000000 0.000000
vt 0.409547 0.050000 0.000000
vt 0.409547 0.000000 0.000000
vt 0.391741 0.050000 0.000000
vt 0.391741 0.000000 0.000000
vt 0.373934 0.050000 0.000000
vt 0.373934 0.000000 0.000000
vt 0.356128 0.050000 0.000000
vt 0.356128 0.000000 0.000000
vt 0.338322 0.050000 0.000000
vt 0.338322 0.000000 0.000000
vt 0.320515 0.050000 0.000000
vt 0.320515 0.000000 0.000000
vt 0.302709 0.050000 0.000000
vt 0.302709 0.000000 0.000000
vt 0.284902 0.050000 0.000000
vt 0.284902 0.000000 0.000000
vt 0.267096 0.050000 0.000000
vt 0.267096 0.000000 0.000000
vt 0.249290 0.050000 0.000000
vt 0.249290 0.000000 0.000000
vt 0.231483 0.050000 0.000000
vt 0.231483 0.000000 0.000000
vt 0.213677 0.050000 0.000000
vt 0.213677 0.000000 0.000000
vt 0.195870 0.050000 0.000000
vt 0.195870 0.000000 0.000000
vt 0.178064 0.050000 0.000000
vt 0.178064 0.000000 0.000000
vt 0.160258 0.050000 0.000000
vt 0.160258 0.000000 0.000000
vt 0.142451 0.050000 0.000000
vt 0.142451 0.000000 0.000000
vt 0.124645 0.050000 0.000000
vt 0.124645 0.000000 0.000000
vt 0.106838 0.050000 0.000000
vt 0.106838 0.000000 0.000000
vt 0.089032 0.050000 0.000000
vt 0.089032 0.000000 0.000000
vt 0.071226 0.050000 0.000000
vt 0.071226 0.000000 0.000000
vt 0.053419 0.050000 0.000000
vt 0.053419 0.000000 0.000000
vt 0.035613 0.050000 0.000000
vt 0.035613 0.000000 0.000000
vt 0.000000 0.050000 0.000000
vt 0.000000 0.000000 0.000000
vt 0.050000 0.000000 0.000000
vt 0.000000 0.000000 0.000000
vt 0.050000 -0.064202 0.000000
vt -0.000000 -0.064202 0.000000
vt 1.181641 0.050000 0.000000
vt 1.152205 0.050000 0.000000
vt 1.181641 0.000000 0.000000
vt 1.152205 0.000000 0.000000
vt 1.137487 0.050000 0.000000
vt 1.137487 0.000000 0.000000
vt 1.122769 0.050000 0.000000
vt 1.122769 0.000000 0.000000
vt 1.108050 0.050000 0.000000
vt 1.108050 0.000000 0.000000
vt 1.093332 0.050000 0.000000
vt 1.093332 0.000000 0.000000
vt 1.078614 0.050000 0.000000
vt 1.078614 0.000000 0.000000
vt 1.063896 0.050000 0.000000
vt 1.063896 0.000000 0.000000
vt 1.049178 0.050000 0.000000
vt 1.049178 0.000000 0.000000
vt 1.034460 0.050000 0.000000
vt 1.034460 0.000000 0.000000
vt 1.019741 0.050000 0.000000
vt 1.019741 0.000000 0.000000
vt 1.005023 0.050000 0.000000
vt 1.005023 0.000000 0.000000
vt 0.990305 0.050000 0.000000
vt 0.990305 0.000000 0.000000
vt 0.975587 0.050000 0.000000
vt 0.975587 0.000000 0.000000
vt 0.960869 0.050000 0.000000
vt 0.960869 0.000000 0.000000
vt 0.946151 0.050000 0.000000
vt 0.946151 0.000000 0.000000
vt 0.931432 0.050000 0.000000
vt 0.931432 0.000000 0.000000
vt 0.916714 0.050000 0.000000
vt 0.916714 0.000000 0.000000
vt 0.901996 0.050000 0.000000
vt 0.901996 0.000000 0.000000
vt 0.887278 0.050000 0.000000
vt 0.887278 0.000000 0.000000
vt 0.872560 0.050000 0.000000
vt 0.872560 0.000000 0.000000
vt 0.857842 0.050000 0.000000
vt 0.857842 0.000000 0.000000
vt 0.843123 0.050000 0.000000
vt 0.843123 0.000000 0.000000
vt 0.828405 0.050000 0.000000
vt 0.828405 0.000000 0.000000
vt 0.813687 0.050000 0.000000
vt 0.813687 0.000000 0.000000
vt 0.798969 0.050000 0.000000
vt 0.798969 0.000000 0.000000
vt 0.769533 0.050000 0.000000
vt 0.769533 0.000000 0.000000
vt 0.740096 0.050000 0.000000
vt 0.740096 0.000000 0.000000
vt 0.710660 0.050000 0.000000
vt 0.710660 0.000000 0.000000
vt 0.050000 0.000000 0.000000
vt 0.000000 0.000000 0.000000
vt 0.050000 -0.073611 0.000000
vt -0.000000 -0.073611 0.000000
vt 2.381915 0.050000 0.000000
vt 2.337985 0.050000 0.000000
vt 2.381915 0.000000 0.000000
vt 2.337985 0.000000 0.000000
vt 2.316021 0.050000 0.000000
vt 2.316021 0.000000 0.000000
vt 2.294056 0.050000 0.000000
vt 2.294056 0.000000 0.000000
vt 2.272091 0.050000 0.000000
vt 2.272091 0.000000 0.000000
vt 2.250127 0.050000 0.000000
vt 2.250127 0.000000 0.000000
vt 2.228162 0.050000 0.000000
vt 2.228162 0.000000 0.000000
vt 2.206198 0.050000 0.000000
vt 2.206198 0.000000 0.000000
vt 2.184233 0.050000 0.000000
vt 2.184233 0.000000 0.000000
vt 2.162268 0.050000 0.000000
vt 2.162268 0.000000 0.000000
vt 2.140304 0.050000 0.000000
vt 2.140304 0.000000 0.000000
vt 2.118339 0.050000 0.000000
vt 2.118339 0.000000 0.000000
vt 2.096374 0.050000 0.000000
vt 2.096374 0.000000 0.000000
vt 2.074410 0.050000 0.000000
vt 2.074410 0.000000 0.000000
vt 2.030480 0.050000 0.000000
vt 2.030480 0.000000 0.000000
vt 1.986551 0.050000 0.000000
vt 1.986551 0.000000 0.000000
vt 1.942622 0.050000 0.000000
vt 1.942622 0.000000 0.000000
vt 1.898692 0.050000 0.000000
vt 1.898692 0.000000 0.000000
vt 1.854763 0.050000 0.000000
vt 1.854763 0.000000 0.000000
vt 1.810834 0.050000 0.000000
vt 1.810834 0.000000 0.000000
vt 1.766905 0.050000 0.000000
vt 1.766905 0.000000 0.000000
vt 1.722975 0.050000 0.000000
vt 1.722975 0.000000 0.000000
vt 1.679046 0.050000 0.000000
vt 1.679046 0.000000 0.000000
vt 3.092701 0.050000 0.000000
vt 3.042366 0.050000 0.000000
vt 3.092701 0.000000 0.000000
vt 3.042366 0.000000 0.000000
vt 3.017198 0.050000 0.000000
vt 3.017198 0.000000 0.000000
vt 2.992031 0.050000 0.000000
vt 2.992031 0.000000 0.000000
vt 2.966863 0.050000 0.000000
vt 2.966863 0.000000 0.000000
vt 2.941695 0.050000 0.000000
vt 2.941695 0.000000 0.000000
vt 2.916528 0.050000 0.000000
vt 2.916528 0.000000 0.000000
vt 2.891360 0.050000 0.000000
vt 2.891360 0.000000 0.000000
vt 2.866193 0.050000 0.000000
vt 2.866193 0.000000 0.000000
vt 2.841025 0.050000 0.000000
vt 2.841025 0.000000 0.000000
vt 2.790690 0.050000 0.000000
vt 2.790690 0.000000 0.000000
vt 2.740354 0.050000 0.000000
vt 2.740354 0.000000 0.000000
vt 2.715187 0.050000 0.000000
vt 2.715187 0.000000 0.000000
vt 2.690019 0.050000 0.000000
vt 2.690019 0.000000 0.000000
vt 2.639684 0.050000 0.000000
vt 2.639684 0.000000 0.000000
vt 2.614516 0.050000 0.000000
vt 2.614516 0.000000 0.000000
vt 2.589349 0.050000 0.000000
vt 2.589349 0.000000 0.000000
vt 2.564181 0.050000 0.000000
vt 2.564181 0.000000 0.000000
vt 2.539013 0.050000 0.000000
vt 2.539013 0.000000 0.000000
vt 2.488678 0.050000 0.000000
vt 2.488678 0.000000 0.000000
vt 2.463510 0.050000 0.000000
vt 2.463510 0.000000 0.000000
vt 2.438343 0.050000 0.000000
vt 2.438343 0.000000 0.000000
vt 2.413175 0.050000 0.000000
vt 2.413175 0.000000 0.000000
vt 2.388008 0.050000 0.000000
vt 2.388008 0.000000 0.000000
vt 2.362840 0.050000 0.000000
vt 2.362840 0.000000 0.000000
vt 2.337672 0.050000 0.000000
vt 2.337672 0.000000 0.000000
vt 2.312505 0.050000 0.000000
vt 2.312505 0.000000 0.000000
vt 2.287337 0.050000 0.000000
vt 2.287337 0.000000 0.000000
vt -0.050000 0.000000 0.000000
vt 0.000000 0.000000 0.000000
vt -0.050000 0.073099 0.000000
vt 0.000000 0.073099 0.000000
vt 0.140811 -0.236189 0.000000
vt 0.148811 -0.172487 0.000000
vt 0.108257 -0.236552 0.000000
vt 0.099186 -0.180627 0.000000
vt 0.080262 -0.242772 0.000000
vt 0.079919 -0.179559 0.000000
vt 0.062037 -0.175953 0.000000
vt 0.054266 -0.254222 0.000000
vt 0.045531 -0.169822 0.000000
vt 0.015520 -0.212792 0.000000
vt 0.030401 -0.161172 0.000000
vt 0.016646 -0.150010 0.000000
vt -0.006744 -0.206094 0.000000
vt 0.004691 -0.136756 0.000000
vt -0.026651 -0.196770 0.000000
vt -0.004759 -0.122094 0.000000
vt -0.044210 -0.184832 0.000000
vt -0.011624 -0.106122 0.000000
vt -0.059442 -0.170276 0.000000
vt -0.072260 -0.153226 0.000000
vt -0.015973 -0.088768 0.000000
vt -0.082229 -0.134192 0.000000
vt -0.089285 -0.113238 0.000000
vt -0.017783 -0.070065 0.000000
vt -0.093432 -0.090393 0.000000
vt -0.092896 -0.040819 0.000000
vt -0.017067 -0.050803 0.000000
vt -0.088048 -0.017289 0.000000
vt -0.080138 0.004892 0.000000
vt -0.013861 -0.032672 0.000000
vt -0.069177 0.025777 0.000000
vt -0.055105 0.045445 0.000000
vt -0.008166 -0.015746 0.000000
vt 0.000000 0.000000 0.000000
vt -0.018563 0.080041 0.000000
vt 0.010642 0.014530 0.000000
vt 0.002516 0.093355 0.000000
vt 0.023602 0.027708 0.000000
vt 0.025147 0.103674 0.000000
vt 0.037883 0.038589 0.000000
vt 0.053213 0.046959 0.000000
vt 0.075302 0.115597 0.000000
vt 0.069604 0.052855 0.000000
vt 0.087186 0.056289 0.000000
vt 0.105780 0.057247 0.000000
vt 0.130362 0.115806 0.000000
vt 0.124006 0.055640 0.000000
vt 0.140942 0.051387 0.000000
vt 0.156193 0.111354 0.000000
vt 0.156554 0.044538 0.000000
vt 0.180291 0.103830 0.000000
vt 0.170929 0.035107 0.000000
vt 0.202600 0.093220 0.000000
vt 0.183902 0.022818 0.000000
vt 0.223145 0.079458 0.000000
vt 0.195274 0.007372 0.000000
vt 0.241756 0.062730 0.000000
vt 0.204982 -0.011333 0.000000
vt 0.257612 0.044007 0.000000
vt 0.270550 0.023475 0.000000
vt 0.219306 -0.058669 0.000000
vt 0.280565 0.001125 0.000000
vt 0.291764 -0.049008 0.000000
vt -0.020549 -0.235212 0.000000
vt 0.023027 -0.281548 0.000000
vt 0.031578 -0.271025 0.000000
vt 0.042108 -0.261927 0.000000
vt -0.034710 -0.248965 0.000000
vt 0.011919 -0.306716 0.000000
vt 0.016475 -0.293452 0.000000
vt -0.046229 -0.264430 0.000000
vt 0.009342 -0.321495 0.000000
vt -0.055103 -0.281112 0.000000
vt -0.061319 -0.298682 0.000000
vt -0.064841 -0.317161 0.000000
vt 0.008782 -0.337551 0.000000
vt -0.065635 -0.336533 0.000000
vt -0.063821 -0.355823 0.000000
vt -0.059456 -0.374574 0.000000
vt 0.010450 -0.353205 0.000000
vt -0.052526 -0.392785 0.000000
vt -0.043019 -0.410447 0.000000
vt 0.014444 -0.367694 0.000000
vt -0.031117 -0.426795 0.000000
vt -0.016954 -0.441344 0.000000
vt 0.018092 -0.465114 0.000000
vt 0.029360 -0.393119 0.000000
vt 0.020748 -0.380973 0.000000
vt 0.059410 -0.480336 0.000000
vt 0.052576 -0.412890 0.000000
vt 0.040201 -0.404039 0.000000
vt 0.104426 -0.485700 0.000000
vt 0.081341 -0.423790 0.000000
vt 0.066293 -0.419468 0.000000
vt 0.149200 -0.481680 0.000000
vt 0.131376 -0.423293 0.000000
vt 0.115065 -0.425726 0.000000
vt 0.097752 -0.425876 0.000000
vt 0.188830 -0.468606 0.000000
vt 0.160320 -0.411499 0.000000
vt 0.146430 -0.418556 0.000000
vt 0.223267 -0.446446 0.000000
vt 0.184304 -0.390361 0.000000
vt 0.173031 -0.402104 0.000000
vt 0.193877 -0.376262 0.000000
vt 0.251326 -0.415956 0.000000
vt 0.201695 -0.359804 0.000000
vt 0.271765 -0.378029 0.000000
vt 0.212061 -0.319817 0.000000
vt 0.284518 -0.332799 0.000000
vn -0.000000 -0.000000 -1.000000
vn -0.000000 -0.000000 -1.000000
vn -0.000000 -0.000000 -1.000000
vn -0.000000 -0.000000 -1.000000
vn -0.000000 -0.000000 -1.000000
vn -0.000000 -0.000000 -1.000000
vn -0.000000 -0.000000 -1.000000
vn -0.000000 -0.000000 -1.000000
vn -0.000000 -0.000000 -1.000000
vn -0.000000 -0.000000 -1.000000
vn -0.000000 -0.000000 -1.000000
vn -0.000000 -0.000000 -1.000000
vn -0.000000 -0.000000 -1.000000
vn -0.000000 -0.000000 -1.000000
vn -0.000000 -0.000000 -1.000000
vn -0.000000 -0.000000 -1.000000
vn -0.000000 -0.000000 -1.000000
vn -0.000000 -0.000000 -1.000000
vn -0.000000 -0.000000 -1.000000
vn -0.000000 -0.000000 -1.000000
vn -0.000000 -0.000000 -1.000000
vn -0.000000 -0.000000 -1.000000
vn -0.000000 -0.000000 -1.000000
vn -0.000000 -0.000000 -1.000000
vn -0.000000 -0.000000 -1.000000
vn -0.000000 -0.000000 -1.000000
vn -0.000000 -0.000000 -1.000000
vn -0.000000 -0.000000 -1.000000
vn -0.000000 -0.000000 -1.000000
vn -0.000000 -0.000000 -1.000000
vn -0.000000 -0.000000 -1.000000
vn -0.000000 -0.000000 -1.000000
vn -0.000000 -0.000000 -1.000000
vn -0.000000 -0.000000 -1.000000
vn -0.000000 -0.000000 -1.000000
vn -0.000000 -0.000000 -1.000000
vn -0.000000 -0.000000 -1.000000
vn -0.000000 -0.000000 -1.000000
vn -0.000000 -0.000000 -1.000000
vn -0.000000 -0.000000 -1.000000
vn -0.000000 -0.000000 -1.000000
vn -0.000000 -0.000000 -1.000000
vn -0.000000 -0.000000 -1.000000
vn -0.000000 -0.000000 -1.000000
vn -0.000000 -0.000000 -1.000000
vn -0.000000 -0.000000 -1.000000
vn -0.000000 -0.000000 -1.000000
vn -0.000000 -0.000000 -1.000000
vn -0.000000 -0.000000 -1.000000
vn -0.000000 -0.000000 -1.000000
vn -0.000000 -0.000000 -1.000000
vn -0.000000 -0.000000 -1.000000
vn -0.000000 -0.000000 -1.000000
vn -0.000000 -0.000000 -1.000000
vn -0.000000 -0.000000 -1.000000
vn -0.000000 -0.000000 -1.000000
vn -0.000000 -0.000000 -1.000000
vn -0.000000 -0.000000 -1.000000
vn -0.000000 -0.000000 -1.000000
vn -0.000000 -0.000000 -1.000000
vn -0.000000 -0.000000 -1.000000
vn -0.000000 -0.000000 -1.000000
vn -0.000000 -0.000000 -1.000000
vn -0.000000 -0.000000 -1.000000
vn -0.000000 -0.000000 -1.000000
vn -0.000000 -0.000000 -1.000000
vn -0.000000 -0.000000 -1.000000
vn -0.000000 -0.000000 -1.000000
vn -0.000000 -0.000000 -1.000000
vn -0.000000 -0.000000 -1.000000
vn -0.000000 -0.000000 -1.000000
vn -0.000000 -0.000000 -1.000000
vn -0.000000 -0.000000 -1.000000
vn -0.000000 -0.000000 -1.000000
vn -0.000000 -0.000000 -1.000000
vn -0.000000 -0.000000 -1.000000
vn -0.000000 -0.000000 -1.000000
vn -0.000000 -0.000000 -1.000000
vn -0.000000 -0.000000 -1.000000
vn -0.000000 -0.000000 -1.000000
vn -0.000000 -0.000000 -1.000000
vn -0.000000 -0.000000 -1.000000
vn -0.000000 -0.000000 -1.000000
vn -0.000000 -0.000000 -1.000000
vn -0.000000 -0.000000 -1.000000
vn -0.000000 -0.000000 -1.000000
vn -0.000000 -0.000000 -1.000000
vn -0.000000 -0.000000 -1.000000
vn -0.000000 -0.000000 -1.000000
vn -0.000000 -0.000000 -1.000000
vn -0.000000 -0.000000 -1.000000
vn -0.000000 -0.000000 -1.000000
vn -0.000000 -0.000000 -1.000000
vn -0.000000 -0.000000 -1.000000
vn -0.000000 -0.000000 -1.000000
vn -0.000000 -0.000000 -1.000000
vn -0.000000 -0.000000 -1.000000
vn -0.000000 -0.000000 -1.000000
vn -0.000000 -0.000000 -1.000000
vn -0.000000 -0.000000 -1.000000
vn -0.000000 -0.000000 -1.000000
vn -0.000000 -0.000000 -1.000000
vn -0.000000 -0.000000 -1.000000
vn -0.000000 -0.000000 -1.000000
vn -0.000000 -0.000000 -1.000000
vn -0.000000 -0.000000 -1.000000
vn -0.000000 -0.000000 -1.000000
vn -0.000000 -0.000000 -1.000000
vn -0.000000 -0.000000 -1.000000
vn -0.000000 -0.000000 -1.000000
vn -0.000000 -0.000000 -1.000000
vn -0.000000 -0.000000 -1.000000
vn -0.000000 -0.000000 -1.000000
vn -0.000000 -0.000000 -1.000000
vn -0.000000 -0.000000 -1.000000
vn -0.000000 -0.000000 -1.000000
vn -0.000000 -0.000000 -1.000000
vn -0.000000 -0.000000 -1.000000
vn -0.000000 -0.000000 -1.000000
vn -0.000000 -0.000000 -1.000000
vn -0.000000 -0.000000 -1.000000
vn -0.000000 -0.000000 -1.000000
vn -0.000000 -0.000000 -1.000000
vn -0.000000 -0.000000 -1.000000
vn -0.000000 -0.000000 -1.000000
vn -0.000000 -0.000000 -1.000000
vn -0.000000 -0.000000 -1.000000
vn -0.000000 -0.000000 -1.000000
vn -0.000000 -0.000000 -1.000000
vn -0.000000 -0.000000 -1.000000
vn -0.000000 -0.000000 -1.000000
vn -0.000000 -0.000000 -1.000000
vn -0.000000 -0.000000 -1.000000
vn -0.000000 -0.000000 -1.000000
vn -0.000000 -0.000000 -1.000000
vn -0.000000 -0.000000 -1.000000
vn -0.000000 -0.000000 -1.000000
vn -0.000000 -0.000000 -1.000000
vn -0.000000 -0.000000 -1.000000
vn -0.000000 -0.000000 -1.000000
vn -0.000000 -0.000000 -1.000000
vn -0.000000 -0.000000 -1.000000
vn -0.000000 -0.000000 -1.000000
vn -0.000000 -0.000000 -1.000000
vn -0.000000 -0.000000 -1.000000
vn -0.000000 -0.000000 -1.000000
vn -0.000000 -0.000000 -1.000000
vn -0.000000 -0.000000 -1.000000
vn -0.000000 -0.000000 -1.000000
vn -0.000000 -0.000000 -1.000000
vn -0.000000 -0.000000 -1.000000
vn -0.000000 -0.000000 -1.000000
vn -0.000000 -0.000000 -1.000000
vn -0.000000 -0.000000 -1.000000
vn -0.000000 -0.000000 -1.000000
vn -0.000000 -0.000000 -1.000000
vn -0.000000 -0.000000 -1.000000
vn -0.000000 -0.000000 -1.000000
vn -0.000000 -0.000000 -1.000000
vn -0.000000 -0.000000 -1.000000
vn -0.000000 -0.000000 -1.000000
vn -0.000000 -0.000000 -1.000000
vn -0.000000 -0.000000 -1.000000
vn -0.000000 -0.000000 -1.000000
vn -0.000000 -0.000000 -1.000000
vn -0.000000 -0.000000 -1.000000
vn -0.000000 -0.000000 -1.000000
vn -0.000000 -0.000000 -1.000000
vn -0.000000 -0.000000 -1.000000
vn -0.000000 -0.000000 -1.000000
vn -0.000000 -0.000000 -1.000000
vn -0.000000 -0.000000 -1.000000
vn -0.000000 -0.000000 -1.000000
vn -0.000000 -0.000000 -1.000000
vn -0.000000 1.000000 -0.000000
vn -0.000000 1.000000 -0.000000
vn -0.000000 1.000000 -0.000000
vn -0.000000 1.000000 -0.000000
vn 0.000000 0.000000 1.000000
vn 0.000000 0.000000 1.000000
vn 0.000000 0.000000 1.000000
vn 0.000000 0.000000 1.000000
vn 0.000000 0.000000 1.000000
vn 0.000000 0.000000 1.000000
vn 0.000000 0.000000 1.000000
vn 0.000000 0.000000 1.000000
vn 0.000000 0.000000 1.000000
vn 0.000000 0.000000 1.000000
vn 0.000000 0.000000 1.000000
vn 0.000000 0.000000 1.000000
vn 0.000000 0.000000 1.000000
vn 0.000000 0.000000 1.000000
vn 0.000000 0.000000 1.000000
vn 0.000000 0.000000 1.000000
vn 0.000000 0.000000 1.000000
vn 0.000000 0.000000 1.000000
vn 0.000000 0.000000 1.000000
vn 0.000000 0.000000 1.000000
vn 0.000000 0.000000 1.000000
vn 0.000000 0.000000 1.000000
vn 0.000000 0.000000 1.000000
vn 0.000000 0.000000 1.000000
vn 0.000000 0.000000 1.000000
vn 0.000000 0.000000 1.000000
vn 0.000000 0.000000 1.000000
vn 0.000000 0.000000 1.000000
vn 0.000000 0.000000 1.000000
vn 0.000000 0.000000 1.000000
vn 0.000000 0.000000 1.000000
vn 0.000000 0.000000 1.000000
vn 0.000000 0.000000 1.000000
vn 0.000000 0.000000 1.000000
vn 0.000000 0.000000 1.000000
vn 0.000000 0.000000 1.000000
vn 0.000000 0.000000 1.000000
vn 0.000000 0.000000 1.000000
vn 0.000000 0.000000 1.000000
vn 0.000000 0.000000 1.000000
vn 0.000000 0.000000 1.000000
vn 0.000000 0.000000 1.000000
vn 0.000000 0.000000 1.000000
vn 0.000000 0.000000 1.000000
vn 0.000000 0.000000 1.000000
vn 0.000000 0.000000 1.000000
vn 0.000000 0.000000 1.000000
vn 0.000000 0.000000 1.000000
vn 0.000000 0.000000 1.000000
vn 0.000000 0.000000 1.000000
vn 0.000000 0.000000 1.000000
vn 0.000000 0.000000 1.000000
vn 0.000000 0.000000 1.000000
vn 0.000000 0.000000 1.000000
vn 0.000000 0.000000 1.000000
vn 0.000000 0.000000 1.000000
vn -0.000000 1.000000 -0.000000
vn -0.000000 1.000000 -0.000000
vn -0.000000 1.000000 -0.000000
vn -0.000000 1.000000 -0.000000
vn -1.000000 -0.000000 0.000000
vn -1.000000 -0.000000 0.000000
vn -1.000000 -0.000000 0.000000
vn -1.000000 -0.000000 0.000000
vn -0.000000 -1.000000 0.000000
vn -0.000000 -1.000000 0.000000
vn -0.000000 -1.000000 0.000000
vn -0.000000 -1.000000 0.000000
vn -1.000000 -0.000000 0.000000
vn -1.000000 -0.000000 0.000000
vn -1.000000 -0.000000 0.000000
vn -1.000000 -0.000000 0.000000
vn -0.000000 -1.000000 -0.000000
vn -0.000000 -1.000000 -0.000000
vn -0.000000 -1.000000 -0.000000
vn -0.000000 -1.000000 -0.000000
vn 1.000000 -0.000000 -0.000000
vn 1.000000 -0.000000 -0.000000
vn 1.000000 -0.000000 -0.000000
vn 1.000000 -0.000000 -0.000000
vn -0.000000 -1.000000 -0.000000
vn -0.000000 -1.000000 -0.000000
vn -0.000000 -1.000000 -0.000000
vn -0.000000 -1.000000 -0.000000
vn -1.000000 -0.000000 0.000000
vn -1.000000 -0.000000 0.000000
vn -1.000000 -0.000000 0.000000
vn -1.000000 -0.000000 0.000000
vn -0.000000 -1.000000 -0.000000
vn -0.000000 -1.000000 -0.000000
vn -0.000000 -1.000000 -0.000000
vn -0.000000 -1.000000 -0.000000
vn 1.000000 -0.000000 -0.000000
vn 1.000000 -0.000000 -0.000000
vn 1.000000 -0.000000 -0.000000
vn 1.000000 -0.000000 -0.000000
vn -0.000000 -1.000000 -0.000000
vn -0.000000 -1.000000 -0.000000
vn -0.000000 -1.000000 -0.000000
vn -0.000000 -1.000000 -0.000000
vn 1.000000 -0.000000 -0.000000
vn 1.000000 -0.000000 -0.000000
vn 1.000000 -0.000000 -0.000000
vn 1.000000 -0.000000 -0.000000
vn -0.000000 1.000000 -0.000000
vn -0.000000 1.000000 -0.000000
vn -0.000000 1.000000 -0.000000
vn -0.000000 1.000000 -0.000000
vn 1.000000 -0.000000 -0.000000
vn 1.000000 -0.000000 -0.000000
vn 1.000000 -0.000000 -0.000000
vn 1.000000 -0.000000 -0.000000
vn -0.000000 1.000000 -0.000000
vn -0.000000 1.000000 -0.000000
vn -0.000000 1.000000 -0.000000
vn -0.000000 1.000000 -0.000000
vn 1.000000 -0.000000 -0.000000
vn 1.000000 -0.000000 -0.000000
vn 1.000000 -0.000000 -0.000000
vn 1.000000 -0.000000 -0.000000
vn -0.000000 1.000000 -0.000000
vn -0.000000 1.000000 -0.000000
vn -0.000000 1.000000 -0.000000
vn -0.000000 1.000000 -0.000000
vn -1.000000 -0.000000 0.000000
vn -1.000000 -0.000000 0.000000
vn -1.000000 -0.000000 0.000000
vn -1.000000 -0.000000 0.000000
vn -0.000000 1.000000 -0.000000
vn -0.000000 1.000000 -0.000000
vn -0.000000 1.000000 -0.000000
vn -0.000000 1.000000 -0.000000
vn 1.000000 -0.000000 -0.000000
vn 1.000000 -0.000000 -0.000000
vn 1.000000 -0.000000 -0.000000
vn 1.000000 -0.000000 -0.000000
vn -0.000000 1.000000 -0.000000
vn -0.000000 1.000000 -0.000000
vn -0.000000 1.000000 -0.000000
vn -0.000000 1.000000 -0.000000
vn -1.000000 -0.000000 0.000000
vn -1.000000 -0.000000 0.000000
vn -1.000000 -0.000000 0.000000
vn -1.000000 -0.000000 0.000000
vn -0.000000 1.000000 -0.000000
vn -0.000000 1.000000 -0.000000
vn -0.000000 1.000000 -0.000000
vn -0.000000 1.000000 -0.000000
vn -1.000000 -0.000000 0.000000
vn -1.000000 -0.000000 0.000000
vn -1.000000 -0.000000 0.000000
vn -1.000000 -0.000000 0.000000
vn -0.000000 1.000000 -0.000000
vn -0.000000 1.000000 -0.000000
vn -0.000000 1.000000 -0.000000
vn -0.000000 1.000000 -0.000000
vn -1.000000 0.000000 0.000000
vn -1.000000 0.000000 0.000000
vn -1.000000 0.000000 0.000000
vn -1.000000 0.000000 0.000000
vn 1.000000 0.000000 0.000000
vn 1.000000 0.000000 0.000000
vn 1.000000 0.000000 0.000000
vn 1.000000 0.000000 0.000000
vn -0.000000 1.000000 0.000000
vn -0.000000 1.000000 0.000000
vn -0.000000 1.000000 0.000000
vn -0.000000 1.000000 0.000000
vn 0.258819 0.965926 0.000000
vn 0.258819 0.965926 0.000000
vn 0.500000 0.866025 0.000000
vn 0.500000 0.866025 0.000000
vn 0.707107 0.707107 0.000000
vn 0.707107 0.707107 0.000000
vn 0.866025 0.500000 0.000000
vn 0.866025 0.500000 0.000000
vn 0.965926 0.258819 0.000000
vn 0.965926 0.258819 0.000000
vn -0.965926 0.258819 0.000000
vn -0.965926 0.258819 0.000000
vn -0.866025 0.500000 0.000000
vn -0.866025 0.500000 0.000000
vn -0.707107 0.707107 0.000000
vn -0.707107 0.707107 0.000000
vn -0.500000 0.866025 0.000000
vn -0.500000 0.866025 0.000000
vn -0.258819 0.965926 0.000000
vn -0.258819 0.965926 0.000000
vn 1.000000 -0.000000 -0.000000
vn 1.000000 -0.000000 -0.000000
vn 1.000000 -0.000000 -0.000000
vn 1.000000 -0.000000 -0.000000
vn -1.000000 -0.000000 0.000000
vn -1.000000 -0.000000 0.000000
vn -1.000000 -0.000000 0.000000
vn -1.000000 -0.000000 0.000000
vn -0.000000 1.000000 -0.000000
vn -0.000000 1.000000 -0.000000
vn -0.000000 1.000000 -0.000000
vn -0.000000 1.000000 -0.000000
vn -0.965926 0.258819 0.000000
vn -0.965926 0.258819 0.000000
vn -0.866025 0.500000 0.000000
vn -0.866025 0.500000 0.000000
vn -0.707107 0.707107 0.000000
vn -0.707107 0.707107 0.000000
vn -0.500000 0.866025 0.000000
vn -0.500000 0.866025 0.000000
vn -0.258819 0.965926 0.000000
vn -0.258819 0.965926 0.000000
vn 0.258819 0.965926 0.000000
vn 0.258819 0.965926 0.000000
vn 0.500000 0.866025 0.000000
vn 0.500000 0.866025 0.000000
vn 0.707107 0.707107 0.000000
vn 0.707107 0.707107 0.000000
vn 0.866025 0.500000 0.000000
vn 0.866025 0.500000 0.000000
vn 0.965926 0.258819 0.000000
vn 0.965926 0.258819 0.000000
vn 1.000000 -0.000000 -0.000000
vn 1.000000 -0.000000 -0.000000
vn 1.000000 -0.000000 -0.000000
vn 1.000000 -0.000000 -0.000000
vn 0.000000 -1.000000 -0.000000
vn 0.000000 -1.000000 -0.000000
vn 0.000000 -1.000000 -0.000000
vn 0.000000 -1.000000 -0.000000
vn -1.000000 -0.000000 -0.000000
vn -1.000000 -0.000000 -0.000000
vn -1.000000 -0.000000 -0.000000
vn -1.000000 -0.000000 -0.000000
vn -0.000000 -1.000000 0.000000
vn -0.000000 -1.000000 0.000000
vn -0.000000 -1.000000 0.000000
vn -0.000000 -1.000000 0.000000
vn 1.000000 0.000000 0.000000
vn 1.000000 0.000000 0.000000
vn 1.000000 0.000000 0.000000
vn 1.000000 0.000000 0.000000
vn -0.000000 1.000000 0.000000
vn -0.000000 1.000000 0.000000
vn -0.000000 1.000000 0.000000
vn -0.000000 1.000000 0.000000
vn -1.000000 0.000000 0.000000
vn -1.000000 0.000000 0.000000
vn -1.000000 0.000000 0.000000
vn -1.000000 0.000000 0.000000
vn 0.000000 1.000000 -0.000000
vn 0.000000 1.000000 -0.000000
vn 0.000000 1.000000 -0.000000
vn 0.000000 1.000000 -0.000000
vn -0.000000 -0.000000 -1.000000
vn -0.000000 -0.000000 -1.000000
vn -0.000000 -0.000000 -1.000000
vn -0.000000 -0.000000 -1.000000
vn -0.000000 -0.000000 -1.000000
vn -0.000000 -0.000000 -1.000000
vn -0.000000 -0.000000 -1.000000
vn -0.000000 -0.000000 -1.000000
vn -0.257663 -0.966235 -0.000000
vn -0.017374 -0.999849 -0.000000
vn -0.257663 -0.966235 -0.000000
vn -0.017374 -0.999849 -0.000000
vn 0.124110 -0.992268 0.000000
vn 0.124110 -0.992268 0.000000
vn 0.272865 -0.962052 0.000000
vn 0.272865 -0.962052 0.000000
vn 0.423086 -0.906089 0.000000
vn 0.423086 -0.906089 0.000000
vn 0.565979 -0.824419 0.000000
vn 0.565979 -0.824419 0.000000
vn 0.688713 -0.725034 0.000000
vn 0.688713 -0.725034 0.000000
vn 0.793099 -0.609093 0.000000
vn 0.793099 -0.609093 0.000000
vn 0.882858 -0.469641 0.000000
vn 0.882858 -0.469641 0.000000
vn 0.947756 -0.318996 0.000000
vn 0.947756 -0.318996 0.000000
vn 0.985759 -0.168165 0.000000
vn 0.985759 -0.168165 0.000000
vn 0.999605 -0.028107 0.000000
vn 0.999605 -0.028107 0.000000
vn 0.994623 0.103565 0.000000
vn 0.994623 0.103565 0.000000
vn 0.969100 0.246669 0.000000
vn 0.969100 0.246669 0.000000
vn 0.920620 0.390460 0.000000
vn 0.920620 0.390460 0.000000
vn 0.849575 0.527468 0.000000
vn 0.849575 0.527468 0.000000
vn 0.760626 0.649190 0.000000
vn 0.760626 0.649190 0.000000
vn 0.662146 0.749375 0.000000
vn 0.662146 0.749375 0.000000
vn 0.544726 0.838614 0.000000
vn 0.544726 0.838614 0.000000
vn 0.410239 0.911978 0.000000
vn 0.410239 0.911978 0.000000
vn 0.265135 0.964211 0.000000
vn 0.265135 0.964211 0.000000
vn 0.120019 0.992772 0.000000
vn 0.120019 0.992772 0.000000
vn -0.016394 0.999866 0.000000
vn -0.016394 0.999866 0.000000
vn -0.163626 0.986522 0.000000
vn -0.163626 0.986522 0.000000
vn -0.323998 0.946058 0.000000
vn -0.323998 0.946058 0.000000
vn -0.475962 0.879466 0.000000
vn -0.475962 0.879466 0.000000
vn -0.618847 0.785512 0.000000
vn -0.618847 0.785512 0.000000
vn -0.750166 0.661250 0.000000
vn -0.750166 0.661250 0.000000
vn -0.850692 0.525665 0.000000
vn -0.850692 0.525665 0.000000
vn -0.916822 0.399296 0.000000
vn -0.916822 0.399296 0.000000
vn -0.980163 0.198195 0.000000
vn -0.980163 0.198195 0.000000
vn 0.992205 0.124613 -0.000000
vn 0.992205 0.124613 -0.000000
vn 0.992205 0.124613 -0.000000
vn 0.992205 0.124613 -0.000000
vn -0.988469 -0.151425 -0.000000
vn -0.930544 -0.366181 -0.000000
vn -0.988469 -0.151425 -0.000000
vn -0.930544 -0.366181 -0.000000
vn -0.869098 -0.494641 -0.000000
vn -0.869098 -0.494641 -0.000000
vn -0.777529 -0.628848 -0.000000
vn -0.777529 -0.628848 -0.000000
vn -0.659489 -0.751714 -0.000000
vn -0.659489 -0.751714 -0.000000
vn -0.525252 -0.850947 -0.000000
vn -0.525252 -0.850947 -0.000000
vn -0.377370 -0.926063 -0.000000
vn -0.377370 -0.926063 -0.000000
vn -0.223151 -0.974784 -0.000000
vn -0.223151 -0.974784 -0.000000
vn -0.075194 -0.997169 -0.000000
vn -0.075194 -0.997169 -0.000000
vn 0.056776 -0.998387 0.000000
vn 0.056776 -0.998387 0.000000
vn 0.199507 -0.979896 0.000000
vn 0.199507 -0.979896 0.000000
vn 0.354228 -0.935159 0.000000
vn 0.354228 -0.935159 0.000000
vn 0.508741 -0.860920 0.000000
vn 0.508741 -0.860920 0.000000
vn 0.649504 -0.760358 0.000000
vn 0.649504 -0.760358 0.000000
vn 0.764552 -0.644562 0.000000
vn 0.764552 -0.644562 0.000000
vn 0.862482 -0.506088 0.000000
vn 0.862482 -0.506088 0.000000
vn 0.937409 -0.348231 0.000000
vn 0.937409 -0.348231 0.000000
vn 0.982945 -0.183898 0.000000
vn 0.982945 -0.183898 0.000000
vn 0.999474 -0.032425 0.000000
vn 0.999474 -0.032425 0.000000
vn 0.994834 0.101513 0.000000
vn 0.994834 0.101513 0.000000
vn 0.969048 0.246874 0.000000
vn 0.969048 0.246874 0.000000
vn 0.914751 0.404018 0.000000
vn 0.914751 0.404018 0.000000
vn 0.829709 0.558195 0.000000
vn 0.829709 0.558195 0.000000
vn 0.716608 0.697476 0.000000
vn 0.716608 0.697476 0.000000
vn 0.589753 0.807584 0.000000
vn 0.589753 0.807584 0.000000
vn 0.488767 0.872415 0.000000
vn 0.488767 0.872415 0.000000
vn 0.310595 0.950542 0.000000
vn 0.310595 0.950542 0.000000
vn 0.124505 0.992219 0.000000
vn 0.124505 0.992219 0.000000
vn -0.124035 0.992278 0.000000
vn -0.124035 0.992278 0.000000
vn 0.176358 -0.984326 0.000000
vn 0.176358 -0.984326 0.000000
vn 0.176358 -0.984326 0.000000
vn 0.176358 -0.984326 0.000000
vn -0.420358 -0.907358 -0.000000
vn -0.640044 -0.768338 -0.000000
vn -0.420358 -0.907358 -0.000000
vn -0.640044 -0.768338 -0.000000
vn -0.751986 -0.659179 -0.000000
vn -0.751986 -0.659179 -0.000000
vn -0.845718 -0.533630 -0.000000
vn -0.845718 -0.533630 -0.000000
vn -0.915270 -0.402841 -0.000000
vn -0.915270 -0.402841 -0.000000
vn -0.965149 -0.261702 -0.000000
vn -0.965149 -0.261702 -0.000000
vn -0.993678 -0.112271 -0.000000
vn -0.993678 -0.112271 -0.000000
vn -0.999632 0.027143 0.000000
vn -0.999632 0.027143 0.000000
vn -0.987081 0.160223 0.000000
vn -0.987081 0.160223 0.000000
vn -0.956343 0.292245 0.000000
vn -0.956343 0.292245 0.000000
vn -0.909435 0.415846 0.000000
vn -0.909435 0.415846 0.000000
vn -0.847418 0.530927 0.000000
vn -0.847418 0.530927 0.000000
vn -0.764624 0.644476 0.000000
vn -0.764624 0.644476 0.000000
vn -0.666081 0.745880 0.000000
vn -0.666081 0.745880 0.000000
vn -0.455660 0.890154 0.000000
vn -0.455660 0.890154 0.000000
vn -0.230983 0.972958 0.000000
vn -0.230983 0.972958 0.000000
vn -0.011862 0.999930 0.000000
vn -0.011862 0.999930 0.000000
vn 0.198396 0.980122 0.000000
vn 0.198396 0.980122 0.000000
vn 0.429550 0.903043 0.000000
vn 0.429550 0.903043 0.000000
vn 0.643755 0.765232 0.000000
vn 0.643755 0.765232 0.000000
vn 0.815281 0.579065 0.000000
vn 0.815281 0.579065 0.000000
vn 0.929018 0.370034 0.000000
vn 0.929018 0.370034 0.000000
vn 0.983525 0.180772 0.000000
vn 0.983525 0.180772 0.000000
vn 0.995188 -0.097988 0.000000
vn 0.938617 -0.344962 0.000000
vn 0.995188 -0.097988 0.000000
vn 0.938617 -0.344962 0.000000
vn 0.881615 -0.471969 0.000000
vn 0.881615 -0.471969 0.000000
vn 0.806325 -0.591473 0.000000
vn 0.806325 -0.591473 0.000000
vn 0.717274 -0.696792 0.000000
vn 0.717274 -0.696792 0.000000
vn 0.615366 -0.788242 0.000000
vn 0.615366 -0.788242 0.000000
vn 0.494113 -0.869398 0.000000
vn 0.494113 -0.869398 0.000000
vn 0.363716 -0.931510 0.000000
vn 0.363716 -0.931510 0.000000
vn 0.233114 -0.972449 0.000000
vn 0.233114 -0.972449 0.000000
vn 0.108640 -0.994081 0.000000
vn 0.108640 -0.994081 0.000000
vn -0.113315 -0.993559 -0.000000
vn -0.113315 -0.993559 -0.000000
vn -0.353678 -0.935367 -0.000000
vn -0.353678 -0.935367 -0.000000
vn -0.475208 -0.879874 -0.000000
vn -0.475208 -0.879874 -0.000000
vn -0.589925 -0.807458 -0.000000
vn -0.589925 -0.807458 -0.000000
vn -0.773283 -0.634061 -0.000000
vn -0.773283 -0.634061 -0.000000
vn -0.851006 -0.525155 -0.000000
vn -0.851006 -0.525155 -0.000000
vn -0.915910 -0.401385 -0.000000
vn -0.915910 -0.401385 -0.000000
vn -0.963117 -0.269083 -0.000000
vn -0.963117 -0.269083 -0.000000
vn -0.990804 -0.135303 -0.000000
vn -0.990804 -0.135303 -0.000000
vn -0.993662 0.112407 0.000000
vn -0.993662 0.112407 0.000000
vn -0.968816 0.247781 0.000000
vn -0.968816 0.247781 0.000000
vn -0.920134 0.391603 0.000000
vn -0.920134 0.391603 0.000000
vn -0.845224 0.534412 0.000000
vn -0.845224 0.534412 0.000000
vn -0.748033 0.663662 0.000000
vn -0.748033 0.663662 0.000000
vn -0.628525 0.777789 0.000000
vn -0.628525 0.777789 0.000000
vn -0.493631 0.869672 0.000000
vn -0.493631 0.869672 0.000000
vn -0.355265 0.934766 0.000000
vn -0.355265 0.934766 0.000000
vn -0.223627 0.974675 0.000000
vn -0.223627 0.974675 0.000000
vn 0.132164 0.991228 -0.000000
vn 0.132164 0.991228 -0.000000
vn 0.132164 0.991228 -0.000000
vn 0.132164 0.991228 -0.000000
vn -0.000000 -0.000000 -1.000000
vn -0.000000 -0.000000 -1.000000
vn -0.000000 -0.000000 -1.000000
vn -0.000000 -0.000000 -1.000000
vn -0.000000 -0.000000 -1.000000
vn -0.000000 -0.000000 -1.000000
vn -0.000000 -0.000000 -1.000000
vn -0.000000 -0.000000 -1.000000
vn -0.000000 -0.000000 -1.000000
vn -0.000000 -0.000000 -1.000000
vn -0.000000 -0.000000 -1.000000
vn -0.000000 -0.000000 -1.000000
vn -0.000000 -0.000000 -1.000000
vn -0.000000 -0.000000 -1.000000
vn -0.000000 -0.000000 -1.000000
vn -0.000000 -0.000000 -1.000000
vn -0.000000 -0.000000 -1.000000
vn -0.000000 -0.000000 -1.000000
vn -0.000000 -0.000000 -1.000000
vn -0.000000 -0.000000 -1.000000
vn -0.000000 -0.000000 -1.000000
vn -0.000000 -0.000000 -1.000000
vn -0.000000 -0.000000 -1.000000
vn -0.000000 -0.000000 -1.000000
vn -0.000000 -0.000000 -1.000000
vn -0.000000 -0.000000 -1.000000
vn -0.000000 -0.000000 -1.000000
vn -0.000000 -0.000000 -1.000000
vn -0.000000 -0.000000 -1.000000
vn -0.000000 -0.000000 -1.000000
vn -0.000000 -0.000000 -1.000000
vn -0.000000 -0.000000 -1.000000
vn -0.000000 -0.000000 -1.000000
vn -0.000000 -0.000000 -1.000000
vn -0.000000 -0.000000 -1.000000
vn -0.000000 -0.000000 -1.000000
vn -0.000000 -0.000000 -1.000000
vn -0.000000 -0.000000 -1.000000
vn -0.000000 -0.000000 -1.000000
vn -0.000000 -0.000000 -1.000000
vn -0.000000 -0.000000 -1.000000
vn -0.000000 -0.000000 -1.000000
vn -0.000000 -0.000000 -1.000000
vn -0.000000 -0.000000 -1.000000
vn -0.000000 -0.000000 -1.000000
vn -0.000000 -0.000000 -1.000000
vn -0.000000 -0.000000 -1.000000
vn -0.000000 -0.000000 -1.000000
vn -0.000000 -0.000000 -1.000000
vn -0.000000 -0.000000 -1.000000
vn -0.000000 -0.000000 -1.000000
vn -0.000000 -0.000000 -1.000000
vn -0.000000 -0.000000 -1.000000
vn -0.000000 -0.000000 -1.000000
vn -0.000000 -0.000000 -1.000000
vn -0.000000 -0.000000 -1.000000
vn -0.000000 -0.000000 -1.000000
vn -0.000000 -0.000000 -1.000000
vn -0.000000 -0.000000 -1.000000
vn -0.000000 -0.000000 -1.000000
vn -0.000000 -0.000000 -1.000000
vn -0.000000 -0.000000 -1.000000
vn -0.000000 -0.000000 -1.000000
vn -0.000000 -0.000000 -1.000000
vn -0.000000 -0.000000 -1.000000
vn -0.000000 -0.000000 -1.000000
vn -0.000000 -0.000000 -1.000000
vn -0.000000 -0.000000 -1.000000
vn -0.000000 -0.000000 -1.000000
vn -0.000000 -0.000000 -1.000000
vn -0.000000 -0.000000 -1.000000
vn -0.000000 -0.000000 -1.000000
vn -0.000000 -0.000000 -1.000000
vn -0.000000 -0.000000 -1.000000
vn -0.000000 -0.000000 -1.000000
vn -0.000000 -0.000000 -1.000000
vn -0.000000 -0.000000 -1.000000
vn -0.000000 -0.000000 -1.000000
vn -0.000000 -0.000000 -1.000000
vn -0.000000 -0.000000 -1.000000
vn -0.000000 -0.000000 -1.000000
vn -0.000000 -0.000000 -1.000000
vn -0.000000 -0.000000 -1.000000
vn -0.000000 -0.000000 -1.000000
vn -0.000000 -0.000000 -1.000000
vn -0.000000 -0.000000 -1.000000
vn -0.000000 -0.000000 -1.000000
vn -0.000000 -0.000000 -1.000000
vn -0.000000 -0.000000 -1.000000
vn -0.000000 -0.000000 -1.000000
vn -0.000000 -0.000000 -1.000000
vn -0.000000 -0.000000 -1.000000
vn -0.000000 -0.000000 -1.000000
vn -0.000000 -0.000000 -1.000000
vn -0.000000 -0.000000 -1.000000
vn -0.000000 -0.000000 -1.000000
vn -0.000000 -0.000000 -1.000000
vn -0.000000 -0.000000 -1.000000
vn -0.000000 -0.000000 -1.000000
vn -0.000000 -0.000000 -1.000000
vn -0.000000 -0.000000 -1.000000
vn -0.000000 -0.000000 -1.000000
vn -0.000000 -0.000000 -1.000000
vn -0.000000 -0.000000 -1.000000
vn -0.000000 -0.000000 -1.000000
vn -0.000000 -0.000000 -1.000000
vn -0.000000 -0.000000 -1.000000
vn -0.000000 -0.000000 -1.000000
vn -0.000000 -0.000000 -1.000000
vn -0.000000 -0.000000 -1.000000
usemtl Opaque(65,96,255)
f 2/1/1 105/2/2 1/3/3
f 1/3/3 105/2/2 106/4/4
f 1/3/3 106/4/4 107/5/5
f 3/6/6 95/7/7 2/1/1
f 2/1/1 95/7/7 96/8/8
f 2/1/1 96/8/8 97/9/9
f 4/10/10 71/11/11 3/6/6
f 3/6/6 71/11/11 72/12/12
f 3/6/6 72/12/12 73/13/13
f 1/3/3 114/14/14 4/10/10
f 4/10/10 114/14/14 65/15/15
f 4/10/10 65/15/15 66/16/16
f 6/17/17 34/18/18 5/19/19
f 5/19/19 34/18/18 35/20/20
f 5/19/19 35/20/20 114/14/14
f 114/14/14 35/20/20 65/15/15
f 7/21/21 15/22/22 6/17/17
f 6/17/17 15/22/22 16/23/23
f 6/17/17 16/23/23 17/24/24
f 7/21/21 8/25/25 15/22/22
f 15/22/22 8/25/25 9/26/26
f 15/22/22 9/26/26 10/27/27
f 10/27/27 11/28/28 15/22/22
f 15/22/22 11/28/28 12/29/29
f 15/22/22 12/29/29 13/30/30
f 13/30/30 14/31/31 15/22/22
f 17/24/24 18/32/32 6/17/17
f 6/17/17 18/32/32 19/33/33
f 6/17/17 19/33/33 20/34/34
f 20/34/34 21/35/35 6/17/17
f 6/17/17 21/35/35 22/36/36
f 6/17/17 22/36/36 23/37/37
f 6/17/17 23/37/37 34/18/18
f 34/18/18 23/37/37 24/38/38
f 34/18/18 24/38/38 25/39/39
f 25/39/39 26/40/40 34/18/18
f 34/18/18 26/40/40 27/41/41
f 34/18/18 27/41/41 28/42/42
f 28/42/42 29/43/43 34/18/18
f 34/18/18 29/43/43 33/44/44
f 33/44/44 29/43/43 32/45/45
f 32/45/45 29/43/43 30/46/46
f 32/45/45 30/46/46 31/47/47
f 65/15/15 35/20/20 64/48/48
f 64/48/48 35/20/20 36/49/49
f 64/48/48 36/49/49 63/50/50
f 63/50/50 36/49/49 37/51/51
f 63/50/50 37/51/51 38/52/52
f 39/53/53 55/54/54 38/52/52
f 38/52/52 55/54/54 56/55/55
f 38/52/52 56/55/55 57/56/56
f 40/57/57 45/58/58 39/53/53
f 39/53/53 45/58/58 46/59/59
f 39/53/53 46/59/59 55/54/54
f 55/54/54 46/59/59 47/60/60
f 55/54/54 47/60/60 48/61/61
f 41/62/62 43/63/63 40/57/57
f 40/57/57 43/63/63 44/64/64
f 40/57/57 44/64/64 45/58/58
f 41/62/62 42/65/65 43/63/63
f 48/61/61 49/66/66 55/54/54
f 55/54/54 49/66/66 50/67/67
f 55/54/54 50/67/67 54/68/68
f 54/68/68 50/67/67 51/69/69
f 54/68/68 51/69/69 53/70/70
f 53/70/70 51/69/69 52/71/71
f 57/56/56 58/72/72 38/52/52
f 38/52/52 58/72/72 59/73/73
f 38/52/52 59/73/73 60/74/74
f 60/74/74 61/75/75 38/52/52
f 38/52/52 61/75/75 62/76/76
f 38/52/52 62/76/76 63/50/50
f 66/16/16 67/77/77 4/10/10
f 4/10/10 67/77/77 68/78/78
f 4/10/10 68/78/78 69/79/79
f 69/79/79 70/80/80 4/10/10
f 4/10/10 70/80/80 71/11/11
f 73/13/13 74/81/81 3/6/6
f 3/6/6 74/81/81 75/82/82
f 3/6/6 75/82/82 76/83/83
f 76/83/83 77/84/84 3/6/6
f 3/6/6 77/84/84 78/85/85
f 3/6/6 78/85/85 79/86/86
f 79/86/86 80/87/87 3/6/6
f 3/6/6 80/87/87 81/88/88
f 3/6/6 81/88/88 93/89/89
f 93/89/89 81/88/88 82/90/90
f 93/89/89 82/90/90 92/91/91
f 92/91/91 82/90/90 83/92/92
f 92/91/91 83/92/92 91/93/93
f 91/93/93 83/92/92 84/94/94
f 91/93/93 84/94/94 90/95/95
f 90/95/95 84/94/94 85/96/96
f 90/95/95 85/96/96 89/97/97
f 89/97/97 85/96/96 86/98/98
f 89/97/97 86/98/98 88/99/99
f 88/99/99 86/98/98 87/100/100
f 93/89/89 94/101/101 3/6/6
f 3/6/6 94/101/101 95/7/7
f 97/9/9 98/102/102 2/1/1
f 2/1/1 98/102/102 99/103/103
f 2/1/1 99/103/103 100/104/104
f 100/104/104 101/105/105 2/1/1
f 2/1/1 101/105/105 102/106/106
f 2/1/1 102/106/106 103/107/107
f 103/107/107 104/108/108 2/1/1
f 2/1/1 104/108/108 105/2/2
f 107/5/5 108/109/109 1/3/3
f 1/3/3 108/109/109 109/110/110
f 1/3/3 109/110/110 110/111/111
f 110/111/111 111/112/112 1/3/3
f 1/3/3 111/112/112 112/113/113
f 1/3/3 112/113/113 113/114/114
f 113/114/114 114/14/14 1/3/3
f 115/115/115 116/116/116 170/117/117
f 170/117/117 116/116/116 117/118/118
f 170/117/117 117/118/118 118/119/119
f 118/119/119 119/120/120 170/117/117
f 170/117/117 119/120/120 120/121/121
f 170/117/117 120/121/121 167/122/122
f 167/122/122 120/121/121 171/123/123
f 167/122/122 171/123/123 172/124/124
f 120/121/121 121/125/125 171/123/123
f 171/123/123 121/125/125 132/126/126
f 171/123/123 132/126/126 135/127/127
f 135/127/127 132/126/126 134/128/128
f 134/128/128 132/126/126 133/129/129
f 121/125/125 122/130/130 132/126/126
f 132/126/126 122/130/130 123/131/131
f 132/126/126 123/131/131 124/132/132
f 124/132/132 125/133/133 132/126/126
f 132/126/126 125/133/133 131/134/134
f 131/134/134 125/133/133 126/135/135
f 131/134/134 126/135/135 127/136/136
f 127/136/136 128/137/137 131/134/134
f 131/134/134 128/137/137 129/138/138
f 131/134/134 129/138/138 130/139/139
f 136/140/140 137/141/141 135/127/127
f 135/127/127 137/141/141 138/142/142
f 135/127/127 138/142/142 171/123/123
f 171/123/123 138/142/142 174/143/143
f 174/143/143 138/142/142 139/144/144
f 174/143/143 139/144/144 173/145/145
f 173/145/145 139/144/144 172/124/124
f 172/124/124 139/144/144 142/146/146
f 172/124/124 142/146/146 145/147/147
f 145/147/147 142/146/146 143/148/148
f 145/147/147 143/148/148 144/149/149
f 140/150/150 141/151/151 139/144/144
f 139/144/144 141/151/151 142/146/146
f 146/152/152 152/153/153 145/147/147
f 145/147/147 152/153/153 153/154/154
f 145/147/147 153/154/154 154/155/155
f 147/156/156 148/157/157 146/152/152
f 146/152/152 148/157/157 149/158/158
f 146/152/152 149/158/158 150/159/159
f 150/159/159 151/160/160 146/152/152
f 146/152/152 151/160/160 152/153/153
f 154/155/155 155/161/161 145/147/147
f 145/147/147 155/161/161 156/162/162
f 145/147/147 156/162/162 172/124/124
f 172/124/124 156/162/162 157/163/163
f 172/124/124 157/163/163 166/164/164
f 166/164/164 157/163/163 163/165/165
f 166/164/164 163/165/165 165/166/166
f 165/166/166 163/165/165 164/167/167
f 157/163/163 158/168/168 163/165/165
f 163/165/165 158/168/168 159/169/169
f 163/165/165 159/169/169 160/170/170
f 160/170/170 161/171/171 163/165/165
f 163/165/165 161/171/171 162/172/172
f 166/164/164 167/122/122 172/124/124
f 168/173/173 169/174/174 167/122/122
f 167/122/122 169/174/174 170/117/117
f 130/175/175 175/176/176 131/177/177
f 131/177/177 175/176/176 176/178/178
f 175/179/179 177/180/180 176/181/181
f 176/181/181 177/180/180 178/182/182
f 176/181/181 178/182/182 179/183/183
f 179/183/183 180/184/184 176/181/181
f 176/181/181 180/184/184 181/185/185
f 176/181/181 181/185/185 230/186/186
f 230/186/186 181/185/185 182/187/187
f 230/186/186 182/187/187 183/188/188
f 183/188/188 184/189/189 230/186/186
f 230/186/186 184/189/189 185/190/190
f 230/186/186 185/190/190 195/191/191
f 195/191/191 185/190/190 186/192/192
f 195/191/191 186/192/192 192/193/193
f 192/193/193 186/192/192 187/194/194
f 192/193/193 187/194/194 188/195/195
f 188/195/195 189/196/196 192/193/193
f 192/193/193 189/196/196 190/197/197
f 192/193/193 190/197/197 191/198/198
f 193/199/199 194/200/200 192/193/193
f 192/193/193 194/200/200 195/191/191
f 230/186/186 195/191/191 224/201/201
f 224/201/201 195/191/191 196/202/202
f 224/201/201 196/202/202 223/203/203
f 223/203/203 196/202/202 217/204/204
f 223/203/203 217/204/204 220/205/205
f 220/205/205 217/204/204 219/206/206
f 219/206/206 217/204/204 218/207/207
f 197/208/208 198/209/209 196/202/202
f 196/202/202 198/209/209 199/210/210
f 196/202/202 199/210/210 205/211/211
f 205/211/211 199/210/210 204/212/212
f 204/212/212 199/210/210 203/213/213
f 203/213/213 199/210/210 202/214/214
f 202/214/214 199/210/210 201/215/215
f 201/215/215 199/210/210 200/216/216
f 205/211/211 206/217/217 196/202/202
f 196/202/202 206/217/217 217/204/204
f 206/217/217 207/218/218 217/204/204
f 217/204/204 207/218/218 208/219/219
f 217/204/204 208/219/219 209/220/220
f 209/220/220 210/221/221 217/204/204
f 217/204/204 210/221/221 216/222/222
f 216/222/222 210/221/221 211/223/223
f 216/222/222 211/223/223 212/224/224
f 212/224/224 213/225/225 216/222/222
f 216/222/222 213/225/225 214/226/226
f 216/222/222 214/226/226 215/227/227
f 221/228/228 222/229/229 220/205/205
f 220/205/205 222/229/229 223/203/203
f 225/230/230 226/231/231 224/201/201
f 224/201/201 226/231/231 227/232/232
f 224/201/201 227/232/232 230/186/186
f 230/186/186 227/232/232 228/233/233
f 230/186/186 228/233/233 229/234/234
f 162/235/235 200/236/236 163/237/237
f 163/237/237 200/236/236 199/238/238
f 143/239/239 219/240/240 144/241/241
f 144/241/241 219/240/240 218/242/242
f 142/243/243 220/244/244 143/245/245
f 143/245/245 220/244/244 219/246/246
f 141/247/247 221/248/248 142/249/249
f 142/249/249 221/248/248 220/250/250
f 140/251/251 222/252/252 141/253/253
f 141/253/253 222/252/252 221/254/254
f 139/255/255 223/256/256 140/257/257
f 140/257/257 223/256/256 222/258/258
f 138/259/259 224/260/260 139/261/261
f 139/261/261 224/260/260 223/262/262
f 137/263/263 225/264/264 138/265/265
f 138/265/265 225/264/264 224/266/266
f 136/267/267 226/268/268 137/269/269
f 137/269/269 226/268/268 225/270/270
f 135/271/271 227/272/272 136/273/273
f 136/273/273 227/272/272 226/274/274
f 134/275/275 228/276/276 135/277/277
f 135/277/277 228/276/276 227/278/278
f 133/279/279 229/280/280 134/281/281
f 134/281/281 229/280/280 228/282/282
f 132/283/283 230/284/284 133/285/285
f 133/285/285 230/284/284 229/286/286
f 131/287/287 176/288/288 132/289/289
f 132/289/289 176/288/288 230/290/290
f 191/291/291 115/292/292 192/293/293
f 192/293/293 115/292/292 170/294/294
f 169/295/295 193/296/296 170/297/297
f 170/297/297 193/296/296 192/298/298
f 168/299/299 194/300/300 169/301/301
f 169/301/301 194/300/300 193/302/302
f 167/303/303 195/304/304 168/305/305
f 168/305/305 195/304/304 194/306/306
f 166/307/307 196/308/308 167/309/309
f 167/309/309 196/308/308 195/310/310
f 165/311/311 197/312/312 166/313/313
f 166/313/313 197/312/312 196/314/314
f 164/315/315 198/316/316 165/317/317
f 165/317/317 198/316/316 197/318/318
f 163/319/319 199/320/320 164/321/321
f 164/321/321 199/320/320 198/322/322
f 215/323/323 147/324/324 216/325/325
f 216/325/325 147/324/324 146/326/326
f 145/327/327 217/328/328 146/329/329
f 146/329/329 217/328/328 216/330/330
f 144/331/331 218/332/332 145/333/333
f 145/333/333 218/332/332 217/334/334
f 161/335/335 201/336/336 162/337/337
f 162/337/337 201/336/336 200/338/338
f 214/339/339 148/340/340 215/341/341
f 215/341/341 148/340/340 147/342/342
f 154/343/343 208/344/344 155/345/345
f 155/345/345 208/344/344 207/346/346
f 208/347/344 154/348/343 209/349/347
f 209/349/347 154/348/343 153/350/348
f 209/349/347 153/350/348 210/351/349
f 210/351/349 153/350/348 152/352/350
f 210/351/349 152/352/350 211/353/351
f 211/353/351 152/352/350 151/354/352
f 211/353/351 151/354/352 212/355/353
f 212/355/353 151/354/352 150/356/354
f 212/355/353 150/356/354 213/357/355
f 213/357/355 150/356/354 149/358/356
f 213/357/355 149/358/356 214/359/339
f 214/359/339 149/358/356 148/360/340
f 201/361/336 161/362/335 202/363/357
f 202/363/357 161/362/335 160/364/358
f 202/363/357 160/364/358 203/365/359
f 203/365/359 160/364/358 159/366/360
f 203/365/359 159/366/360 204/367/361
f 204/367/361 159/366/360 158/368/362
f 204/367/361 158/368/362 205/369/363
f 205/369/363 158/368/362 157/370/364
f 205/369/363 157/370/364 206/371/365
f 206/371/365 157/370/364 156/372/366
f 206/371/365 156/372/366 207/373/346
f 207/373/346 156/372/366 155/374/345
f 190/375/367 116/376/368 191/377/369
f 191/377/369 116/376/368 115/378/370
f 129/379/371 177/380/372 130/381/373
f 130/381/373 177/380/372 175/382/374
f 183/383/375 123/384/376 184/385/377
f 184/385/377 123/384/376 122/386/378
f 177/387/372 129/388/371 178/389/379
f 178/389/379 129/388/371 128/390/380
f 178/389/379 128/390/380 179/391/381
f 179/391/381 128/390/380 127/392/382
f 179/391/381 127/392/382 180/393/383
f 180/393/383 127/392/382 126/394/384
f 180/393/383 126/394/384 181/395/385
f 181/395/385 126/394/384 125/396/386
f 181/395/385 125/396/386 182/397/387
f 182/397/387 125/396/386 124/398/388
f 182/397/387 124/398/388 183/399/375
f 183/399/375 124/398/388 123/400/376
f 184/401/377 122/402/378 185/403/389
f 185/403/389 122/402/378 121/404/390
f 185/403/389 121/404/390 186/405/391
f 186/405/391 121/404/390 120/406/392
f 186/405/391 120/406/392 187/407/393
f 187/407/393 120/406/392 119/408/394
f 187/407/393 119/408/394 188/409/395
f 188/409/395 119/408/394 118/410/396
f 188/409/395 118/410/396 189/411/397
f 189/411/397 118/410/396 117/412/398
f 189/411/397 117/412/398 190/413/367
f 190/413/367 117/412/398 116/414/368
f 2/415/399 231/416/400 3/417/401
f 3/417/401 231/416/400 232/418/402
f 3/419/403 232/420/404 4/421/405
f 4/421/405 232/420/404 233/422/406
f 4/423/407 233/424/408 1/425/409
f 1/425/409 233/424/408 234/426/410
f 171/427/411 235/428/412 172/429/413
f 172/429/413 235/428/412 236/430/414
f 172/431/415 236/432/416 173/433/417
f 173/433/417 236/432/416 237/434/418
f 173/435/419 237/436/420 174/437/421
f 174/437/421 237/436/420 238/438/422
f 174/439/423 238/440/424 171/441/425
f 171/441/425 238/440/424 235/442/426
f 1/443/427 234/444/428 2/445/429
f 2/445/429 234/444/428 231/446/430
f 237/447/431 236/448/432 234/449/433
f 234/449/433 236/448/432 235/450/434
f 234/449/433 235/450/434 231/451/435
f 231/451/435 235/450/434 238/452/436
f 231/451/435 238/452/436 232/453/437
f 232/453/437 238/452/436 237/447/431
f 232/453/437 237/447/431 233/454/438
f 233/454/438 237/447/431 234/449/433
f 35/455/439 34/456/440 269/457/441
f 269/457/441 34/456/440 268/458/442
f 268/458/442 34/456/440 33/459/443
f 268/458/442 33/459/443 267/460/444
f 267/460/444 33/459/443 32/461/445
f 267/460/444 32/461/445 266/462/446
f 266/462/446 32/461/445 31/463/447
f 266/462/446 31/463/447 265/464/448
f 265/464/448 31/463/447 30/465/449
f 265/464/448 30/465/449 264/466/450
f 264/466/450 30/465/449 29/467/451
f 264/466/450 29/467/451 263/468/452
f 263/468/452 29/467/451 28/469/453
f 263/468/452 28/469/453 262/470/454
f 262/470/454 28/469/453 27/471/455
f 262/470/454 27/471/455 261/472/456
f 261/472/456 27/471/455 26/473/457
f 261/472/456 26/473/457 260/474/458
f 260/474/458 26/473/457 25/475/459
f 260/474/458 25/475/459 259/476/460
f 259/476/460 25/475/459 24/477/461
f 259/476/460 24/477/461 258/478/462
f 258/478/462 24/477/461 23/479/463
f 258/478/462 23/479/463 257/480/464
f 257/480/464 23/479/463 22/481/465
f 257/480/464 22/481/465 256/482/466
f 256/482/466 22/481/465 21/483/467
f 256/482/466 21/483/467 255/484/468
f 255/484/468 21/483/467 20/485/469
f 255/484/468 20/485/469 254/486/470
f 254/486/470 20/485/469 19/487/471
f 254/486/470 19/487/471 253/488/472
f 253/488/472 19/487/471 18/489/473
f 253/488/472 18/489/473 252/490/474
f 252/490/474 18/489/473 17/491/475
f 252/490/474 17/491/475 251/492/476
f 251/492/476 17/491/475 16/493/477
f 251/492/476 16/493/477 250/494/478
f 250/494/478 16/493/477 15/495/479
f 250/494/478 15/495/479 249/496/480
f 249/496/480 15/495/479 14/497/481
f 249/496/480 14/497/481 248/498/482
f 248/498/482 14/497/481 13/499/483
f 248/498/482 13/499/483 247/500/484
f 247/500/484 13/499/483 12/501/485
f 247/500/484 12/501/485 246/502/486
f 246/502/486 12/501/485 11/503/487
f 246/502/486 11/503/487 245/504/488
f 245/504/488 11/503/487 10/505/489
f 245/504/488 10/505/489 244/506/490
f 244/506/490 10/505/489 9/507/491
f 244/506/490 9/507/491 243/508/492
f 243/508/492 9/507/491 8/509/493
f 243/508/492 8/509/493 242/510/494
f 242/510/494 8/509/493 7/511/495
f 242/510/494 7/511/495 241/512/496
f 241/512/496 7/511/495 6/513/497
f 241/512/496 6/513/497 240/514/498
f 240/514/498 6/513/497 5/515/499
f 240/514/498 5/515/499 239/516/500
f 35/517/501 269/518/502 36/519/503
f 36/519/503 269/518/502 270/520/504
f 64/521/505 63/522/506 298/523/507
f 298/523/507 63/522/506 297/524/508
f 297/524/508 63/522/506 62/525/509
f 297/524/508 62/525/509 296/526/510
f 296/526/510 62/525/509 61/527/511
f 296/526/510 61/527/511 295/528/512
f 295/528/512 61/527/511 60/529/513
f 295/528/512 60/529/513 294/530/514
f 294/530/514 60/529/513 59/531/515
f 294/530/514 59/531/515 293/532/516
f 293/532/516 59/531/515 58/533/517
f 293/532/516 58/533/517 292/534/518
f 292/534/518 58/533/517 57/535/519
f 292/534/518 57/535/519 291/536/520
f 291/536/520 57/535/519 56/537/521
f 291/536/520 56/537/521 290/538/522
f 290/538/522 56/537/521 55/539/523
f 290/538/522 55/539/523 289/540/524
f 289/540/524 55/539/523 54/541/525
f 289/540/524 54/541/525 288/542/526
f 288/542/526 54/541/525 53/543/527
f 288/542/526 53/543/527 287/544/528
f 287/544/528 53/543/527 52/545/529
f 287/544/528 52/545/529 286/546/530
f 286/546/530 52/545/529 51/547/531
f 286/546/530 51/547/531 285/548/532
f 285/548/532 51/547/531 50/549/533
f 285/548/532 50/549/533 284/550/534
f 284/550/534 50/549/533 49/551/535
f 284/550/534 49/551/535 283/552/536
f 283/552/536 49/551/535 48/553/537
f 283/552/536 48/553/537 282/554/538
f 282/554/538 48/553/537 47/555/539
f 282/554/538 47/555/539 281/556/540
f 281/556/540 47/555/539 46/557/541
f 281/556/540 46/557/541 280/558/542
f 280/558/542 46/557/541 45/559/543
f 280/558/542 45/559/543 279/560/544
f 279/560/544 45/559/543 44/561/545
f 279/560/544 44/561/545 278/562/546
f 278/562/546 44/561/545 43/563/547
f 278/562/546 43/563/547 277/564/548
f 277/564/548 43/563/547 42/565/549
f 277/564/548 42/565/549 276/566/550
f 276/566/550 42/565/549 41/567/551
f 276/566/550 41/567/551 275/568/552
f 275/568/552 41/567/551 40/569/553
f 275/568/552 40/569/553 274/570/554
f 274/570/554 40/569/553 39/571/555
f 274/570/554 39/571/555 273/572/556
f 273/572/556 39/571/555 38/573/557
f 273/572/556 38/573/557 272/574/558
f 272/574/558 38/573/557 37/575/559
f 272/574/558 37/575/559 271/576/560
f 271/576/560 37/575/559 36/577/561
f 271/576/560 36/577/561 270/578/562
f 64/579/563 298/580/564 65/581/565
f 65/581/565 298/580/564 299/582/566
f 87/583/567 86/584/568 321/585/569
f 321/585/569 86/584/568 320/586/570
f 320/586/570 86/584/568 85/587/571
f 320/586/570 85/587/571 319/588/572
f 319/588/572 85/587/571 84/589/573
f 319/588/572 84/589/573 318/590/574
f 318/590/574 84/589/573 83/591/575
f 318/590/574 83/591/575 317/592/576
f 317/592/576 83/591/575 82/593/577
f 317/592/576 82/593/577 316/594/578
f 316/594/578 82/593/577 81/595/579
f 316/594/578 81/595/579 315/596/580
f 315/596/580 81/595/579 80/597/581
f 315/596/580 80/597/581 314/598/582
f 314/598/582 80/597/581 79/599/583
f 314/598/582 79/599/583 313/600/584
f 313/600/584 79/599/583 78/601/585
f 313/600/584 78/601/585 312/602/586
f 312/602/586 78/601/585 77/603/587
f 312/602/586 77/603/587 311/604/588
f 311/604/588 77/603/587 76/605/589
f 311/604/588 76/605/589 310/606/590
f 310/606/590 76/605/589 75/607/591
f 310/606/590 75/607/591 309/608/592
f 309/608/592 75/607/591 74/609/593
f 309/608/592 74/609/593 308/610/594
f 308/610/594 74/609/593 73/611/595
f 308/610/594 73/611/595 307/612/596
f 307/612/596 73/611/595 72/613/597
f 307/612/596 72/613/597 306/614/598
f 306/614/598 72/613/597 71/615/599
f 306/614/598 71/615/599 305/616/600
f 305/616/600 71/615/599 70/617/601
f 305/616/600 70/617/601 304/618/602
f 304/618/602 70/617/601 69/619/603
f 304/618/602 69/619/603 303/620/604
f 303/620/604 69/619/603 68/621/605
f 303/620/604 68/621/605 302/622/606
f 302/622/606 68/621/605 67/623/607
f 302/622/606 67/623/607 301/624/608
f 301/624/608 67/623/607 66/625/609
f 301/624/608 66/625/609 300/626/610
f 300/626/610 66/625/609 65/627/611
f 300/626/610 65/627/611 299/628/612
f 114/629/613 113/630/614 348/631/615
f 348/631/615 113/630/614 347/632/616
f 347/632/616 113/630/614 112/633/617
f 347/632/616 112/633/617 346/634/618
f 346/634/618 112/633/617 111/635/619
f 346/634/618 111/635/619 345/636/620
f 345/636/620 111/635/619 110/637/621
f 345/636/620 110/637/621 344/638/622
f 344/638/622 110/637/621 109/639/623
f 344/638/622 109/639/623 343/640/624
f 343/640/624 109/639/623 108/641/625
f 343/640/624 108/641/625 342/642/626
f 342/642/626 108/641/625 107/643/627
f 342/642/626 107/643/627 341/644/628
f 341/644/628 107/643/627 106/645/629
f 341/644/628 106/645/629 340/646/630
f 340/646/630 106/645/629 105/647/631
f 340/646/630 105/647/631 339/648/632
f 339/648/632 105/647/631 104/649/633
f 339/648/632 104/649/633 338/650/634
f 338/650/634 104/649/633 103/651/635
f 338/650/634 103/651/635 337/652/636
f 337/652/636 103/651/635 102/653/637
f 337/652/636 102/653/637 336/654/638
f 336/654/638 102/653/637 101/655/639
f 336/654/638 101/655/639 335/656/640
f 335/656/640 101/655/639 100/657/641
f 335/656/640 100/657/641 334/658/642
f 334/658/642 100/657/641 99/659/643
f 334/658/642 99/659/643 333/660/644
f 333/660/644 99/659/643 98/661/645
f 333/660/644 98/661/645 332/662/646
f 332/662/646 98/661/645 97/663/647
f 332/662/646 97/663/647 331/664/648
f 331/664/648 97/663/647 96/665/649
f 331/664/648 96/665/649 330/666/650
f 330/666/650 96/665/649 95/667/651
f 330/666/650 95/667/651 329/668/652
f 329/668/652 95/667/651 94/669/653
f 329/668/652 94/669/653 328/670/654
f 328/670/654 94/669/653 93/671/655
f 328/670/654 93/671/655 327/672/656
f 327/672/656 93/671/655 92/673/657
f 327/672/656 92/673/657 326/674/658
f 326/674/658 92/673/657 91/675/659
f 326/674/658 91/675/659 325/676/660
f 325/676/660 91/675/659 90/677/661
f 325/676/660 90/677/661 324/678/662
f 324/678/662 90/677/661 89/679/663
f 324/678/662 89/679/663 323/680/664
f 323/680/664 89/679/663 88/681/665
f 323/680/664 88/681/665 322/682/666
f 322/682/666 88/681/665 87/683/667
f 322/682/666 87/683/667 321/684/668
f 114/685/669 348/686/670 5/687/671
f 5/687/671 348/686/670 239/688/672
f 270/689/673 269/690/674 271/691/675
f 271/691/675 269/690/674 268/692/676
f 271/691/675 268/692/676 272/693/677
f 272/693/677 268/692/676 267/694/678
f 272/693/677 267/694/678 266/695/679
f 272/693/677 266/695/679 273/696/680
f 273/696/680 266/695/679 265/697/681
f 273/696/680 265/697/681 321/698/682
f 321/698/682 265/697/681 264/699/683
f 321/698/682 264/699/683 263/700/684
f 321/698/682 263/700/684 322/701/685
f 322/701/685 263/700/684 262/702/686
f 322/701/685 262/702/686 323/703/687
f 323/703/687 262/702/686 261/704/688
f 323/703/687 261/704/688 324/705/689
f 324/705/689 261/704/688 260/706/690
f 324/705/689 260/706/690 325/707/691
f 325/707/691 260/706/690 326/708/692
f 326/708/692 260/706/690 259/709/693
f 326/708/692 259/709/693 327/710/694
f 327/710/694 259/709/693 328/711/695
f 328/711/695 259/709/693 258/712/696
f 328/711/695 258/712/696 329/713/697
f 329/713/697 258/712/696 330/714/698
f 330/714/698 258/712/696 257/715/699
f 330/714/698 257/715/699 331/716/700
f 331/716/700 257/715/699 332/717/701
f 332/717/701 257/715/699 256/718/702
f 332/717/701 256/718/702 333/719/703
f 333/719/703 256/718/702 334/720/704
f 334/720/704 256/718/702 255/721/705
f 334/720/704 255/721/705 254/722/706
f 334/720/704 254/722/706 335/723/707
f 335/723/707 254/722/706 253/724/708
f 335/723/707 253/724/708 336/725/709
f 336/725/709 253/724/708 252/726/710
f 336/725/709 252/726/710 337/727/711
f 337/727/711 252/726/710 251/728/712
f 337/727/711 251/728/712 250/729/713
f 337/727/711 250/729/713 338/730/714
f 338/730/714 250/729/713 249/731/715
f 338/730/714 249/731/715 248/732/716
f 248/732/716 247/733/717 338/730/714
f 338/730/714 247/733/717 339/734/718
f 339/734/718 247/733/717 246/735/719
f 339/734/718 246/735/719 245/736/720
f 339/734/718 245/736/720 340/737/721
f 340/737/721 245/736/720 244/738/722
f 340/737/721 244/738/722 341/739/723
f 341/739/723 244/738/722 243/740/724
f 341/739/723 243/740/724 342/741/725
f 342/741/725 243/740/724 242/742/726
f 342/741/725 242/742/726 343/743/727
f 343/743/727 242/742/726 241/744/728
f 343/743/727 241/744/728 344/745/729
f 344/745/729 241/744/728 240/746/730
f 344/745/729 240/746/730 345/747/731
f 345/747/731 240/746/730 346/748/732
f 346/748/732 240/746/730 239/749/733
f 346/748/732 239/749/733 347/750/734
f 347/750/734 239/749/733 348/751/735
f 320/752/736 276/753/737 321/698/682
f 321/698/682 276/753/737 275/754/738
f 321/698/682 275/754/738 274/755/739
f 319/756/740 278/757/741 320/752/736
f 320/752/736 278/757/741 277/758/742
f 320/752/736 277/758/742 276/753/737
f 319/756/740 318/759/743 278/757/741
f 278/757/741 318/759/743 279/760/744
f 279/760/744 318/759/743 317/761/745
f 279/760/744 317/761/745 316/762/746
f 316/762/746 315/763/747 279/760/744
f 279/760/744 315/763/747 280/764/748
f 280/764/748 315/763/747 314/765/749
f 280/764/748 314/765/749 313/766/750
f 313/766/750 312/767/751 280/764/748
f 280/764/748 312/767/751 281/768/752
f 281/768/752 312/767/751 311/769/753
f 281/768/752 311/769/753 310/770/754
f 281/768/752 310/770/754 282/771/755
f 282/771/755 310/770/754 309/772/756
f 282/771/755 309/772/756 308/773/757
f 307/774/758 284/775/759 308/773/757
f 308/773/757 284/775/759 283/776/760
f 308/773/757 283/776/760 282/771/755
f 306/777/761 286/778/762 307/774/758
f 307/774/758 286/778/762 285/779/763
f 307/774/758 285/779/763 284/775/759
f 305/780/764 288/781/765 306/777/761
f 306/777/761 288/781/765 287/782/766
f 306/777/761 287/782/766 286/778/762
f 304/783/767 291/784/768 305/780/764
f 305/780/764 291/784/768 290/785/769
f 305/780/764 290/785/769 289/786/770
f 303/787/771 293/788/772 304/783/767
f 304/783/767 293/788/772 292/789/773
f 304/783/767 292/789/773 291/784/768
f 302/790/774 295/791/775 303/787/771
f 303/787/771 295/791/775 294/792/776
f 303/787/771 294/792/776 293/788/772
f 295/791/775 302/790/774 296/793/777
f 296/793/777 302/790/774 301/794/778
f 296/793/777 301/794/778 297/795/779
f 297/795/779 301/794/778 300/796/780
f 297/795/779 300/796/780 298/797/781
f 298/797/781 300/796/780 299/798/782
f 289/786/770 288/781/765 305/780/764
f 274/755/739 273/696/680 321/698/682
# 348 vertices
# 798 texture params
# 782 normals
# 692 facets

# 1 groups
