# WaveFront *.obj file (generated by Autodesk ATF)

mtllib Motor_mount.mtl

g Body1

v -1.150000 0.250000 0.300000
v -1.150000 0.200000 0.300000
v -1.143185 0.148236 0.300000
v -1.123205 0.100000 0.300000
v -1.091421 0.058579 0.300000
v -1.050000 0.026795 0.300000
v -1.001764 0.006815 0.300000
v -0.950000 0.000000 0.300000
v 0.950000 0.000000 0.300000
v 1.001764 0.006815 0.300000
v 1.050000 0.026795 0.300000
v 1.091421 0.058579 0.300000
v 1.123205 0.100000 0.300000
v 1.143185 0.148236 0.300000
v 1.150000 0.200000 0.300000
v 1.150000 0.250000 0.300000
v 0.750000 0.250000 0.300000
v 0.750000 2.850000 0.300000
v 0.739778 2.927646 0.300000
v 0.709808 3.000000 0.300000
v 0.662132 3.062132 0.300000
v 0.600000 3.109808 0.300000
v 0.527646 3.139778 0.300000
v 0.450000 3.150000 0.300000
v -0.450000 3.150000 0.300000
v -0.527646 3.139778 0.300000
v -0.600000 3.109808 0.300000
v -0.662132 3.062132 0.300000
v -0.709808 3.000000 0.300000
v -0.739778 2.927646 0.300000
v -0.750000 2.850000 0.300000
v -0.750000 0.250000 0.300000
v -0.150000 1.030000 0.300000
v -0.144889 1.068823 0.300000
v -0.129904 1.105000 0.300000
v -0.106066 1.136066 0.300000
v -0.075000 1.159904 0.300000
v -0.038823 1.174889 0.300000
v 0.000000 1.180000 0.300000
v 0.038823 1.174889 0.300000
v 0.075000 1.159904 0.300000
v 0.106066 1.136066 0.300000
v 0.129904 1.105000 0.300000
v 0.144889 1.068823 0.300000
v 0.150000 1.030000 0.300000
v 0.150000 0.830000 0.300000
v 0.144889 0.791177 0.300000
v 0.129904 0.755000 0.300000
v 0.106066 0.723934 0.300000
v 0.075000 0.700096 0.300000
v 0.038823 0.685111 0.300000
v -0.000000 0.680000 0.300000
v -0.038823 0.685111 0.300000
v -0.075000 0.700096 0.300000
v -0.106066 0.723934 0.300000
v -0.129904 0.755000 0.300000
v -0.144889 0.791177 0.300000
v -0.150000 0.830000 0.300000
v 0.150000 2.650000 0.300000
v 0.144889 2.611177 0.300000
v 0.129904 2.575000 0.300000
v 0.106066 2.543934 0.300000
v 0.075000 2.520096 0.300000
v 0.038823 2.505111 0.300000
v -0.000000 2.500000 0.300000
v -0.038823 2.505111 0.300000
v -0.075000 2.520096 0.300000
v -0.106066 2.543934 0.300000
v -0.129904 2.575000 0.300000
v -0.144889 2.611177 0.300000
v -0.150000 2.650000 0.300000
v -0.144889 2.688823 0.300000
v -0.129904 2.725000 0.300000
v -0.106066 2.756066 0.300000
v -0.075000 2.779904 0.300000
v -0.038823 2.794889 0.300000
v -0.000000 2.800000 0.300000
v 0.038823 2.794889 0.300000
v 0.075000 2.779904 0.300000
v 0.106066 2.756066 0.300000
v 0.129904 2.725000 0.300000
v 0.144889 2.688823 0.300000
v 0.950000 0.000000 0.000000
v -0.950000 0.000000 0.000000
v -1.001764 0.006815 0.000000
v -1.050000 0.026795 0.000000
v -1.091421 0.058579 0.000000
v -1.123205 0.100000 0.000000
v -1.143185 0.148236 0.000000
v -1.150000 0.200000 0.000000
v -1.150000 0.250000 0.000000
v -0.750000 0.250000 0.000000
v -0.750000 2.850000 0.000000
v -0.739778 2.927646 0.000000
v -0.709808 3.000000 0.000000
v -0.662132 3.062132 0.000000
v -0.600000 3.109808 0.000000
v -0.527646 3.139778 0.000000
v -0.450000 3.150000 0.000000
v 0.450000 3.150000 0.000000
v 0.527646 3.139778 0.000000
v 0.600000 3.109808 0.000000
v 0.662132 3.062132 0.000000
v 0.709808 3.000000 0.000000
v 0.739778 2.927646 0.000000
v 0.750000 2.850000 0.000000
v 0.750000 0.250000 0.000000
v 1.150000 0.250000 0.000000
v 1.150000 0.200000 0.000000
v 1.143185 0.148236 0.000000
v 1.123205 0.100000 0.000000
v 1.091421 0.058579 0.000000
v 1.050000 0.026795 0.000000
v 1.001764 0.006815 0.000000
v -0.150000 2.650000 0.000000
v -0.144889 2.611177 0.000000
v -0.129904 2.575000 0.000000
v -0.106066 2.543934 0.000000
v -0.075000 2.520096 0.000000
v -0.038823 2.505111 0.000000
v -0.000000 2.500000 0.000000
v 0.038823 2.505111 0.000000
v 0.075000 2.520096 0.000000
v 0.106066 2.543934 0.000000
v 0.129904 2.575000 0.000000
v 0.144889 2.611177 0.000000
v 0.150000 2.650000 0.000000
v 0.144889 2.688823 0.000000
v 0.129904 2.725000 0.000000
v 0.106066 2.756066 0.000000
v 0.075000 2.779904 0.000000
v 0.038823 2.794889 0.000000
v -0.000000 2.800000 0.000000
v -0.038823 2.794889 0.000000
v -0.075000 2.779904 0.000000
v -0.106066 2.756066 0.000000
v -0.129904 2.725000 0.000000
v -0.144889 2.688823 0.000000
v 0.150000 0.830000 0.000000
v 0.150000 1.030000 0.000000
v 0.144889 1.068823 0.000000
v 0.129904 1.105000 0.000000
v 0.106066 1.136066 0.000000
v 0.075000 1.159904 0.000000
v 0.038823 1.174889 0.000000
v 0.000000 1.180000 0.000000
v -0.038823 1.174889 0.000000
v -0.075000 1.159904 0.000000
v -0.106066 1.136066 0.000000
v -0.129904 1.105000 0.000000
v -0.144889 1.068823 0.000000
v -0.150000 1.030000 0.000000
v -0.150000 0.830000 0.000000
v -0.144889 0.791177 0.000000
v -0.129904 0.755000 0.000000
v -0.106066 0.723934 0.000000
v -0.075000 0.700096 0.000000
v -0.038823 0.685111 0.000000
v -0.000000 0.680000 0.000000
v 0.038823 0.685111 0.000000
v 0.075000 0.700096 0.000000
v 0.106066 0.723934 0.000000
v 0.129904 0.755000 0.000000
v 0.144889 0.791177 0.000000
vt -1.150000 0.200000 0.000000
vt -1.050000 0.026795 0.000000
vt -1.150000 0.250000 0.000000
vt -1.001764 0.006815 0.000000
vt -0.950000 0.000000 0.000000
vt -1.143185 0.148236 0.000000
vt -1.123205 0.100000 0.000000
vt -1.091421 0.058579 0.000000
vt -0.750000 0.250000 0.000000
vt 0.950000 0.000000 0.000000
vt 0.750000 0.250000 0.000000
vt 1.150000 0.250000 0.000000
vt 1.001764 0.006815 0.000000
vt 1.050000 0.026795 0.000000
vt 1.150000 0.200000 0.000000
vt 1.091421 0.058579 0.000000
vt 1.123205 0.100000 0.000000
vt 1.143185 0.148236 0.000000
vt 0.750000 2.850000 0.000000
vt 0.144889 1.068823 0.000000
vt 0.150000 1.030000 0.000000
vt 0.150000 0.830000 0.000000
vt 0.739778 2.927646 0.000000
vt 0.709808 3.000000 0.000000
vt 0.662132 3.062132 0.000000
vt 0.600000 3.109808 0.000000
vt 0.527646 3.139778 0.000000
vt 0.450000 3.150000 0.000000
vt 0.150000 2.650000 0.000000
vt 0.144889 2.688823 0.000000
vt 0.129904 2.725000 0.000000
vt 0.106066 2.756066 0.000000
vt 0.075000 2.779904 0.000000
vt 0.038823 2.794889 0.000000
vt -0.000000 2.800000 0.000000
vt -0.450000 3.150000 0.000000
vt -0.038823 2.794889 0.000000
vt -0.075000 2.779904 0.000000
vt -0.106066 2.756066 0.000000
vt -0.129904 2.725000 0.000000
vt -0.144889 2.688823 0.000000
vt -0.150000 2.650000 0.000000
vt -0.750000 2.850000 0.000000
vt -0.144889 2.611177 0.000000
vt -0.129904 2.575000 0.000000
vt -0.129904 1.105000 0.000000
vt -0.106066 2.543934 0.000000
vt -0.106066 1.136066 0.000000
vt -0.075000 2.520096 0.000000
vt -0.075000 1.159904 0.000000
vt -0.038823 2.505111 0.000000
vt -0.038823 1.174889 0.000000
vt -0.000000 2.500000 0.000000
vt 0.000000 1.180000 0.000000
vt 0.038823 1.174889 0.000000
vt -0.527646 3.139778 0.000000
vt -0.600000 3.109808 0.000000
vt -0.662132 3.062132 0.000000
vt -0.709808 3.000000 0.000000
vt -0.739778 2.927646 0.000000
vt -0.144889 1.068823 0.000000
vt -0.150000 1.030000 0.000000
vt -0.150000 0.830000 0.000000
vt -0.144889 0.791177 0.000000
vt -0.129904 0.755000 0.000000
vt -0.106066 0.723934 0.000000
vt -0.075000 0.700096 0.000000
vt -0.038823 0.685111 0.000000
vt -0.000000 0.680000 0.000000
vt 0.038823 0.685111 0.000000
vt 0.075000 0.700096 0.000000
vt 0.106066 0.723934 0.000000
vt 0.129904 0.755000 0.000000
vt 0.144889 0.791177 0.000000
vt 0.038823 2.505111 0.000000
vt 0.075000 1.159904 0.000000
vt 0.075000 2.520096 0.000000
vt 0.106066 1.136066 0.000000
vt 0.106066 2.543934 0.000000
vt 0.129904 1.105000 0.000000
vt 0.129904 2.575000 0.000000
vt 0.144889 2.611177 0.000000
vt 0.950000 0.000000 0.000000
vt -0.750000 0.250000 0.000000
vt -0.950000 0.000000 0.000000
vt -1.150000 0.250000 0.000000
vt -1.001764 0.006815 0.000000
vt -1.050000 0.026795 0.000000
vt -1.150000 0.200000 0.000000
vt -1.091421 0.058579 0.000000
vt -1.123205 0.100000 0.000000
vt -1.143185 0.148236 0.000000
vt 1.001764 0.006815 0.000000
vt 1.150000 0.250000 0.000000
vt 0.750000 0.250000 0.000000
vt 0.000000 0.680000 0.000000
vt -0.038823 0.685111 0.000000
vt 1.050000 0.026795 0.000000
vt 1.150000 0.200000 0.000000
vt 1.091421 0.058579 0.000000
vt 1.123205 0.100000 0.000000
vt 1.143185 0.148236 0.000000
vt 0.750000 2.850000 0.000000
vt 0.144889 1.068823 0.000000
vt 0.150000 1.030000 0.000000
vt 0.150000 0.830000 0.000000
vt 0.739778 2.927646 0.000000
vt 0.709808 3.000000 0.000000
vt 0.662132 3.062132 0.000000
vt 0.600000 3.109808 0.000000
vt 0.527646 3.139778 0.000000
vt 0.450000 3.150000 0.000000
vt 0.150000 2.650000 0.000000
vt 0.144889 2.688823 0.000000
vt 0.129904 2.725000 0.000000
vt 0.106066 2.756066 0.000000
vt 0.075000 2.779904 0.000000
vt 0.038823 2.794889 0.000000
vt 0.000000 2.800000 0.000000
vt -0.450000 3.150000 0.000000
vt -0.038823 2.794889 0.000000
vt -0.075000 2.779904 0.000000
vt -0.106066 2.756066 0.000000
vt -0.129904 2.725000 0.000000
vt -0.144889 2.688823 0.000000
vt -0.150000 2.650000 0.000000
vt -0.750000 2.850000 0.000000
vt -0.144889 2.611177 0.000000
vt -0.129904 2.575000 0.000000
vt -0.129904 1.105000 0.000000
vt -0.106066 2.543934 0.000000
vt -0.106066 1.136066 0.000000
vt -0.075000 2.520096 0.000000
vt -0.075000 1.159904 0.000000
vt -0.038823 2.505111 0.000000
vt -0.038823 1.174889 0.000000
vt 0.000000 2.500000 0.000000
vt -0.000000 1.180000 0.000000
vt 0.038823 1.174889 0.000000
vt -0.527646 3.139778 0.000000
vt -0.600000 3.109808 0.000000
vt -0.662132 3.062132 0.000000
vt -0.709808 3.000000 0.000000
vt -0.739778 2.927646 0.000000
vt -0.144889 1.068823 0.000000
vt -0.150000 1.030000 0.000000
vt -0.150000 0.830000 0.000000
vt -0.144889 0.791177 0.000000
vt -0.129904 0.755000 0.000000
vt -0.106066 0.723934 0.000000
vt -0.075000 0.700096 0.000000
vt 0.144889 2.611177 0.000000
vt 0.129904 2.575000 0.000000
vt 0.129904 1.105000 0.000000
vt 0.106066 2.543934 0.000000
vt 0.106066 1.136066 0.000000
vt 0.075000 2.520096 0.000000
vt 0.075000 1.159904 0.000000
vt 0.038823 2.505111 0.000000
vt 0.144889 0.791177 0.000000
vt 0.129904 0.755000 0.000000
vt 0.106066 0.723934 0.000000
vt 0.075000 0.700096 0.000000
vt 0.038823 0.685111 0.000000
vt -0.000000 -0.300000 0.000000
vt -0.300000 -0.300000 0.000000
vt 0.000000 -2.900000 0.000000
vt -0.300000 -2.900000 0.000000
vt -0.300000 -0.400000 0.000000
vt 0.000000 -0.400000 0.000000
vt -0.300000 0.000000 0.000000
vt -0.000000 0.000000 0.000000
vt -0.300000 -0.050000 0.000000
vt 0.000000 -0.050000 0.000000
vt -0.300000 0.000000 0.000000
vt -0.000000 0.000000 0.000000
vt -0.000000 0.200000 0.000000
vt 0.300000 0.200000 0.000000
vt -0.000000 2.100000 0.000000
vt 0.300000 2.100000 0.000000
vt -0.000000 0.200000 0.000000
vt 0.300000 0.200000 0.000000
vt -0.000000 0.250000 0.000000
vt 0.300000 0.250000 0.000000
vt -0.300000 -0.400000 0.000000
vt 0.000000 -0.400000 0.000000
vt -0.300000 0.000000 0.000000
vt -0.000000 0.000000 0.000000
vt 0.300000 2.600000 0.000000
vt -0.000000 2.600000 0.000000
vt 0.300000 -0.000000 0.000000
vt -0.000000 -0.000000 0.000000
vt -0.300000 -1.200000 0.000000
vt -0.000000 -1.200000 0.000000
vt -0.300000 -0.300000 0.000000
vt -0.000000 -0.300000 0.000000
vt 2.970000 -0.471239 0.000000
vt 2.670000 -0.471239 0.000000
vt 2.970000 -0.510509 0.000000
vt 2.670000 -0.510509 0.000000
vt 2.970000 -0.549779 0.000000
vt 2.670000 -0.549779 0.000000
vt 2.970000 -0.589049 0.000000
vt 2.670000 -0.589049 0.000000
vt 2.970000 -0.628319 0.000000
vt 2.670000 -0.628319 0.000000
vt 2.970000 -0.667588 0.000000
vt 2.670000 -0.667588 0.000000
vt 2.970000 -0.706858 0.000000
vt 2.670000 -0.706858 0.000000
vt 2.970000 -0.746128 0.000000
vt 2.670000 -0.746128 0.000000
vt 2.970000 -0.785398 0.000000
vt 2.670000 -0.785398 0.000000
vt 2.970000 -0.824668 0.000000
vt 2.670000 -0.824668 0.000000
vt 2.970000 -0.863938 0.000000
vt 2.670000 -0.863938 0.000000
vt 2.970000 -0.903208 0.000000
vt 2.670000 -0.903208 0.000000
vt 2.970000 -0.942478 0.000000
vt 2.670000 -0.942478 0.000000
vt 2.670000 -0.200000 0.000000
vt 2.970000 -0.200000 0.000000
vt 2.670000 0.000000 0.000000
vt 2.970000 0.000000 0.000000
vt 2.970000 0.000000 0.000000
vt 2.670000 0.000000 0.000000
vt 2.970000 -0.039270 0.000000
vt 2.670000 -0.039270 0.000000
vt 2.970000 -0.078540 0.000000
vt 2.670000 -0.078540 0.000000
vt 2.970000 -0.117810 0.000000
vt 2.670000 -0.117810 0.000000
vt 2.970000 -0.157080 0.000000
vt 2.670000 -0.157080 0.000000
vt 2.970000 -0.196350 0.000000
vt 2.670000 -0.196350 0.000000
vt 2.970000 -0.235619 0.000000
vt 2.670000 -0.235619 0.000000
vt 2.970000 -0.274889 0.000000
vt 2.670000 -0.274889 0.000000
vt 2.970000 -0.314159 0.000000
vt 2.670000 -0.314159 0.000000
vt 2.970000 -0.353429 0.000000
vt 2.670000 -0.353429 0.000000
vt 2.970000 -0.392699 0.000000
vt 2.670000 -0.392699 0.000000
vt 2.970000 -0.431969 0.000000
vt 2.670000 -0.431969 0.000000
vt 2.970000 -0.471239 0.000000
vt 2.670000 -0.471239 0.000000
vt -2.670000 0.200000 0.000000
vt -2.970000 0.200000 0.000000
vt -2.670000 0.000000 0.000000
vt -2.970000 0.000000 0.000000
vt 2.970000 0.039270 0.000000
vt 2.670000 0.039270 0.000000
vt 2.970000 0.000000 0.000000
vt 2.670000 0.000000 0.000000
vt 2.970000 -0.039270 0.000000
vt 2.670000 -0.039270 0.000000
vt 2.970000 -0.078540 0.000000
vt 2.670000 -0.078540 0.000000
vt 2.970000 -0.117810 0.000000
vt 2.670000 -0.117810 0.000000
vt 2.970000 -0.157080 0.000000
vt 2.670000 -0.157080 0.000000
vt 2.970000 -0.196350 0.000000
vt 2.670000 -0.196350 0.000000
vt 2.970000 -0.235619 0.000000
vt 2.670000 -0.235619 0.000000
vt 2.970000 -0.274889 0.000000
vt 2.670000 -0.274889 0.000000
vt 2.970000 -0.314159 0.000000
vt 2.670000 -0.314159 0.000000
vt 2.970000 -0.353429 0.000000
vt 2.670000 -0.353429 0.000000
vt 2.970000 -0.392699 0.000000
vt 2.670000 -0.392699 0.000000
vt 2.970000 -0.431969 0.000000
vt 2.670000 -0.431969 0.000000
vt 2.970000 -0.471239 0.000000
vt 2.670000 -0.471239 0.000000
vt 2.970000 0.471239 0.000000
vt 2.670000 0.471239 0.000000
vt 2.970000 0.431969 0.000000
vt 2.670000 0.431969 0.000000
vt 2.970000 0.392699 0.000000
vt 2.670000 0.392699 0.000000
vt 2.970000 0.353429 0.000000
vt 2.670000 0.353429 0.000000
vt 2.970000 0.314159 0.000000
vt 2.670000 0.314159 0.000000
vt 2.970000 0.274889 0.000000
vt 2.670000 0.274889 0.000000
vt 2.970000 0.235619 0.000000
vt 2.670000 0.235619 0.000000
vt 2.970000 0.196350 0.000000
vt 2.670000 0.196350 0.000000
vt 2.970000 0.157080 0.000000
vt 2.670000 0.157080 0.000000
vt 2.970000 0.117810 0.000000
vt 2.670000 0.117810 0.000000
vt 2.970000 0.078540 0.000000
vt 2.670000 0.078540 0.000000
vt -0.300000 0.000000 0.000000
vt -0.000000 0.000000 0.000000
vt -0.300000 0.078540 0.000000
vt -0.000000 0.078540 0.000000
vt -0.300000 0.157080 0.000000
vt -0.000000 0.157080 0.000000
vt -0.300000 0.235619 0.000000
vt -0.000000 0.235619 0.000000
vt -0.300000 0.314159 0.000000
vt -0.000000 0.314159 0.000000
vt -0.300000 0.392699 0.000000
vt -0.000000 0.392699 0.000000
vt -0.300000 0.471239 0.000000
vt -0.000000 0.471239 0.000000
vt -0.300000 0.471239 0.000000
vt -0.000000 0.471239 0.000000
vt -0.300000 0.549779 0.000000
vt -0.000000 0.549779 0.000000
vt -0.300000 0.628319 0.000000
vt -0.000000 0.628319 0.000000
vt -0.300000 0.706858 0.000000
vt -0.000000 0.706858 0.000000
vt -0.300000 0.785398 0.000000
vt -0.000000 0.785398 0.000000
vt -0.300000 0.863938 0.000000
vt -0.000000 0.863938 0.000000
vt -0.300000 0.942478 0.000000
vt -0.000000 0.942478 0.000000
vt -0.300000 -0.314159 0.000000
vt -0.000000 -0.314159 0.000000
vt -0.300000 -0.261799 0.000000
vt 0.000000 -0.261799 0.000000
vt -0.300000 -0.209440 0.000000
vt 0.000000 -0.209440 0.000000
vt -0.300000 -0.157080 0.000000
vt 0.000000 -0.157080 0.000000
vt -0.300000 -0.104720 0.000000
vt 0.000000 -0.104720 0.000000
vt -0.300000 -0.052360 0.000000
vt -0.000000 -0.052360 0.000000
vt -0.300000 0.000000 0.000000
vt -0.000000 0.000000 0.000000
vt -0.300000 -0.628319 0.000000
vt -0.000000 -0.628319 0.000000
vt -0.300000 -0.575959 0.000000
vt -0.000000 -0.575959 0.000000
vt -0.300000 -0.523599 0.000000
vt -0.000000 -0.523599 0.000000
vt -0.300000 -0.471239 0.000000
vt -0.000000 -0.471239 0.000000
vt -0.300000 -0.418879 0.000000
vt -0.000000 -0.418879 0.000000
vt -0.300000 -0.366519 0.000000
vt -0.000000 -0.366519 0.000000
vt -0.300000 -0.314159 0.000000
vt -0.000000 -0.314159 0.000000
vn 0.000000 -0.000000 1.000000
vn 0.000000 -0.000000 1.000000
vn 0.000000 -0.000000 1.000000
vn 0.000000 -0.000000 1.000000
vn 0.000000 -0.000000 1.000000
vn 0.000000 -0.000000 1.000000
vn 0.000000 -0.000000 1.000000
vn 0.000000 -0.000000 1.000000
vn 0.000000 -0.000000 1.000000
vn 0.000000 -0.000000 1.000000
vn 0.000000 -0.000000 1.000000
vn 0.000000 -0.000000 1.000000
vn 0.000000 -0.000000 1.000000
vn 0.000000 -0.000000 1.000000
vn 0.000000 -0.000000 1.000000
vn 0.000000 -0.000000 1.000000
vn 0.000000 -0.000000 1.000000
vn 0.000000 -0.000000 1.000000
vn 0.000000 -0.000000 1.000000
vn 0.000000 -0.000000 1.000000
vn 0.000000 -0.000000 1.000000
vn 0.000000 -0.000000 1.000000
vn 0.000000 -0.000000 1.000000
vn 0.000000 -0.000000 1.000000
vn 0.000000 -0.000000 1.000000
vn 0.000000 -0.000000 1.000000
vn 0.000000 -0.000000 1.000000
vn 0.000000 -0.000000 1.000000
vn 0.000000 -0.000000 1.000000
vn 0.000000 -0.000000 1.000000
vn 0.000000 -0.000000 1.000000
vn 0.000000 -0.000000 1.000000
vn 0.000000 -0.000000 1.000000
vn 0.000000 -0.000000 1.000000
vn 0.000000 -0.000000 1.000000
vn 0.000000 -0.000000 1.000000
vn 0.000000 -0.000000 1.000000
vn 0.000000 -0.000000 1.000000
vn 0.000000 -0.000000 1.000000
vn 0.000000 -0.000000 1.000000
vn 0.000000 -0.000000 1.000000
vn 0.000000 -0.000000 1.000000
vn 0.000000 -0.000000 1.000000
vn 0.000000 -0.000000 1.000000
vn 0.000000 -0.000000 1.000000
vn 0.000000 -0.000000 1.000000
vn 0.000000 -0.000000 1.000000
vn 0.000000 -0.000000 1.000000
vn 0.000000 -0.000000 1.000000
vn 0.000000 -0.000000 1.000000
vn 0.000000 -0.000000 1.000000
vn 0.000000 -0.000000 1.000000
vn 0.000000 -0.000000 1.000000
vn 0.000000 -0.000000 1.000000
vn 0.000000 -0.000000 1.000000
vn 0.000000 -0.000000 1.000000
vn 0.000000 -0.000000 1.000000
vn 0.000000 -0.000000 1.000000
vn 0.000000 -0.000000 1.000000
vn 0.000000 -0.000000 1.000000
vn 0.000000 -0.000000 1.000000
vn 0.000000 -0.000000 1.000000
vn 0.000000 -0.000000 1.000000
vn 0.000000 -0.000000 1.000000
vn 0.000000 -0.000000 1.000000
vn 0.000000 -0.000000 1.000000
vn 0.000000 -0.000000 1.000000
vn 0.000000 -0.000000 1.000000
vn 0.000000 -0.000000 1.000000
vn 0.000000 -0.000000 1.000000
vn 0.000000 -0.000000 1.000000
vn 0.000000 -0.000000 1.000000
vn 0.000000 -0.000000 1.000000
vn 0.000000 -0.000000 1.000000
vn 0.000000 -0.000000 1.000000
vn 0.000000 -0.000000 1.000000
vn 0.000000 -0.000000 1.000000
vn 0.000000 -0.000000 1.000000
vn 0.000000 -0.000000 1.000000
vn 0.000000 -0.000000 1.000000
vn 0.000000 -0.000000 1.000000
vn 0.000000 -0.000000 1.000000
vn -0.000000 0.000000 -1.000000
vn -0.000000 0.000000 -1.000000
vn -0.000000 0.000000 -1.000000
vn -0.000000 0.000000 -1.000000
vn -0.000000 0.000000 -1.000000
vn -0.000000 0.000000 -1.000000
vn -0.000000 0.000000 -1.000000
vn -0.000000 0.000000 -1.000000
vn -0.000000 0.000000 -1.000000
vn -0.000000 0.000000 -1.000000
vn -0.000000 0.000000 -1.000000
vn -0.000000 0.000000 -1.000000
vn -0.000000 0.000000 -1.000000
vn -0.000000 0.000000 -1.000000
vn -0.000000 0.000000 -1.000000
vn -0.000000 0.000000 -1.000000
vn -0.000000 0.000000 -1.000000
vn -0.000000 0.000000 -1.000000
vn -0.000000 0.000000 -1.000000
vn -0.000000 0.000000 -1.000000
vn -0.000000 0.000000 -1.000000
vn -0.000000 0.000000 -1.000000
vn -0.000000 0.000000 -1.000000
vn -0.000000 0.000000 -1.000000
vn -0.000000 0.000000 -1.000000
vn -0.000000 0.000000 -1.000000
vn -0.000000 0.000000 -1.000000
vn -0.000000 0.000000 -1.000000
vn -0.000000 0.000000 -1.000000
vn -0.000000 0.000000 -1.000000
vn -0.000000 0.000000 -1.000000
vn -0.000000 0.000000 -1.000000
vn -0.000000 0.000000 -1.000000
vn -0.000000 0.000000 -1.000000
vn -0.000000 0.000000 -1.000000
vn -0.000000 0.000000 -1.000000
vn -0.000000 0.000000 -1.000000
vn -0.000000 0.000000 -1.000000
vn -0.000000 0.000000 -1.000000
vn -0.000000 0.000000 -1.000000
vn -0.000000 0.000000 -1.000000
vn -0.000000 0.000000 -1.000000
vn -0.000000 0.000000 -1.000000
vn -0.000000 0.000000 -1.000000
vn -0.000000 0.000000 -1.000000
vn -0.000000 0.000000 -1.000000
vn -0.000000 0.000000 -1.000000
vn -0.000000 0.000000 -1.000000
vn -0.000000 0.000000 -1.000000
vn -0.000000 0.000000 -1.000000
vn -0.000000 0.000000 -1.000000
vn -0.000000 0.000000 -1.000000
vn -0.000000 0.000000 -1.000000
vn -0.000000 0.000000 -1.000000
vn -0.000000 0.000000 -1.000000
vn -0.000000 0.000000 -1.000000
vn -0.000000 0.000000 -1.000000
vn -0.000000 0.000000 -1.000000
vn -0.000000 0.000000 -1.000000
vn -0.000000 0.000000 -1.000000
vn -0.000000 0.000000 -1.000000
vn -0.000000 0.000000 -1.000000
vn -0.000000 0.000000 -1.000000
vn -0.000000 0.000000 -1.000000
vn -0.000000 0.000000 -1.000000
vn -0.000000 0.000000 -1.000000
vn -0.000000 0.000000 -1.000000
vn -0.000000 0.000000 -1.000000
vn -0.000000 0.000000 -1.000000
vn -0.000000 0.000000 -1.000000
vn -0.000000 0.000000 -1.000000
vn -0.000000 0.000000 -1.000000
vn -0.000000 0.000000 -1.000000
vn -0.000000 0.000000 -1.000000
vn -0.000000 0.000000 -1.000000
vn -0.000000 0.000000 -1.000000
vn -0.000000 0.000000 -1.000000
vn -0.000000 0.000000 -1.000000
vn -0.000000 0.000000 -1.000000
vn -0.000000 0.000000 -1.000000
vn -0.000000 0.000000 -1.000000
vn -0.000000 0.000000 -1.000000
vn -1.000000 0.000000 -0.000000
vn -1.000000 0.000000 -0.000000
vn -1.000000 0.000000 -0.000000
vn -1.000000 0.000000 -0.000000
vn 0.000000 1.000000 -0.000000
vn 0.000000 1.000000 -0.000000
vn 0.000000 1.000000 -0.000000
vn 0.000000 1.000000 -0.000000
vn -1.000000 0.000000 -0.000000
vn -1.000000 0.000000 -0.000000
vn -1.000000 0.000000 -0.000000
vn -1.000000 0.000000 -0.000000
vn -0.000000 -1.000000 -0.000000
vn -0.000000 -1.000000 -0.000000
vn -0.000000 -1.000000 -0.000000
vn -0.000000 -1.000000 -0.000000
vn 1.000000 0.000000 -0.000000
vn 1.000000 0.000000 -0.000000
vn 1.000000 0.000000 -0.000000
vn 1.000000 0.000000 -0.000000
vn -0.000000 1.000000 -0.000000
vn -0.000000 1.000000 -0.000000
vn -0.000000 1.000000 -0.000000
vn -0.000000 1.000000 -0.000000
vn 1.000000 0.000000 -0.000000
vn 1.000000 0.000000 -0.000000
vn 1.000000 0.000000 -0.000000
vn 1.000000 0.000000 -0.000000
vn -0.000000 1.000000 -0.000000
vn -0.000000 1.000000 -0.000000
vn -0.000000 1.000000 -0.000000
vn -0.000000 1.000000 -0.000000
vn 1.000000 0.000000 -0.000000
vn 1.000000 0.000000 -0.000000
vn 0.965926 -0.258819 0.000000
vn 0.965926 -0.258819 0.000000
vn 0.866025 -0.500000 0.000000
vn 0.866025 -0.500000 0.000000
vn 0.707107 -0.707107 0.000000
vn 0.707107 -0.707107 0.000000
vn 0.500000 -0.866025 0.000000
vn 0.500000 -0.866025 0.000000
vn 0.258819 -0.965926 0.000000
vn 0.258819 -0.965926 0.000000
vn 0.000000 -1.000000 0.000000
vn 0.000000 -1.000000 0.000000
vn -0.258819 -0.965926 0.000000
vn -0.258819 -0.965926 0.000000
vn -0.500000 -0.866025 0.000000
vn -0.500000 -0.866025 0.000000
vn -0.707107 -0.707107 0.000000
vn -0.707107 -0.707107 0.000000
vn -0.866025 -0.500000 0.000000
vn -0.866025 -0.500000 0.000000
vn -0.965926 -0.258819 0.000000
vn -0.965926 -0.258819 0.000000
vn -1.000000 -0.000000 0.000000
vn -1.000000 -0.000000 0.000000
vn -1.000000 0.000000 0.000000
vn -1.000000 0.000000 0.000000
vn -0.965926 0.258819 0.000000
vn -0.965926 0.258819 0.000000
vn -0.866025 0.500000 0.000000
vn -0.866025 0.500000 0.000000
vn -0.707107 0.707107 0.000000
vn -0.707107 0.707107 0.000000
vn -0.500000 0.866025 0.000000
vn -0.500000 0.866025 0.000000
vn -0.258819 0.965926 0.000000
vn -0.258819 0.965926 0.000000
vn 0.000000 1.000000 -0.000000
vn 0.000000 1.000000 -0.000000
vn 0.258819 0.965926 -0.000000
vn 0.258819 0.965926 -0.000000
vn 0.500000 0.866025 -0.000000
vn 0.500000 0.866025 -0.000000
vn 0.707107 0.707107 -0.000000
vn 0.707107 0.707107 -0.000000
vn 0.866025 0.500000 -0.000000
vn 0.866025 0.500000 -0.000000
vn 0.965926 0.258819 -0.000000
vn 0.965926 0.258819 -0.000000
vn 1.000000 0.000000 -0.000000
vn 1.000000 0.000000 -0.000000
vn -0.965926 -0.258819 0.000000
vn -0.965926 -0.258819 0.000000
vn -1.000000 -0.000000 0.000000
vn -1.000000 -0.000000 0.000000
vn -0.965926 0.258819 0.000000
vn -0.965926 0.258819 0.000000
vn -0.866025 0.500000 0.000000
vn -0.866025 0.500000 0.000000
vn -0.707107 0.707107 0.000000
vn -0.707107 0.707107 0.000000
vn -0.500000 0.866025 0.000000
vn -0.500000 0.866025 0.000000
vn -0.258819 0.965926 0.000000
vn -0.258819 0.965926 0.000000
vn -0.000000 1.000000 0.000000
vn -0.000000 1.000000 0.000000
vn 0.258819 0.965926 -0.000000
vn 0.258819 0.965926 -0.000000
vn 0.500000 0.866025 -0.000000
vn 0.500000 0.866025 -0.000000
vn 0.707107 0.707107 -0.000000
vn 0.707107 0.707107 -0.000000
vn 0.866025 0.500000 -0.000000
vn 0.866025 0.500000 -0.000000
vn 0.965926 0.258819 -0.000000
vn 0.965926 0.258819 -0.000000
vn 1.000000 0.000000 -0.000000
vn 1.000000 0.000000 -0.000000
vn 0.965926 -0.258819 0.000000
vn 0.965926 -0.258819 0.000000
vn 0.866025 -0.500000 0.000000
vn 0.866025 -0.500000 0.000000
vn 0.707107 -0.707107 0.000000
vn 0.707107 -0.707107 0.000000
vn 0.500000 -0.866025 0.000000
vn 0.500000 -0.866025 0.000000
vn 0.258819 -0.965926 0.000000
vn 0.258819 -0.965926 0.000000
vn 0.000000 -1.000000 0.000000
vn -0.000000 -1.000000 0.000000
vn -0.258819 -0.965926 0.000000
vn -0.258819 -0.965926 0.000000
vn -0.500000 -0.866025 0.000000
vn -0.500000 -0.866025 0.000000
vn -0.707107 -0.707107 0.000000
vn -0.707107 -0.707107 0.000000
vn -0.866025 -0.500000 0.000000
vn -0.866025 -0.500000 0.000000
vn -0.965926 0.258819 -0.000000
vn -0.965926 0.258819 -0.000000
vn -0.866025 0.500000 -0.000000
vn -0.866025 0.500000 -0.000000
vn -0.707107 0.707107 -0.000000
vn -0.707107 0.707107 -0.000000
vn -0.500000 0.866025 -0.000000
vn -0.500000 0.866025 -0.000000
vn -0.258819 0.965926 -0.000000
vn -0.258819 0.965926 -0.000000
vn 0.258819 0.965926 0.000000
vn 0.258819 0.965926 0.000000
vn 0.500000 0.866025 0.000000
vn 0.500000 0.866025 0.000000
vn 0.707107 0.707107 0.000000
vn 0.707107 0.707107 0.000000
vn 0.866025 0.500000 0.000000
vn 0.866025 0.500000 0.000000
vn 0.965926 0.258819 0.000000
vn 0.965926 0.258819 0.000000
vn -0.258819 -0.965926 -0.000000
vn -0.258819 -0.965926 -0.000000
vn -0.500000 -0.866025 -0.000000
vn -0.500000 -0.866025 -0.000000
vn -0.707107 -0.707107 -0.000000
vn -0.707107 -0.707107 -0.000000
vn -0.866025 -0.500000 -0.000000
vn -0.866025 -0.500000 -0.000000
vn -0.965926 -0.258819 -0.000000
vn -0.965926 -0.258819 -0.000000
vn 0.965926 -0.258819 -0.000000
vn 0.965926 -0.258819 -0.000000
vn 0.866025 -0.500000 -0.000000
vn 0.866025 -0.500000 -0.000000
vn 0.707107 -0.707107 -0.000000
vn 0.707107 -0.707107 -0.000000
vn 0.500000 -0.866025 -0.000000
vn 0.500000 -0.866025 -0.000000
vn 0.258819 -0.965926 -0.000000
vn 0.258819 -0.965926 -0.000000
usemtl Opaque(65,96,255)
f 2/1/1 6/2/2 1/3/3
f 1/3/3 6/2/2 7/4/4
f 1/3/3 7/4/4 8/5/5
f 3/6/6 4/7/7 2/1/1
f 2/1/1 4/7/7 5/8/8
f 2/1/1 5/8/8 6/2/2
f 1/3/3 8/5/5 32/9/9
f 32/9/9 8/5/5 9/10/10
f 32/9/9 9/10/10 17/11/11
f 17/11/11 9/10/10 16/12/12
f 16/12/12 9/10/10 10/13/13
f 16/12/12 10/13/13 11/14/14
f 16/12/12 11/14/14 15/15/15
f 15/15/15 11/14/14 12/16/16
f 15/15/15 12/16/16 13/17/17
f 13/17/17 14/18/18 15/15/15
f 18/19/19 44/20/20 17/11/11
f 17/11/11 44/20/20 45/21/21
f 17/11/11 45/21/21 46/22/22
f 19/23/23 20/24/24 18/19/19
f 18/19/19 20/24/24 21/25/25
f 18/19/19 21/25/25 22/26/26
f 22/26/26 23/27/27 18/19/19
f 18/19/19 23/27/27 24/28/28
f 18/19/19 24/28/28 59/29/29
f 59/29/29 24/28/28 82/30/30
f 82/30/30 24/28/28 81/31/31
f 81/31/31 24/28/28 80/32/32
f 80/32/32 24/28/28 79/33/33
f 79/33/33 24/28/28 78/34/34
f 78/34/34 24/28/28 77/35/35
f 77/35/35 24/28/28 25/36/36
f 77/35/35 25/36/36 76/37/37
f 76/37/37 25/36/36 75/38/38
f 75/38/38 25/36/36 74/39/39
f 74/39/39 25/36/36 73/40/40
f 73/40/40 25/36/36 72/41/41
f 72/41/41 25/36/36 71/42/42
f 71/42/42 25/36/36 31/43/43
f 71/42/42 31/43/43 70/44/44
f 70/44/44 31/43/43 69/45/45
f 69/45/45 31/43/43 35/46/46
f 69/45/45 35/46/46 68/47/47
f 68/47/47 35/46/46 36/48/48
f 68/47/47 36/48/48 67/49/49
f 67/49/49 36/48/48 37/50/50
f 67/49/49 37/50/50 66/51/51
f 66/51/51 37/50/50 38/52/52
f 66/51/51 38/52/52 65/53/53
f 65/53/53 38/52/52 39/54/54
f 65/53/53 39/54/54 40/55/55
f 25/36/36 26/56/56 31/43/43
f 31/43/43 26/56/56 27/57/57
f 31/43/43 27/57/57 28/58/58
f 28/58/58 29/59/59 31/43/43
f 31/43/43 29/59/59 30/60/60
f 35/46/46 31/43/43 34/61/61
f 34/61/61 31/43/43 32/9/9
f 34/61/61 32/9/9 33/62/62
f 33/62/62 32/9/9 58/63/63
f 58/63/63 32/9/9 57/64/64
f 57/64/64 32/9/9 56/65/65
f 56/65/65 32/9/9 55/66/66
f 55/66/66 32/9/9 54/67/67
f 54/67/67 32/9/9 53/68/68
f 53/68/68 32/9/9 52/69/69
f 52/69/69 32/9/9 17/11/11
f 52/69/69 17/11/11 51/70/70
f 51/70/70 17/11/11 50/71/71
f 50/71/71 17/11/11 49/72/72
f 49/72/72 17/11/11 48/73/73
f 48/73/73 17/11/11 47/74/74
f 47/74/74 17/11/11 46/22/22
f 65/53/53 40/55/55 64/75/75
f 64/75/75 40/55/55 41/76/76
f 64/75/75 41/76/76 63/77/77
f 63/77/77 41/76/76 42/78/78
f 63/77/77 42/78/78 62/79/79
f 62/79/79 42/78/78 43/80/80
f 62/79/79 43/80/80 61/81/81
f 61/81/81 43/80/80 18/19/19
f 61/81/81 18/19/19 60/82/82
f 60/82/82 18/19/19 59/29/29
f 43/80/80 44/20/20 18/19/19
f 84/83/83 107/84/84 83/85/85
f 83/85/85 107/84/84 108/86/86
f 83/85/85 108/86/86 114/87/87
f 114/87/87 108/86/86 113/88/88
f 113/88/88 108/86/86 109/89/89
f 113/88/88 109/89/89 112/90/90
f 112/90/90 109/89/89 111/91/91
f 111/91/91 109/89/89 110/92/92
f 85/93/93 91/94/94 84/83/83
f 84/83/83 91/94/94 92/95/95
f 84/83/83 92/95/95 107/84/84
f 107/84/84 92/95/95 159/96/96
f 107/84/84 159/96/96 160/97/97
f 85/93/93 86/98/98 91/94/94
f 91/94/94 86/98/98 90/99/99
f 90/99/99 86/98/98 87/100/100
f 90/99/99 87/100/100 88/101/101
f 88/101/101 89/102/102 90/99/99
f 93/103/103 151/104/104 92/95/95
f 92/95/95 151/104/104 152/105/105
f 92/95/95 152/105/105 153/106/106
f 94/107/107 95/108/108 93/103/103
f 93/103/103 95/108/108 96/109/109
f 93/103/103 96/109/109 97/110/110
f 97/110/110 98/111/111 93/103/103
f 93/103/103 98/111/111 99/112/112
f 93/103/103 99/112/112 115/113/113
f 115/113/113 99/112/112 138/114/114
f 138/114/114 99/112/112 137/115/115
f 137/115/115 99/112/112 136/116/116
f 136/116/116 99/112/112 135/117/117
f 135/117/117 99/112/112 134/118/118
f 134/118/118 99/112/112 133/119/119
f 133/119/119 99/112/112 100/120/120
f 133/119/119 100/120/120 132/121/121
f 132/121/121 100/120/120 131/122/122
f 131/122/122 100/120/120 130/123/123
f 130/123/123 100/120/120 129/124/124
f 129/124/124 100/120/120 128/125/125
f 128/125/125 100/120/120 127/126/126
f 127/126/126 100/120/120 106/127/127
f 127/126/126 106/127/127 126/128/128
f 126/128/128 106/127/127 125/129/129
f 125/129/129 106/127/127 142/130/130
f 125/129/129 142/130/130 124/131/131
f 124/131/131 142/130/130 143/132/132
f 124/131/131 143/132/132 123/133/133
f 123/133/133 143/132/132 144/134/134
f 123/133/133 144/134/134 122/135/135
f 122/135/135 144/134/134 145/136/136
f 122/135/135 145/136/136 121/137/137
f 121/137/137 145/136/136 146/138/138
f 121/137/137 146/138/138 147/139/139
f 100/120/120 101/140/140 106/127/127
f 106/127/127 101/140/140 102/141/141
f 106/127/127 102/141/141 103/142/142
f 103/142/142 104/143/143 106/127/127
f 106/127/127 104/143/143 105/144/144
f 142/130/130 106/127/127 141/145/145
f 141/145/145 106/127/127 107/84/84
f 141/145/145 107/84/84 140/146/146
f 140/146/146 107/84/84 139/147/147
f 139/147/147 107/84/84 164/148/148
f 164/148/148 107/84/84 163/149/149
f 163/149/149 107/84/84 162/150/150
f 162/150/150 107/84/84 161/151/151
f 161/151/151 107/84/84 160/97/97
f 115/113/113 116/152/152 93/103/103
f 93/103/103 116/152/152 117/153/153
f 93/103/103 117/153/153 150/154/154
f 150/154/154 117/153/153 118/155/155
f 150/154/154 118/155/155 149/156/156
f 149/156/156 118/155/155 119/157/157
f 149/156/156 119/157/157 148/158/158
f 148/158/158 119/157/157 120/159/159
f 148/158/158 120/159/159 147/139/139
f 147/139/139 120/159/159 121/137/137
f 150/154/154 151/104/104 93/103/103
f 153/106/106 154/160/160 92/95/95
f 92/95/95 154/160/160 155/161/161
f 92/95/95 155/161/161 156/162/162
f 156/162/162 157/163/163 92/95/95
f 92/95/95 157/163/163 158/164/164
f 92/95/95 158/164/164 159/96/96
f 31/165/165 93/166/166 32/167/167
f 32/167/167 93/166/166 92/168/168
f 91/169/169 1/170/170 92/171/171
f 92/171/171 1/170/170 32/172/172
f 90/173/173 2/174/174 91/175/175
f 91/175/175 2/174/174 1/176/176
f 8/177/177 84/178/178 9/179/179
f 9/179/179 84/178/178 83/180/180
f 15/181/181 109/182/182 16/183/183
f 16/183/183 109/182/182 108/184/184
f 107/185/185 17/186/186 108/187/187
f 108/187/187 17/186/186 16/188/188
f 106/189/189 18/190/190 107/191/191
f 107/191/191 18/190/190 17/192/192
f 99/193/193 25/194/194 100/195/195
f 100/195/195 25/194/194 24/196/196
f 33/197/197 152/198/198 34/199/199
f 34/199/199 152/198/198 151/200/200
f 34/199/199 151/200/200 35/201/201
f 35/201/201 151/200/200 150/202/202
f 35/201/201 150/202/202 36/203/203
f 36/203/203 150/202/202 149/204/204
f 36/203/203 149/204/204 37/205/205
f 37/205/205 149/204/204 148/206/206
f 37/205/205 148/206/206 38/207/207
f 38/207/207 148/206/206 147/208/208
f 38/207/207 147/208/208 39/209/209
f 39/209/209 147/208/208 146/210/210
f 39/209/209 146/210/210 40/211/211
f 40/211/211 146/210/210 145/212/212
f 40/211/211 145/212/212 41/213/213
f 41/213/213 145/212/212 144/214/214
f 41/213/213 144/214/214 42/215/215
f 42/215/215 144/214/214 143/216/216
f 42/215/215 143/216/216 43/217/217
f 43/217/217 143/216/216 142/218/218
f 43/217/217 142/218/218 44/219/219
f 44/219/219 142/218/218 141/220/220
f 44/219/219 141/220/220 45/221/221
f 45/221/221 141/220/220 140/222/222
f 139/223/223 46/224/224 140/225/222
f 140/225/222 46/224/224 45/226/221
f 46/227/224 139/228/223 47/229/225
f 47/229/225 139/228/223 164/230/226
f 47/229/225 164/230/226 48/231/227
f 48/231/227 164/230/226 163/232/228
f 48/231/227 163/232/228 49/233/229
f 49/233/229 163/232/228 162/234/230
f 49/233/229 162/234/230 50/235/231
f 50/235/231 162/234/230 161/236/232
f 50/235/231 161/236/232 51/237/233
f 51/237/233 161/236/232 160/238/234
f 51/237/233 160/238/234 52/239/235
f 52/239/235 160/238/234 159/240/236
f 52/239/235 159/240/236 53/241/237
f 53/241/237 159/240/236 158/242/238
f 53/241/237 158/242/238 54/243/239
f 54/243/239 158/242/238 157/244/240
f 54/243/239 157/244/240 55/245/241
f 55/245/241 157/244/240 156/246/242
f 55/245/241 156/246/242 56/247/243
f 56/247/243 156/246/242 155/248/244
f 56/247/243 155/248/244 57/249/245
f 57/249/245 155/248/244 154/250/246
f 57/249/245 154/250/246 58/251/247
f 58/251/247 154/250/246 153/252/248
f 152/253/198 33/254/197 153/255/248
f 153/255/248 33/254/197 58/256/247
f 82/257/249 128/258/250 59/259/251
f 59/259/251 128/258/250 127/260/252
f 59/259/251 127/260/252 60/261/253
f 60/261/253 127/260/252 126/262/254
f 60/261/253 126/262/254 61/263/255
f 61/263/255 126/262/254 125/264/256
f 61/263/255 125/264/256 62/265/257
f 62/265/257 125/264/256 124/266/258
f 62/265/257 124/266/258 63/267/259
f 63/267/259 124/266/258 123/268/260
f 63/267/259 123/268/260 64/269/261
f 64/269/261 123/268/260 122/270/262
f 64/269/261 122/270/262 65/271/263
f 65/271/263 122/270/262 121/272/264
f 65/271/263 121/272/264 66/273/265
f 66/273/265 121/272/264 120/274/266
f 66/273/265 120/274/266 67/275/267
f 67/275/267 120/274/266 119/276/268
f 67/275/267 119/276/268 68/277/269
f 68/277/269 119/276/268 118/278/270
f 68/277/269 118/278/270 69/279/271
f 69/279/271 118/278/270 117/280/272
f 69/279/271 117/280/272 70/281/273
f 70/281/273 117/280/272 116/282/274
f 70/281/273 116/282/274 71/283/275
f 71/283/275 116/282/274 115/284/276
f 71/285/275 115/286/276 72/287/277
f 72/287/277 115/286/276 138/288/278
f 72/287/277 138/288/278 73/289/279
f 73/289/279 138/288/278 137/290/280
f 73/289/279 137/290/280 74/291/281
f 74/291/281 137/290/280 136/292/282
f 74/291/281 136/292/282 75/293/283
f 75/293/283 136/292/282 135/294/284
f 75/293/283 135/294/284 76/295/285
f 76/295/285 135/294/284 134/296/286
f 76/295/285 134/296/286 77/297/287
f 77/297/287 134/296/286 133/298/288
f 77/297/287 133/298/288 78/299/289
f 78/299/289 133/298/288 132/300/290
f 78/299/289 132/300/290 79/301/291
f 79/301/291 132/300/290 131/302/292
f 79/301/291 131/302/292 80/303/293
f 80/303/293 131/302/292 130/304/294
f 80/303/293 130/304/294 81/305/295
f 81/305/295 130/304/294 129/306/296
f 81/305/295 129/306/296 82/257/249
f 82/257/249 129/306/296 128/258/250
f 93/307/166 31/308/165 94/309/297
f 94/309/297 31/308/165 30/310/298
f 94/309/297 30/310/298 95/311/299
f 95/311/299 30/310/298 29/312/300
f 95/311/299 29/312/300 96/313/301
f 96/313/301 29/312/300 28/314/302
f 96/313/301 28/314/302 97/315/303
f 97/315/303 28/314/302 27/316/304
f 97/315/303 27/316/304 98/317/305
f 98/317/305 27/316/304 26/318/306
f 98/317/305 26/318/306 99/319/193
f 99/319/193 26/318/306 25/320/194
f 100/321/195 24/322/196 101/323/307
f 101/323/307 24/322/196 23/324/308
f 101/323/307 23/324/308 102/325/309
f 102/325/309 23/324/308 22/326/310
f 102/325/309 22/326/310 103/327/311
f 103/327/311 22/326/310 21/328/312
f 103/327/311 21/328/312 104/329/313
f 104/329/313 21/328/312 20/330/314
f 104/329/313 20/330/314 105/331/315
f 105/331/315 20/330/314 19/332/316
f 105/331/315 19/332/316 106/333/189
f 106/333/189 19/332/316 18/334/190
f 84/335/178 8/336/177 85/337/317
f 85/337/317 8/336/177 7/338/318
f 85/337/317 7/338/318 86/339/319
f 86/339/319 7/338/318 6/340/320
f 86/339/319 6/340/320 87/341/321
f 87/341/321 6/340/320 5/342/322
f 87/341/321 5/342/322 88/343/323
f 88/343/323 5/342/322 4/344/324
f 88/343/323 4/344/324 89/345/325
f 89/345/325 4/344/324 3/346/326
f 89/345/325 3/346/326 90/347/173
f 90/347/173 3/346/326 2/348/174
f 109/349/182 15/350/181 110/351/327
f 110/351/327 15/350/181 14/352/328
f 110/351/327 14/352/328 111/353/329
f 111/353/329 14/352/328 13/354/330
f 111/353/329 13/354/330 112/355/331
f 112/355/331 13/354/330 12/356/332
f 112/355/331 12/356/332 113/357/333
f 113/357/333 12/356/332 11/358/334
f 113/357/333 11/358/334 114/359/335
f 114/359/335 11/358/334 10/360/336
f 114/359/335 10/360/336 83/361/180
f 83/361/180 10/360/336 9/362/179
# 164 vertices
# 362 texture params
# 336 normals
# 332 facets

# 1 groups
