# WaveFront *.obj file (generated by Autodesk ATF)

mtllib Stand_off_M3x15mm.mtl

g Body8

v -0.107679 0.186506 0.000000
v 0.107679 0.186506 0.000000
v 0.215359 -0.000000 0.000000
v 0.107679 -0.186506 0.000000
v -0.107679 -0.186506 0.000000
v -0.215359 -0.000000 0.000000
v 0.150000 -0.000000 0.000000
v 0.144889 0.038823 0.000000
v 0.129904 0.075000 0.000000
v 0.106066 0.106066 0.000000
v 0.075000 0.129904 0.000000
v 0.038823 0.144889 0.000000
v -0.000000 0.150000 0.000000
v -0.038823 0.144889 0.000000
v -0.075000 0.129904 0.000000
v -0.106066 0.106066 0.000000
v -0.129904 0.075000 0.000000
v -0.144889 0.038823 0.000000
v -0.150000 -0.000000 0.000000
v -0.144889 -0.038823 0.000000
v -0.129904 -0.075000 0.000000
v -0.106066 -0.106066 0.000000
v -0.075000 -0.129904 0.000000
v -0.038823 -0.144889 0.000000
v -0.000000 -0.150000 0.000000
v 0.038823 -0.144889 0.000000
v 0.075000 -0.129904 0.000000
v 0.106066 -0.106066 0.000000
v 0.129904 -0.075000 0.000000
v 0.144889 -0.038823 0.000000
v -0.250000 0.000000 0.030000
v -0.125000 -0.216506 0.030000
v 0.125000 -0.216506 0.030000
v -0.125000 0.216506 0.030000
v 0.250000 -0.000000 0.030000
v 0.125000 0.216506 0.030000
v -0.250000 -0.000000 1.470000
v -0.125000 0.216506 1.470000
v -0.125000 -0.216506 1.470000
v 0.125000 -0.216506 1.470000
v 0.250000 -0.000000 1.470000
v 0.125000 0.216506 1.470000
v 0.215359 -0.000000 1.500000
v 0.107679 0.186506 1.500000
v -0.107679 0.186506 1.500000
v -0.215359 -0.000000 1.500000
v -0.107679 -0.186506 1.500000
v 0.107679 -0.186506 1.500000
v 0.150000 -0.000000 1.500000
v 0.144889 -0.038823 1.500000
v 0.129904 -0.075000 1.500000
v 0.106066 -0.106066 1.500000
v 0.075000 -0.129904 1.500000
v 0.038823 -0.144889 1.500000
v -0.000000 -0.150000 1.500000
v -0.038823 -0.144889 1.500000
v -0.075000 -0.129904 1.500000
v -0.106066 -0.106066 1.500000
v -0.129904 -0.075000 1.500000
v -0.144889 -0.038823 1.500000
v -0.150000 -0.000000 1.500000
v -0.144889 0.038823 1.500000
v -0.129904 0.075000 1.500000
v -0.106066 0.106066 1.500000
v -0.075000 0.129904 1.500000
v -0.038823 0.144889 1.500000
v -0.000000 0.150000 1.500000
v 0.038823 0.144889 1.500000
v 0.075000 0.129904 1.500000
v 0.106066 0.106066 1.500000
v 0.129904 0.075000 1.500000
v 0.144889 0.038823 1.500000
v 0.150000 -0.000000 0.750000
v 0.144889 -0.038823 0.750000
v 0.129904 -0.075000 0.750000
v 0.106066 -0.106066 0.750000
v 0.075000 -0.129904 0.750000
v 0.038823 -0.144889 0.750000
v -0.000000 -0.150000 0.750000
v -0.038823 -0.144889 0.750000
v -0.075000 -0.129904 0.750000
v -0.106066 -0.106066 0.750000
v -0.129904 -0.075000 0.750000
v -0.144889 -0.038823 0.750000
v -0.150000 -0.000000 0.750000
v -0.144889 0.038823 0.750000
v -0.129904 0.075000 0.750000
v -0.106066 0.106066 0.750000
v -0.075000 0.129904 0.750000
v -0.038823 0.144889 0.750000
v -0.000000 0.150000 0.750000
v 0.038823 0.144889 0.750000
v 0.075000 0.129904 0.750000
v 0.106066 0.106066 0.750000
v 0.129904 0.075000 0.750000
v 0.144889 0.038823 0.750000
vt -0.107679 0.186506 0.000000
vt -0.000000 0.150000 0.000000
vt 0.107679 0.186506 0.000000
vt 0.038823 0.144889 0.000000
vt 0.075000 0.129904 0.000000
vt -0.215359 -0.000000 0.000000
vt -0.129904 0.075000 0.000000
vt -0.106066 0.106066 0.000000
vt -0.075000 0.129904 0.000000
vt -0.107679 -0.186506 0.000000
vt -0.129904 -0.075000 0.000000
vt -0.144889 -0.038823 0.000000
vt -0.150000 0.000000 0.000000
vt 0.107679 -0.186506 0.000000
vt 0.000000 -0.150000 0.000000
vt -0.038823 -0.144889 0.000000
vt -0.075000 -0.129904 0.000000
vt 0.215359 -0.000000 0.000000
vt 0.129904 -0.075000 0.000000
vt 0.106066 -0.106066 0.000000
vt 0.075000 -0.129904 0.000000
vt 0.129904 0.075000 0.000000
vt 0.144889 0.038823 0.000000
vt 0.150000 0.000000 0.000000
vt -0.144889 0.038823 0.000000
vt -0.038823 0.144889 0.000000
vt 0.106066 0.106066 0.000000
vt 0.144889 -0.038823 0.000000
vt 0.038823 -0.144889 0.000000
vt -0.106066 -0.106066 0.000000
vt -0.000000 0.000000 0.000000
vt -0.045826 -0.000000 0.000000
vt -0.094491 -0.231455 0.000000
vt -0.127224 -0.199384 0.000000
vt -0.017321 0.042426 0.000000
vt -0.232679 0.042426 0.000000
vt -0.000000 0.000000 0.000000
vt -0.250000 0.000000 0.000000
vt 0.094491 -0.231455 0.000000
vt 0.000000 -0.000000 0.000000
vt 0.048665 -0.231455 0.000000
vt -0.032733 -0.032071 0.000000
vt 0.032733 0.032071 0.000000
vt -0.048665 0.231455 0.000000
vt 0.000000 -0.000000 0.000000
vt -0.094491 0.231455 0.000000
vt 0.250000 0.000000 0.000000
vt -0.000000 0.000000 0.000000
vt 0.232679 -0.042426 0.000000
vt 0.017321 -0.042426 0.000000
vt -0.000000 0.000000 0.000000
vt 0.045826 -0.000000 0.000000
vt 0.094491 0.231455 0.000000
vt 0.127224 0.199384 0.000000
vt -0.970000 -0.250000 0.000000
vt 0.470000 -0.250000 0.000000
vt -0.970000 -0.000000 0.000000
vt 0.470000 -0.000000 0.000000
vt -0.970000 -0.250000 0.000000
vt 0.470000 -0.250000 0.000000
vt -0.970000 0.000000 0.000000
vt 0.470000 -0.000000 0.000000
vt 0.970000 0.250000 0.000000
vt -0.470000 0.250000 0.000000
vt 0.970000 0.000000 0.000000
vt -0.470000 0.000000 0.000000
vt 0.970000 0.250000 0.000000
vt -0.470000 0.250000 0.000000
vt 0.970000 -0.000000 0.000000
vt -0.470000 -0.000000 0.000000
vt 0.970000 0.250000 0.000000
vt -0.470000 0.250000 0.000000
vt 0.970000 0.000000 0.000000
vt -0.470000 -0.000000 0.000000
vt -0.970000 -0.250000 0.000000
vt 0.470000 -0.250000 0.000000
vt -0.970000 -0.000000 0.000000
vt 0.470000 -0.000000 0.000000
vt 0.107679 0.186506 0.000000
vt 0.129904 0.075000 0.000000
vt 0.215359 -0.000000 0.000000
vt 0.144889 0.038823 0.000000
vt 0.150000 0.000000 0.000000
vt -0.107679 0.186506 0.000000
vt 0.000000 0.150000 0.000000
vt 0.038823 0.144889 0.000000
vt 0.075000 0.129904 0.000000
vt -0.215359 -0.000000 0.000000
vt -0.129904 0.075000 0.000000
vt -0.106066 0.106066 0.000000
vt -0.075000 0.129904 0.000000
vt -0.107679 -0.186506 0.000000
vt -0.129904 -0.075000 0.000000
vt -0.144889 -0.038823 0.000000
vt -0.150000 0.000000 0.000000
vt 0.107679 -0.186506 0.000000
vt -0.000000 -0.150000 0.000000
vt -0.038823 -0.144889 0.000000
vt -0.075000 -0.129904 0.000000
vt 0.129904 -0.075000 0.000000
vt 0.106066 -0.106066 0.000000
vt 0.075000 -0.129904 0.000000
vt 0.144889 -0.038823 0.000000
vt 0.038823 -0.144889 0.000000
vt -0.106066 -0.106066 0.000000
vt -0.144889 0.038823 0.000000
vt -0.038823 0.144889 0.000000
vt 0.106066 0.106066 0.000000
vt -0.125000 -0.042426 0.000000
vt 0.125000 -0.042426 0.000000
vt -0.107679 0.000000 0.000000
vt 0.107679 0.000000 0.000000
vt -0.040699 -0.099692 0.000000
vt -0.007966 -0.131763 0.000000
vt 0.040699 0.099692 0.000000
vt 0.086525 0.099692 0.000000
vt 0.040699 -0.099692 0.000000
vt -0.040699 0.099692 0.000000
vt 0.007966 -0.131763 0.000000
vt -0.086525 0.099692 0.000000
vt 0.086525 -0.099692 0.000000
vt -0.007966 0.131763 0.000000
vt 0.040699 -0.099692 0.000000
vt -0.040699 0.099692 0.000000
vt -0.086525 -0.099692 0.000000
vt -0.040699 -0.099692 0.000000
vt 0.007966 0.131763 0.000000
vt 0.040699 0.099692 0.000000
vt 0.125000 0.042426 0.000000
vt -0.125000 0.042426 0.000000
vt 0.107679 -0.000000 0.000000
vt -0.107679 0.000000 0.000000
vt 1.000000 -0.431969 0.000000
vt 0.250000 -0.431969 0.000000
vt 1.000000 -0.471239 0.000000
vt 0.250000 -0.471239 0.000000
vt 1.000000 0.471239 0.000000
vt 0.250000 0.471239 0.000000
vt 1.000000 0.431969 0.000000
vt 0.250000 0.431969 0.000000
vt 1.000000 0.392699 0.000000
vt 0.250000 0.392699 0.000000
vt 1.000000 0.353429 0.000000
vt 0.250000 0.353429 0.000000
vt 1.000000 0.314159 0.000000
vt 0.250000 0.314159 0.000000
vt 1.000000 0.274889 0.000000
vt 0.250000 0.274889 0.000000
vt 1.000000 0.235619 0.000000
vt 0.250000 0.235619 0.000000
vt 1.000000 0.196350 0.000000
vt 0.250000 0.196350 0.000000
vt 1.000000 0.157080 0.000000
vt 0.250000 0.157080 0.000000
vt 1.000000 0.117810 0.000000
vt 0.250000 0.117810 0.000000
vt 1.000000 0.078540 0.000000
vt 0.250000 0.078540 0.000000
vt 1.000000 0.039270 0.000000
vt 0.250000 0.039270 0.000000
vt 1.000000 0.000000 0.000000
vt 0.250000 0.000000 0.000000
vt 1.000000 -0.039270 0.000000
vt 0.250000 -0.039270 0.000000
vt 1.000000 -0.078540 0.000000
vt 0.250000 -0.078540 0.000000
vt 1.000000 -0.117810 0.000000
vt 0.250000 -0.117810 0.000000
vt 1.000000 -0.157080 0.000000
vt 0.250000 -0.157080 0.000000
vt 1.000000 -0.196350 0.000000
vt 0.250000 -0.196350 0.000000
vt 1.000000 -0.235619 0.000000
vt 0.250000 -0.235619 0.000000
vt 1.000000 -0.274889 0.000000
vt 0.250000 -0.274889 0.000000
vt 1.000000 -0.314159 0.000000
vt 0.250000 -0.314159 0.000000
vt 1.000000 -0.353429 0.000000
vt 0.250000 -0.353429 0.000000
vt 1.000000 -0.392699 0.000000
vt 0.250000 -0.392699 0.000000
vt -0.500000 0.431969 0.000000
vt -0.500000 0.471239 0.000000
vt -0.500000 -0.471239 0.000000
vt -0.500000 -0.431969 0.000000
vt -0.500000 -0.392699 0.000000
vt -0.500000 -0.353429 0.000000
vt -0.500000 -0.314159 0.000000
vt -0.500000 -0.274889 0.000000
vt -0.500000 -0.235619 0.000000
vt -0.500000 -0.196350 0.000000
vt -0.500000 -0.157080 0.000000
vt -0.500000 -0.117810 0.000000
vt -0.500000 -0.078540 0.000000
vt -0.500000 -0.039270 0.000000
vt -0.500000 0.000000 0.000000
vt -0.500000 0.039270 0.000000
vt -0.500000 0.078540 0.000000
vt -0.500000 0.117810 0.000000
vt -0.500000 0.157080 0.000000
vt -0.500000 0.196350 0.000000
vt -0.500000 0.235619 0.000000
vt -0.500000 0.274889 0.000000
vt -0.500000 0.314159 0.000000
vt -0.500000 0.353429 0.000000
vt -0.500000 0.392699 0.000000
vn -0.000000 -0.000000 -1.000000
vn -0.000000 -0.000000 -1.000000
vn -0.000000 -0.000000 -1.000000
vn -0.000000 -0.000000 -1.000000
vn -0.000000 -0.000000 -1.000000
vn -0.000000 -0.000000 -1.000000
vn -0.000000 -0.000000 -1.000000
vn -0.000000 -0.000000 -1.000000
vn -0.000000 -0.000000 -1.000000
vn -0.000000 -0.000000 -1.000000
vn -0.000000 -0.000000 -1.000000
vn -0.000000 -0.000000 -1.000000
vn -0.000000 -0.000000 -1.000000
vn -0.000000 -0.000000 -1.000000
vn -0.000000 -0.000000 -1.000000
vn -0.000000 -0.000000 -1.000000
vn -0.000000 -0.000000 -1.000000
vn -0.000000 -0.000000 -1.000000
vn -0.000000 -0.000000 -1.000000
vn -0.000000 -0.000000 -1.000000
vn -0.000000 -0.000000 -1.000000
vn -0.000000 -0.000000 -1.000000
vn -0.000000 -0.000000 -1.000000
vn -0.000000 -0.000000 -1.000000
vn -0.000000 -0.000000 -1.000000
vn -0.000000 -0.000000 -1.000000
vn -0.000000 -0.000000 -1.000000
vn -0.000000 -0.000000 -1.000000
vn -0.000000 -0.000000 -1.000000
vn -0.000000 -0.000000 -1.000000
vn -0.612372 -0.353553 -0.707107
vn -0.612372 -0.353553 -0.707107
vn -0.612372 -0.353553 -0.707107
vn -0.612372 -0.353553 -0.707107
vn -0.000000 -0.707107 -0.707107
vn -0.000000 -0.707107 -0.707107
vn -0.000000 -0.707107 -0.707107
vn -0.000000 -0.707107 -0.707107
vn -0.612372 0.353553 -0.707107
vn -0.612372 0.353553 -0.707107
vn -0.612372 0.353553 -0.707107
vn -0.612372 0.353553 -0.707107
vn 0.612372 -0.353553 -0.707107
vn 0.612372 -0.353553 -0.707107
vn 0.612372 -0.353553 -0.707107
vn 0.612372 -0.353553 -0.707107
vn 0.000000 0.707107 -0.707107
vn 0.000000 0.707107 -0.707107
vn 0.000000 0.707107 -0.707107
vn 0.000000 0.707107 -0.707107
vn 0.612372 0.353553 -0.707107
vn 0.612372 0.353553 -0.707107
vn 0.612372 0.353553 -0.707107
vn 0.612372 0.353553 -0.707107
vn -0.866025 0.500000 -0.000000
vn -0.866025 0.500000 -0.000000
vn -0.866025 0.500000 -0.000000
vn -0.866025 0.500000 -0.000000
vn -0.866025 -0.500000 -0.000000
vn -0.866025 -0.500000 -0.000000
vn -0.866025 -0.500000 -0.000000
vn -0.866025 -0.500000 -0.000000
vn -0.000000 -1.000000 -0.000000
vn -0.000000 -1.000000 -0.000000
vn -0.000000 -1.000000 -0.000000
vn -0.000000 -1.000000 -0.000000
vn 0.866025 -0.500000 -0.000000
vn 0.866025 -0.500000 -0.000000
vn 0.866025 -0.500000 -0.000000
vn 0.866025 -0.500000 -0.000000
vn 0.866025 0.500000 -0.000000
vn 0.866025 0.500000 -0.000000
vn 0.866025 0.500000 -0.000000
vn 0.866025 0.500000 -0.000000
vn 0.000000 1.000000 -0.000000
vn 0.000000 1.000000 -0.000000
vn 0.000000 1.000000 -0.000000
vn 0.000000 1.000000 -0.000000
vn 0.000000 0.000000 1.000000
vn 0.000000 0.000000 1.000000
vn 0.000000 0.000000 1.000000
vn 0.000000 0.000000 1.000000
vn 0.000000 0.000000 1.000000
vn 0.000000 0.000000 1.000000
vn 0.000000 0.000000 1.000000
vn 0.000000 0.000000 1.000000
vn 0.000000 0.000000 1.000000
vn 0.000000 0.000000 1.000000
vn 0.000000 0.000000 1.000000
vn 0.000000 0.000000 1.000000
vn 0.000000 0.000000 1.000000
vn 0.000000 0.000000 1.000000
vn 0.000000 0.000000 1.000000
vn 0.000000 0.000000 1.000000
vn 0.000000 0.000000 1.000000
vn 0.000000 0.000000 1.000000
vn 0.000000 0.000000 1.000000
vn 0.000000 0.000000 1.000000
vn 0.000000 0.000000 1.000000
vn 0.000000 0.000000 1.000000
vn 0.000000 0.000000 1.000000
vn 0.000000 0.000000 1.000000
vn 0.000000 0.000000 1.000000
vn 0.000000 0.000000 1.000000
vn 0.000000 0.000000 1.000000
vn 0.000000 0.000000 1.000000
vn 0.000000 0.000000 1.000000
vn 0.000000 0.000000 1.000000
vn 0.000000 -0.707107 0.707107
vn 0.000000 -0.707107 0.707107
vn 0.000000 -0.707107 0.707107
vn 0.000000 -0.707107 0.707107
vn 0.612372 -0.353553 0.707107
vn 0.612372 -0.353553 0.707107
vn 0.612372 -0.353553 0.707107
vn 0.612372 -0.353553 0.707107
vn -0.612372 -0.353553 0.707107
vn -0.612372 -0.353553 0.707107
vn -0.612372 -0.353553 0.707107
vn -0.612372 -0.353553 0.707107
vn 0.612372 0.353553 0.707107
vn 0.612372 0.353553 0.707107
vn 0.612372 0.353553 0.707107
vn 0.612372 0.353553 0.707107
vn -0.612372 0.353553 0.707107
vn -0.612372 0.353553 0.707107
vn -0.612372 0.353553 0.707107
vn -0.612372 0.353553 0.707107
vn 0.000000 0.707107 0.707107
vn 0.000000 0.707107 0.707107
vn 0.000000 0.707107 0.707107
vn 0.000000 0.707107 0.707107
vn -0.965926 0.258819 -0.000000
vn -0.965926 0.258819 -0.000000
vn -1.000000 0.000000 -0.000000
vn -1.000000 0.000000 -0.000000
vn -0.965926 -0.258819 -0.000000
vn -0.965926 -0.258819 -0.000000
vn -0.866025 -0.500000 -0.000000
vn -0.866025 -0.500000 -0.000000
vn -0.707107 -0.707107 -0.000000
vn -0.707107 -0.707107 -0.000000
vn -0.500000 -0.866025 -0.000000
vn -0.500000 -0.866025 -0.000000
vn -0.258819 -0.965926 -0.000000
vn -0.258819 -0.965926 -0.000000
vn 0.000000 -1.000000 -0.000000
vn 0.000000 -1.000000 -0.000000
vn 0.258819 -0.965926 -0.000000
vn 0.258819 -0.965926 -0.000000
vn 0.500000 -0.866025 -0.000000
vn 0.500000 -0.866025 -0.000000
vn 0.707107 -0.707107 -0.000000
vn 0.707107 -0.707107 -0.000000
vn 0.866025 -0.500000 -0.000000
vn 0.866025 -0.500000 -0.000000
vn 0.965926 -0.258819 -0.000000
vn 0.965926 -0.258819 -0.000000
vn 1.000000 -0.000000 -0.000000
vn 1.000000 -0.000000 -0.000000
vn 0.965926 0.258819 -0.000000
vn 0.965926 0.258819 -0.000000
vn 0.866025 0.500000 -0.000000
vn 0.866025 0.500000 -0.000000
vn 0.707107 0.707107 -0.000000
vn 0.707107 0.707107 -0.000000
vn 0.500000 0.866025 -0.000000
vn 0.500000 0.866025 -0.000000
vn 0.258819 0.965926 -0.000000
vn 0.258819 0.965926 -0.000000
vn 0.000000 1.000000 -0.000000
vn 0.000000 1.000000 -0.000000
vn -0.258819 0.965926 -0.000000
vn -0.258819 0.965926 -0.000000
vn -0.500000 0.866025 -0.000000
vn -0.500000 0.866025 -0.000000
vn -0.707107 0.707107 -0.000000
vn -0.707107 0.707107 -0.000000
vn -0.866025 0.500000 -0.000000
vn -0.866025 0.500000 -0.000000
vn -0.965926 -0.258819 -0.000000
vn -1.000000 -0.000000 -0.000000
vn -0.965926 0.258819 -0.000000
vn -0.866025 0.500000 -0.000000
vn -0.707107 0.707107 -0.000000
vn -0.500000 0.866025 -0.000000
vn -0.258819 0.965926 -0.000000
vn 0.000000 1.000000 -0.000000
vn 0.258819 0.965926 -0.000000
vn 0.500000 0.866025 -0.000000
vn 0.707107 0.707107 -0.000000
vn 0.866025 0.500000 -0.000000
vn 0.965926 0.258819 -0.000000
vn 1.000000 -0.000000 -0.000000
vn 0.965926 -0.258819 -0.000000
vn 0.866025 -0.500000 -0.000000
vn 0.707107 -0.707107 -0.000000
vn 0.500000 -0.866025 -0.000000
vn 0.258819 -0.965926 -0.000000
vn 0.000000 -1.000000 -0.000000
vn -0.258819 -0.965926 -0.000000
vn -0.500000 -0.866025 -0.000000
vn -0.707107 -0.707107 -0.000000
vn -0.866025 -0.500000 -0.000000
usemtl Nylon_6-6_(White)
f 2/1/1 13/2/2 1/3/3
f 1/3/3 13/2/2 14/4/4
f 1/3/3 14/4/4 15/5/5
f 3/6/6 9/7/7 2/1/1
f 2/1/1 9/7/7 10/8/8
f 2/1/1 10/8/8 11/9/9
f 4/10/10 29/11/11 3/6/6
f 3/6/6 29/11/11 30/12/12
f 3/6/6 30/12/12 7/13/13
f 5/14/14 25/15/15 4/10/10
f 4/10/10 25/15/15 26/16/16
f 4/10/10 26/16/16 27/17/17
f 6/18/18 21/19/19 5/14/14
f 5/14/14 21/19/19 22/20/20
f 5/14/14 22/20/20 23/21/21
f 1/3/3 17/22/22 6/18/18
f 6/18/18 17/22/22 18/23/23
f 6/18/18 18/23/23 19/24/24
f 7/13/13 8/25/25 3/6/6
f 3/6/6 8/25/25 9/7/7
f 11/9/9 12/26/26 2/1/1
f 2/1/1 12/26/26 13/2/2
f 15/5/5 16/27/27 1/3/3
f 1/3/3 16/27/27 17/22/22
f 19/24/24 20/28/28 6/18/18
f 6/18/18 20/28/28 21/19/19
f 23/21/21 24/29/29 5/14/14
f 5/14/14 24/29/29 25/15/15
f 27/17/17 28/30/30 4/10/10
f 4/10/10 28/30/30 29/11/11
f 31/31/31 6/32/32 32/33/33
f 32/33/33 6/32/32 5/34/34
f 5/35/35 4/36/36 32/37/37
f 32/37/37 4/36/36 33/38/38
f 31/39/39 34/40/40 6/41/41
f 6/41/41 34/40/40 1/42/42
f 4/43/43 3/44/44 33/45/45
f 33/45/45 3/44/44 35/46/46
f 34/47/47 36/48/48 1/49/49
f 1/49/49 36/48/48 2/50/50
f 35/51/51 3/52/52 36/53/53
f 36/53/53 3/52/52 2/54/54
f 31/55/55 37/56/56 34/57/57
f 34/57/57 37/56/56 38/58/58
f 32/59/59 39/60/60 31/61/61
f 31/61/61 39/60/60 37/62/62
f 33/63/63 40/64/64 32/65/65
f 32/65/65 40/64/64 39/66/66
f 35/67/67 41/68/68 33/69/69
f 33/69/69 41/68/68 40/70/70
f 36/71/71 42/72/72 35/73/73
f 35/73/73 42/72/72 41/74/74
f 34/75/75 38/76/76 36/77/77
f 36/77/77 38/76/76 42/78/78
f 44/79/79 71/80/80 43/81/81
f 43/81/81 71/80/80 72/82/82
f 43/81/81 72/82/82 49/83/83
f 45/84/84 67/85/85 44/79/79
f 44/79/79 67/85/85 68/86/86
f 44/79/79 68/86/86 69/87/87
f 46/88/88 63/89/89 45/84/84
f 45/84/84 63/89/89 64/90/90
f 45/84/84 64/90/90 65/91/91
f 47/92/92 59/93/93 46/88/88
f 46/88/88 59/93/93 60/94/94
f 46/88/88 60/94/94 61/95/95
f 48/96/96 55/97/97 47/92/92
f 47/92/92 55/97/97 56/98/98
f 47/92/92 56/98/98 57/99/99
f 43/81/81 51/100/100 48/96/96
f 48/96/96 51/100/100 52/101/101
f 48/96/96 52/101/101 53/102/102
f 49/83/83 50/103/103 43/81/81
f 43/81/81 50/103/103 51/100/100
f 53/102/102 54/104/104 48/96/96
f 48/96/96 54/104/104 55/97/97
f 57/99/99 58/105/105 47/92/92
f 47/92/92 58/105/105 59/93/93
f 61/95/95 62/106/106 46/88/88
f 46/88/88 62/106/106 63/89/89
f 65/91/91 66/107/107 45/84/84
f 45/84/84 66/107/107 67/85/85
f 69/87/87 70/108/108 44/79/79
f 44/79/79 70/108/108 71/80/80
f 39/109/109 40/110/110 47/111/111
f 47/111/111 40/110/110 48/112/112
f 48/113/113 40/114/114 43/115/115
f 43/115/115 40/114/114 41/116/116
f 47/117/117 46/118/118 39/119/119
f 39/119/119 46/118/118 37/120/120
f 41/121/121 42/122/122 43/123/123
f 43/123/123 42/122/122 44/124/124
f 37/125/125 46/126/126 38/127/127
f 38/127/127 46/126/126 45/128/128
f 42/129/129 38/130/130 44/131/131
f 44/131/131 38/130/130 45/132/132
f 30/133/133 74/134/134 7/135/135
f 7/135/135 74/134/134 73/136/136
f 7/137/135 73/138/136 8/139/137
f 8/139/137 73/138/136 96/140/138
f 8/139/137 96/140/138 9/141/139
f 9/141/139 96/140/138 95/142/140
f 9/141/139 95/142/140 10/143/141
f 10/143/141 95/142/140 94/144/142
f 10/143/141 94/144/142 11/145/143
f 11/145/143 94/144/142 93/146/144
f 11/145/143 93/146/144 12/147/145
f 12/147/145 93/146/144 92/148/146
f 12/147/145 92/148/146 13/149/147
f 13/149/147 92/148/146 91/150/148
f 13/149/147 91/150/148 14/151/149
f 14/151/149 91/150/148 90/152/150
f 14/151/149 90/152/150 15/153/151
f 15/153/151 90/152/150 89/154/152
f 15/153/151 89/154/152 16/155/153
f 16/155/153 89/154/152 88/156/154
f 16/155/153 88/156/154 17/157/155
f 17/157/155 88/156/154 87/158/156
f 17/157/155 87/158/156 18/159/157
f 18/159/157 87/158/156 86/160/158
f 18/159/157 86/160/158 19/161/159
f 19/161/159 86/160/158 85/162/160
f 19/161/159 85/162/160 20/163/161
f 20/163/161 85/162/160 84/164/162
f 20/163/161 84/164/162 21/165/163
f 21/165/163 84/164/162 83/166/164
f 21/165/163 83/166/164 22/167/165
f 22/167/165 83/166/164 82/168/166
f 22/167/165 82/168/166 23/169/167
f 23/169/167 82/168/166 81/170/168
f 23/169/167 81/170/168 24/171/169
f 24/171/169 81/170/168 80/172/170
f 24/171/169 80/172/170 25/173/171
f 25/173/171 80/172/170 79/174/172
f 25/173/171 79/174/172 26/175/173
f 26/175/173 79/174/172 78/176/174
f 26/175/173 78/176/174 27/177/175
f 27/177/175 78/176/174 77/178/176
f 27/177/175 77/178/176 28/179/177
f 28/179/177 77/178/176 76/180/178
f 28/179/177 76/180/178 29/181/179
f 29/181/179 76/180/178 75/182/180
f 29/181/179 75/182/180 30/133/133
f 30/133/133 75/182/180 74/134/134
f 72/183/181 96/140/138 49/184/182
f 49/184/182 96/140/138 73/138/136
f 49/185/182 73/136/136 50/186/183
f 50/186/183 73/136/136 74/134/134
f 50/186/183 74/134/134 51/187/184
f 51/187/184 74/134/134 75/182/180
f 51/187/184 75/182/180 52/188/185
f 52/188/185 75/182/180 76/180/178
f 52/188/185 76/180/178 53/189/186
f 53/189/186 76/180/178 77/178/176
f 53/189/186 77/178/176 54/190/187
f 54/190/187 77/178/176 78/176/174
f 54/190/187 78/176/174 55/191/188
f 55/191/188 78/176/174 79/174/172
f 55/191/188 79/174/172 56/192/189
f 56/192/189 79/174/172 80/172/170
f 56/192/189 80/172/170 57/193/190
f 57/193/190 80/172/170 81/170/168
f 57/193/190 81/170/168 58/194/191
f 58/194/191 81/170/168 82/168/166
f 58/194/191 82/168/166 59/195/192
f 59/195/192 82/168/166 83/166/164
f 59/195/192 83/166/164 60/196/193
f 60/196/193 83/166/164 84/164/162
f 60/196/193 84/164/162 61/197/194
f 61/197/194 84/164/162 85/162/160
f 61/197/194 85/162/160 62/198/195
f 62/198/195 85/162/160 86/160/158
f 62/198/195 86/160/158 63/199/196
f 63/199/196 86/160/158 87/158/156
f 63/199/196 87/158/156 64/200/197
f 64/200/197 87/158/156 88/156/154
f 64/200/197 88/156/154 65/201/198
f 65/201/198 88/156/154 89/154/152
f 65/201/198 89/154/152 66/202/199
f 66/202/199 89/154/152 90/152/150
f 66/202/199 90/152/150 67/203/200
f 67/203/200 90/152/150 91/150/148
f 67/203/200 91/150/148 68/204/201
f 68/204/201 91/150/148 92/148/146
f 68/204/201 92/148/146 69/205/202
f 69/205/202 92/148/146 93/146/144
f 69/205/202 93/146/144 70/206/203
f 70/206/203 93/146/144 94/144/142
f 70/206/203 94/144/142 71/207/204
f 71/207/204 94/144/142 95/142/140
f 71/207/204 95/142/140 72/183/181
f 72/183/181 95/142/140 96/140/138
# 96 vertices
# 207 texture params
# 204 normals
# 192 facets

# 1 groups
